STARTFONT 2.1
COMMENT
COMMENT Converted from OpenType font "SourceSansPro-Regular.otf" by "otf2bdf 3.0".
COMMENT
FONT -FreeType-Source Sans Pro-Medium-R-Normal--25-180-100-100-P-115-ISO10646-1
SIZE 18 100 100
FONTBOUNDINGBOX 65 32 -11 -7
STARTPROPERTIES 19
FOUNDRY "FreeType"
FAMILY_NAME "Source Sans Pro"
WEIGHT_NAME "Medium"
SLANT "R"
SETWIDTH_NAME "Normal"
ADD_STYLE_NAME ""
PIXEL_SIZE 25
POINT_SIZE 180
RESOLUTION_X 100
RESOLUTION_Y 100
SPACING "P"
AVERAGE_WIDTH 115
CHARSET_REGISTRY "ISO10646"
CHARSET_ENCODING "1"
FONT_ASCENT 24
FONT_DESCENT 6
COPYRIGHT "Copyright 2010, 2012, 2014 Adobe Systems Incorporated (http://www.adobe.com/), with Reserved Font Name Source."
_OTF_FONTFILE "SourceSansPro-Regular.otf"
_OTF_PSNAME "SourceSansPro-Regular"
ENDPROPERTIES
CHARS 1296
STARTCHAR 0020
ENCODING 32
SWIDTH 200 0
DWIDTH 5 0
BBX 0 0 0 0
BITMAP
ENDCHAR
STARTCHAR 0021
ENCODING 33
SWIDTH 280 0
DWIDTH 7 0
BBX 3 17 2 0
BITMAP
60
60
60
60
60
60
40
40
40
40
40
40
00
00
E0
E0
E0
ENDCHAR
STARTCHAR 0022
ENCODING 34
SWIDTH 440 0
DWIDTH 11 0
BBX 7 6 2 11
BITMAP
CE
CE
C4
C4
C4
C4
ENDCHAR
STARTCHAR 0023
ENCODING 35
SWIDTH 480 0
DWIDTH 12 0
BBX 11 16 1 0
BITMAP
1880
1080
1080
1180
1180
FFE0
3100
3100
3100
2100
FFC0
2300
2300
2300
6200
6200
ENDCHAR
STARTCHAR 0024
ENCODING 36
SWIDTH 480 0
DWIDTH 12 0
BBX 9 20 2 -2
BITMAP
0800
0800
3E00
7F00
C100
C000
C000
E000
7000
3C00
0F00
0300
0180
0180
0180
8380
FF00
3E00
0800
0800
ENDCHAR
STARTCHAR 0025
ENCODING 37
SWIDTH 840 0
DWIDTH 21 0
BBX 19 17 1 0
BITMAP
380400
6C0C00
C60800
C21800
821000
823000
C22000
C66780
464CC0
7C8840
009860
011860
031860
021860
060840
040CC0
0C0780
ENDCHAR
STARTCHAR 0026
ENCODING 38
SWIDTH 600 0
DWIDTH 15 0
BBX 14 17 1 0
BITMAP
0F00
1F80
3180
3180
3180
3300
3600
1C00
3C08
6C18
C618
C330
C1B0
C0E0
E0F0
7FBC
3E08
ENDCHAR
STARTCHAR 0027
ENCODING 39
SWIDTH 240 0
DWIDTH 6 0
BBX 2 6 2 11
BITMAP
C0
C0
C0
C0
C0
C0
ENDCHAR
STARTCHAR 0028
ENCODING 40
SWIDTH 320 0
DWIDTH 8 0
BBX 4 23 2 -5
BITMAP
10
10
30
20
60
60
40
C0
C0
C0
C0
C0
C0
C0
C0
C0
40
60
60
20
30
10
10
ENDCHAR
STARTCHAR 0029
ENCODING 41
SWIDTH 320 0
DWIDTH 8 0
BBX 5 22 1 -5
BITMAP
C0
C0
60
60
20
30
30
30
10
10
18
18
18
10
10
30
30
30
20
60
40
C0
ENDCHAR
STARTCHAR 002A
ENCODING 42
SWIDTH 400 0
DWIDTH 10 0
BBX 7 7 2 11
BITMAP
10
30
F6
FC
38
78
CC
ENDCHAR
STARTCHAR 002B
ENCODING 43
SWIDTH 480 0
DWIDTH 12 0
BBX 11 11 1 3
BITMAP
0C00
0C00
0C00
0C00
0C00
FFE0
FFE0
0C00
0C00
0C00
0C00
ENDCHAR
STARTCHAR 002C
ENCODING 44
SWIDTH 240 0
DWIDTH 6 0
BBX 4 7 1 -4
BITMAP
60
70
70
30
30
60
C0
ENDCHAR
STARTCHAR 002D
ENCODING 45
SWIDTH 320 0
DWIDTH 8 0
BBX 6 2 1 5
BITMAP
FC
FC
ENDCHAR
STARTCHAR 002E
ENCODING 46
SWIDTH 240 0
DWIDTH 6 0
BBX 3 3 2 0
BITMAP
C0
E0
C0
ENDCHAR
STARTCHAR 002F
ENCODING 47
SWIDTH 360 0
DWIDTH 9 0
BBX 8 22 0 -4
BITMAP
01
01
03
02
02
06
06
04
0C
0C
08
18
18
10
10
30
20
20
60
60
40
C0
ENDCHAR
STARTCHAR 0030
ENCODING 48
SWIDTH 480 0
DWIDTH 12 0
BBX 10 16 1 0
BITMAP
1E00
3F80
6180
60C0
C0C0
C0C0
C0C0
C0C0
C0C0
C0C0
C0C0
E0C0
60C0
6180
3F80
1E00
ENDCHAR
STARTCHAR 0031
ENCODING 49
SWIDTH 480 0
DWIDTH 12 0
BBX 9 16 2 0
BITMAP
1C00
7C00
0C00
0C00
0C00
0C00
0C00
0C00
0C00
0C00
0C00
0C00
0C00
0C00
FF80
FF80
ENDCHAR
STARTCHAR 0032
ENCODING 50
SWIDTH 480 0
DWIDTH 12 0
BBX 10 16 1 0
BITMAP
3E00
7F00
C180
0180
0180
0180
0180
0180
0300
0600
0E00
1C00
3800
7000
FFC0
FFC0
ENDCHAR
STARTCHAR 0033
ENCODING 51
SWIDTH 480 0
DWIDTH 12 0
BBX 10 16 1 0
BITMAP
1E00
7F80
4180
01C0
01C0
0180
0380
1E00
1F00
01C0
00C0
00C0
00C0
C1C0
FF80
3E00
ENDCHAR
STARTCHAR 0034
ENCODING 52
SWIDTH 480 0
DWIDTH 12 0
BBX 12 16 0 0
BITMAP
01C0
03C0
02C0
06C0
0CC0
0CC0
18C0
30C0
30C0
60C0
FFF0
FFF0
00C0
00C0
00C0
00C0
ENDCHAR
STARTCHAR 0035
ENCODING 53
SWIDTH 480 0
DWIDTH 12 0
BBX 10 16 1 0
BITMAP
7F80
7F80
6000
6000
6000
6000
7F00
7F80
01C0
00C0
00C0
00C0
00C0
C1C0
FF80
3E00
ENDCHAR
STARTCHAR 0036
ENCODING 54
SWIDTH 480 0
DWIDTH 12 0
BBX 10 16 1 0
BITMAP
0F80
1FC0
3080
6000
6000
6000
C000
DF80
F1C0
E0C0
C0C0
40C0
60C0
70C0
3F80
1F00
ENDCHAR
STARTCHAR 0037
ENCODING 55
SWIDTH 480 0
DWIDTH 12 0
BBX 10 16 1 0
BITMAP
FFC0
FFC0
0080
0180
0300
0300
0600
0600
0600
0C00
0C00
0C00
0C00
0C00
0C00
1C00
ENDCHAR
STARTCHAR 0038
ENCODING 56
SWIDTH 480 0
DWIDTH 12 0
BBX 10 16 1 0
BITMAP
1F00
3F80
61C0
60C0
60C0
60C0
3980
1F00
3780
61C0
C0C0
C0C0
C0C0
E0C0
7F80
1F00
ENDCHAR
STARTCHAR 0039
ENCODING 57
SWIDTH 480 0
DWIDTH 12 0
BBX 10 16 1 0
BITMAP
1E00
7F00
6180
C0C0
C0C0
C0C0
C0C0
61C0
7EC0
08C0
00C0
00C0
0180
4380
FF00
3C00
ENDCHAR
STARTCHAR 003A
ENCODING 58
SWIDTH 240 0
DWIDTH 6 0
BBX 3 12 2 0
BITMAP
C0
E0
C0
00
00
00
00
00
00
C0
E0
C0
ENDCHAR
STARTCHAR 003B
ENCODING 59
SWIDTH 240 0
DWIDTH 6 0
BBX 4 16 1 -4
BITMAP
60
70
60
00
00
00
00
00
00
60
70
70
30
30
60
C0
ENDCHAR
STARTCHAR 003C
ENCODING 60
SWIDTH 480 0
DWIDTH 12 0
BBX 11 10 1 3
BITMAP
0060
01E0
0F00
3C00
E000
E000
3C00
0F80
01E0
0060
ENDCHAR
STARTCHAR 003D
ENCODING 61
SWIDTH 480 0
DWIDTH 12 0
BBX 11 7 1 5
BITMAP
FFE0
FFE0
0000
0000
0000
FFE0
FFE0
ENDCHAR
STARTCHAR 003E
ENCODING 62
SWIDTH 480 0
DWIDTH 12 0
BBX 11 10 1 3
BITMAP
8000
F000
3C00
0780
01E0
01E0
0780
3C00
F000
8000
ENDCHAR
STARTCHAR 003F
ENCODING 63
SWIDTH 440 0
DWIDTH 11 0
BBX 8 17 1 0
BITMAP
3C
7F
C3
03
03
03
07
06
0C
18
18
18
00
00
18
38
18
ENDCHAR
STARTCHAR 0040
ENCODING 64
SWIDTH 840 0
DWIDTH 21 0
BBX 19 20 1 -4
BITMAP
00FC00
078F00
0C0180
1800C0
3000C0
200060
60FC60
419860
430860
C21860
C61860
C61840
C638C0
43DF80
400F00
600000
300000
180000
0F3C00
03F000
ENDCHAR
STARTCHAR 0041
ENCODING 65
SWIDTH 560 0
DWIDTH 14 0
BBX 13 17 0 0
BITMAP
0700
0700
0580
0D80
0C80
0CC0
18C0
18C0
1860
1060
3FE0
3FF0
3030
6030
6018
6018
C018
ENDCHAR
STARTCHAR 0042
ENCODING 66
SWIDTH 600 0
DWIDTH 15 0
BBX 12 17 2 0
BITMAP
FF00
FFC0
C0C0
C060
C060
C060
C0C0
FF80
FFC0
C0E0
C060
C030
C030
C070
C060
FFC0
FF80
ENDCHAR
STARTCHAR 0043
ENCODING 67
SWIDTH 560 0
DWIDTH 14 0
BBX 12 17 1 0
BITMAP
07C0
1FF0
3830
3000
6000
6000
E000
E000
C000
E000
E000
6000
6000
7000
3830
1FF0
07C0
ENDCHAR
STARTCHAR 0044
ENCODING 68
SWIDTH 600 0
DWIDTH 15 0
BBX 12 17 2 0
BITMAP
FF00
FF80
C1C0
C060
C070
C030
C030
C030
C030
C030
C030
C030
C060
C060
C1C0
FF80
FE00
ENDCHAR
STARTCHAR 0045
ENCODING 69
SWIDTH 520 0
DWIDTH 13 0
BBX 10 17 2 0
BITMAP
FFC0
FFC0
C000
C000
C000
C000
C000
FF80
FF80
C000
C000
C000
C000
C000
C000
FFC0
FFC0
ENDCHAR
STARTCHAR 0046
ENCODING 70
SWIDTH 480 0
DWIDTH 12 0
BBX 10 17 2 0
BITMAP
FFC0
FFC0
C000
C000
C000
C000
C000
FF80
FF80
C000
C000
C000
C000
C000
C000
C000
C000
ENDCHAR
STARTCHAR 0047
ENCODING 71
SWIDTH 600 0
DWIDTH 15 0
BBX 13 17 1 0
BITMAP
07C0
1FF0
3830
3000
6000
6000
E000
E000
C1F8
E1F8
E018
6018
6018
7018
3838
1FF0
07C0
ENDCHAR
STARTCHAR 0048
ENCODING 72
SWIDTH 640 0
DWIDTH 16 0
BBX 12 17 2 0
BITMAP
C030
C030
C030
C030
C030
C030
C030
FFF0
FFF0
C030
C030
C030
C030
C030
C030
C030
C030
ENDCHAR
STARTCHAR 0049
ENCODING 73
SWIDTH 280 0
DWIDTH 7 0
BBX 2 17 2 0
BITMAP
C0
C0
C0
C0
C0
C0
C0
C0
C0
C0
C0
C0
C0
C0
C0
C0
C0
ENDCHAR
STARTCHAR 004A
ENCODING 74
SWIDTH 480 0
DWIDTH 12 0
BBX 9 17 1 0
BITMAP
0180
0180
0180
0180
0180
0180
0180
0180
0180
0180
0180
0180
0180
0180
C300
7F00
3C00
ENDCHAR
STARTCHAR 004B
ENCODING 75
SWIDTH 560 0
DWIDTH 14 0
BBX 12 17 2 0
BITMAP
C060
C0C0
C1C0
C380
C300
C600
CC00
DE00
FF00
F300
E380
C180
C0C0
C0C0
C060
C070
C030
ENDCHAR
STARTCHAR 004C
ENCODING 76
SWIDTH 480 0
DWIDTH 12 0
BBX 9 17 2 0
BITMAP
C000
C000
C000
C000
C000
C000
C000
C000
C000
C000
C000
C000
C000
C000
C000
FF80
FF80
ENDCHAR
STARTCHAR 004D
ENCODING 77
SWIDTH 720 0
DWIDTH 18 0
BBX 14 17 2 0
BITMAP
E01C
E01C
F01C
F03C
D02C
D86C
D86C
C84C
CCCC
CCCC
C48C
C78C
C78C
C30C
C30C
C00C
C00C
ENDCHAR
STARTCHAR 004E
ENCODING 78
SWIDTH 640 0
DWIDTH 16 0
BBX 12 17 2 0
BITMAP
E030
E030
F030
F030
D830
D830
CC30
CE30
C630
C330
C330
C1B0
C1B0
C0F0
C0F0
C070
C070
ENDCHAR
STARTCHAR 004F
ENCODING 79
SWIDTH 680 0
DWIDTH 17 0
BBX 14 17 1 0
BITMAP
07C0
1FF0
3838
7018
601C
600C
E00C
C00C
C00C
E00C
E00C
600C
601C
7018
3838
1FF0
07C0
ENDCHAR
STARTCHAR 0050
ENCODING 80
SWIDTH 560 0
DWIDTH 14 0
BBX 11 17 2 0
BITMAP
FF00
FFC0
C0E0
C060
C060
C060
C060
C0C0
FFC0
FF00
C000
C000
C000
C000
C000
C000
C000
ENDCHAR
STARTCHAR 0051
ENCODING 81
SWIDTH 680 0
DWIDTH 17 0
BBX 15 21 1 -4
BITMAP
07C0
1FF0
3838
7018
601C
600C
E00C
C00C
C00C
E00C
E00C
600C
601C
7018
3838
1FF0
0FC0
0380
01C0
00FC
003E
ENDCHAR
STARTCHAR 0052
ENCODING 82
SWIDTH 560 0
DWIDTH 14 0
BBX 11 17 2 0
BITMAP
FF80
FFC0
C0E0
C060
C060
C060
C060
C0C0
FF80
FE00
C300
C380
C180
C1C0
C0C0
C0E0
C060
ENDCHAR
STARTCHAR 0053
ENCODING 83
SWIDTH 520 0
DWIDTH 13 0
BBX 11 17 1 0
BITMAP
0F80
3FC0
7040
6000
6000
6000
7800
3E00
0F80
03C0
00E0
0060
0060
4060
E0E0
7FC0
1F00
ENDCHAR
STARTCHAR 0054
ENCODING 84
SWIDTH 520 0
DWIDTH 13 0
BBX 12 17 1 0
BITMAP
FFF0
FFF0
0600
0600
0600
0600
0600
0600
0600
0600
0600
0600
0600
0600
0600
0600
0600
ENDCHAR
STARTCHAR 0055
ENCODING 85
SWIDTH 640 0
DWIDTH 16 0
BBX 12 17 2 0
BITMAP
C030
C030
C030
C030
C030
C030
C030
C030
C030
C030
C030
C030
E030
6060
70E0
3FC0
1F80
ENDCHAR
STARTCHAR 0056
ENCODING 86
SWIDTH 520 0
DWIDTH 13 0
BBX 13 17 0 0
BITMAP
C018
E030
6030
6030
7060
3060
3060
3060
18C0
18C0
18C0
0C80
0D80
0D80
0D00
0700
0700
ENDCHAR
STARTCHAR 0057
ENCODING 87
SWIDTH 800 0
DWIDTH 20 0
BBX 18 17 1 0
BITMAP
C0C0C0
C0C0C0
C1C0C0
C1E180
E16180
616180
632180
633180
633300
323300
361300
361B00
361B00
341A00
140E00
1C0E00
1C0E00
ENDCHAR
STARTCHAR 0058
ENCODING 88
SWIDTH 520 0
DWIDTH 13 0
BBX 11 17 1 0
BITMAP
C060
E0C0
60C0
3180
3180
1B00
1B00
0E00
0E00
1E00
1B00
3300
3180
61C0
60C0
C0E0
C060
ENDCHAR
STARTCHAR 0059
ENCODING 89
SWIDTH 480 0
DWIDTH 12 0
BBX 12 17 0 0
BITMAP
C030
6060
6060
30C0
30C0
1980
1980
1F00
0F00
0E00
0600
0600
0600
0600
0600
0600
0600
ENDCHAR
STARTCHAR 005A
ENCODING 90
SWIDTH 520 0
DWIDTH 13 0
BBX 11 17 1 0
BITMAP
7FE0
7FE0
00E0
00C0
0180
0380
0300
0600
0600
0C00
1C00
1800
3000
7000
6000
FFE0
FFE0
ENDCHAR
STARTCHAR 005B
ENCODING 91
SWIDTH 320 0
DWIDTH 8 0
BBX 5 22 2 -4
BITMAP
F8
C0
C0
C0
C0
C0
C0
C0
C0
C0
C0
C0
C0
C0
C0
C0
C0
C0
C0
C0
C0
F8
ENDCHAR
STARTCHAR 005C
ENCODING 92
SWIDTH 360 0
DWIDTH 9 0
BBX 8 22 0 -4
BITMAP
C0
40
60
60
20
20
30
10
10
18
18
08
0C
0C
04
06
06
02
02
03
01
01
ENDCHAR
STARTCHAR 005D
ENCODING 93
SWIDTH 320 0
DWIDTH 8 0
BBX 4 22 1 -4
BITMAP
F0
10
10
10
10
10
10
10
10
10
10
10
10
10
10
10
10
10
10
10
10
F0
ENDCHAR
STARTCHAR 005E
ENCODING 94
SWIDTH 480 0
DWIDTH 12 0
BBX 9 10 2 7
BITMAP
1800
1C00
3C00
3400
2600
6200
4300
C300
C100
8180
ENDCHAR
STARTCHAR 005F
ENCODING 95
SWIDTH 520 0
DWIDTH 13 0
BBX 12 1 0 -3
BITMAP
FFF0
ENDCHAR
STARTCHAR 0060
ENCODING 96
SWIDTH 560 0
DWIDTH 14 0
BBX 4 5 4 14
BITMAP
80
C0
60
30
10
ENDCHAR
STARTCHAR 0061
ENCODING 97
SWIDTH 520 0
DWIDTH 13 0
BBX 10 13 1 0
BITMAP
1F00
7F80
6180
00C0
00C0
07C0
3CC0
60C0
40C0
C0C0
E1C0
7FC0
3CC0
ENDCHAR
STARTCHAR 0062
ENCODING 98
SWIDTH 560 0
DWIDTH 14 0
BBX 11 18 2 0
BITMAP
C000
C000
C000
C000
C000
CF00
FF80
E1C0
C0C0
C0E0
C060
C060
C0E0
C0C0
C0C0
E1C0
FF80
DF00
ENDCHAR
STARTCHAR 0063
ENCODING 99
SWIDTH 440 0
DWIDTH 11 0
BBX 10 13 1 0
BITMAP
0F00
3FC0
7080
6000
E000
C000
C000
C000
E000
6000
7080
3FC0
1F00
ENDCHAR
STARTCHAR 0064
ENCODING 100
SWIDTH 560 0
DWIDTH 14 0
BBX 11 18 1 0
BITMAP
0060
0060
0060
0060
0060
1F60
3FE0
70E0
6060
E060
C060
C060
C060
E060
6060
70E0
3FE0
1E60
ENDCHAR
STARTCHAR 0065
ENCODING 101
SWIDTH 480 0
DWIDTH 12 0
BBX 10 13 1 0
BITMAP
1F00
3F80
70C0
60C0
C040
C040
FFC0
C000
C000
6000
7000
3FC0
0F00
ENDCHAR
STARTCHAR 0066
ENCODING 102
SWIDTH 280 0
DWIDTH 7 0
BBX 7 18 1 0
BITMAP
1E
3E
30
60
60
FC
FC
60
60
60
60
60
60
60
60
60
60
60
ENDCHAR
STARTCHAR 0067
ENCODING 103
SWIDTH 520 0
DWIDTH 13 0
BBX 11 18 1 -5
BITMAP
1FE0
3FE0
6180
60C0
60C0
60C0
6180
3B80
3E00
6000
6000
7F80
3FE0
6060
C060
C060
E0C0
7F80
ENDCHAR
STARTCHAR 0068
ENCODING 104
SWIDTH 560 0
DWIDTH 14 0
BBX 10 18 2 0
BITMAP
C000
C000
C000
C000
C000
CF00
DF80
E1C0
C0C0
C0C0
C0C0
C0C0
C0C0
C0C0
C0C0
C0C0
C0C0
C0C0
ENDCHAR
STARTCHAR 0069
ENCODING 105
SWIDTH 240 0
DWIDTH 6 0
BBX 3 18 2 0
BITMAP
C0
E0
40
00
00
C0
C0
C0
C0
C0
C0
C0
C0
C0
C0
C0
C0
C0
ENDCHAR
STARTCHAR 006A
ENCODING 106
SWIDTH 240 0
DWIDTH 6 0
BBX 6 23 -1 -5
BITMAP
18
1C
08
00
00
18
18
18
18
18
18
18
18
18
18
18
18
18
18
18
18
F8
F0
ENDCHAR
STARTCHAR 006B
ENCODING 107
SWIDTH 480 0
DWIDTH 12 0
BBX 10 18 2 0
BITMAP
C000
C000
C000
C000
C000
C180
C300
C700
C600
CC00
DC00
FC00
F600
E600
C300
C380
C180
C0C0
ENDCHAR
STARTCHAR 006C
ENCODING 108
SWIDTH 240 0
DWIDTH 6 0
BBX 3 18 2 0
BITMAP
C0
C0
C0
C0
C0
C0
C0
C0
C0
C0
C0
C0
C0
C0
C0
C0
E0
60
ENDCHAR
STARTCHAR 006D
ENCODING 109
SWIDTH 840 0
DWIDTH 21 0
BBX 17 13 2 0
BITMAP
CF1E00
DFBF00
E1E380
C1C180
C18180
C18180
C18180
C18180
C18180
C18180
C18180
C18180
C18180
ENDCHAR
STARTCHAR 006E
ENCODING 110
SWIDTH 560 0
DWIDTH 14 0
BBX 10 13 2 0
BITMAP
CF00
DF80
E1C0
C0C0
C0C0
C0C0
C0C0
C0C0
C0C0
C0C0
C0C0
C0C0
C0C0
ENDCHAR
STARTCHAR 006F
ENCODING 111
SWIDTH 560 0
DWIDTH 14 0
BBX 11 13 1 0
BITMAP
0F00
3FC0
70C0
6060
E060
C060
C060
C060
E060
6060
70C0
3F80
1F00
ENDCHAR
STARTCHAR 0070
ENCODING 112
SWIDTH 560 0
DWIDTH 14 0
BBX 11 18 2 -5
BITMAP
CF00
FF80
E1C0
C0C0
C0E0
C060
C060
C0E0
C0C0
C0C0
E1C0
FF80
DF00
C000
C000
C000
C000
C000
ENDCHAR
STARTCHAR 0071
ENCODING 113
SWIDTH 560 0
DWIDTH 14 0
BBX 11 18 1 -5
BITMAP
1F60
3FE0
70E0
6060
E060
C060
C060
C060
E060
6060
70E0
3FE0
1E60
0060
0060
0060
0060
0060
ENDCHAR
STARTCHAR 0072
ENCODING 114
SWIDTH 360 0
DWIDTH 9 0
BBX 7 13 2 0
BITMAP
CE
DC
F0
E0
C0
C0
C0
C0
C0
C0
C0
C0
C0
ENDCHAR
STARTCHAR 0073
ENCODING 115
SWIDTH 400 0
DWIDTH 10 0
BBX 9 13 1 0
BITMAP
3E00
7F00
E000
C000
E000
7800
3E00
0700
0380
0180
C300
FF00
3E00
ENDCHAR
STARTCHAR 0074
ENCODING 116
SWIDTH 320 0
DWIDTH 8 0
BBX 7 16 1 0
BITMAP
20
20
20
FE
FE
60
60
60
60
60
60
60
70
30
3E
1E
ENDCHAR
STARTCHAR 0075
ENCODING 117
SWIDTH 560 0
DWIDTH 14 0
BBX 10 13 2 0
BITMAP
C1C0
C1C0
C1C0
C1C0
C1C0
C1C0
C1C0
C1C0
C1C0
C1C0
E3C0
7EC0
3CC0
ENDCHAR
STARTCHAR 0076
ENCODING 118
SWIDTH 480 0
DWIDTH 12 0
BBX 11 13 0 0
BITMAP
E060
6060
6060
70C0
30C0
30C0
3180
1980
1980
1B00
0F00
0F00
0E00
ENDCHAR
STARTCHAR 0077
ENCODING 119
SWIDTH 720 0
DWIDTH 18 0
BBX 16 13 1 0
BITMAP
C183
C183
C3C3
E3C2
6246
6246
6666
2664
346C
342C
343C
1C38
1838
ENDCHAR
STARTCHAR 0078
ENCODING 120
SWIDTH 440 0
DWIDTH 11 0
BBX 10 13 1 0
BITMAP
C180
6180
6300
3300
3600
1C00
1C00
1C00
3600
6300
6300
C180
C1C0
ENDCHAR
STARTCHAR 0079
ENCODING 121
SWIDTH 480 0
DWIDTH 12 0
BBX 11 18 0 -5
BITMAP
E060
6060
6060
30C0
30C0
30C0
1980
1980
0980
0D00
0F00
0700
0600
0600
0600
0C00
7800
7000
ENDCHAR
STARTCHAR 007A
ENCODING 122
SWIDTH 440 0
DWIDTH 11 0
BBX 9 13 1 0
BITMAP
FF80
FF80
0300
0600
0E00
0C00
1800
1800
3000
7000
6000
FF80
FF80
ENDCHAR
STARTCHAR 007B
ENCODING 123
SWIDTH 320 0
DWIDTH 8 0
BBX 6 22 1 -4
BITMAP
1C
30
30
20
20
30
30
30
30
30
60
C0
60
30
30
30
30
20
20
30
30
1C
ENDCHAR
STARTCHAR 007C
ENCODING 124
SWIDTH 240 0
DWIDTH 6 0
BBX 2 25 2 -6
BITMAP
C0
C0
C0
C0
C0
C0
C0
C0
C0
C0
C0
C0
C0
C0
C0
C0
C0
C0
C0
C0
C0
C0
C0
C0
C0
ENDCHAR
STARTCHAR 007D
ENCODING 125
SWIDTH 320 0
DWIDTH 8 0
BBX 6 22 1 -4
BITMAP
E0
70
30
30
30
30
30
30
30
30
38
1C
30
30
30
30
30
30
30
30
30
E0
ENDCHAR
STARTCHAR 007E
ENCODING 126
SWIDTH 480 0
DWIDTH 12 0
BBX 10 4 1 7
BITMAP
7840
CEC0
07C0
0100
ENDCHAR
STARTCHAR 00A0
ENCODING 160
SWIDTH 200 0
DWIDTH 5 0
BBX 0 0 0 0
BITMAP
ENDCHAR
STARTCHAR 00A1
ENCODING 161
SWIDTH 280 0
DWIDTH 7 0
BBX 3 17 2 -4
BITMAP
60
E0
E0
00
00
40
40
40
40
40
40
60
60
60
60
60
60
ENDCHAR
STARTCHAR 00A2
ENCODING 162
SWIDTH 480 0
DWIDTH 12 0
BBX 9 17 2 -1
BITMAP
0400
0400
0E00
3F80
7580
C400
C400
C400
C400
C400
C400
E480
7F80
1F00
0400
0400
0400
ENDCHAR
STARTCHAR 00A3
ENCODING 163
SWIDTH 480 0
DWIDTH 12 0
BBX 10 16 1 0
BITMAP
0F80
1FC0
3840
3000
3000
3000
3000
3000
FF00
1800
1800
1800
1000
3000
7FC0
FFC0
ENDCHAR
STARTCHAR 00A4
ENCODING 164
SWIDTH 480 0
DWIDTH 12 0
BBX 11 11 1 3
BITMAP
8040
DEE0
7FC0
61C0
40C0
C0C0
C0C0
60C0
7180
FFC0
C040
ENDCHAR
STARTCHAR 00A5
ENCODING 165
SWIDTH 480 0
DWIDTH 12 0
BBX 11 16 1 0
BITMAP
C060
C0C0
60C0
6180
3180
3300
1A00
1E00
FFC0
0C00
0C00
FFC0
0C00
0C00
0C00
0C00
ENDCHAR
STARTCHAR 00A6
ENCODING 166
SWIDTH 240 0
DWIDTH 6 0
BBX 2 25 2 -6
BITMAP
C0
C0
C0
C0
C0
C0
C0
C0
C0
C0
C0
00
00
C0
C0
C0
C0
C0
C0
C0
C0
C0
C0
C0
C0
ENDCHAR
STARTCHAR 00A7
ENCODING 167
SWIDTH 480 0
DWIDTH 12 0
BBX 10 19 1 -2
BITMAP
1F00
3F80
3000
6000
3000
3C00
6F00
C380
C0C0
C0C0
60C0
3CC0
1F80
0300
0180
0180
6380
7F00
0C00
ENDCHAR
STARTCHAR 00A8
ENCODING 168
SWIDTH 560 0
DWIDTH 14 0
BBX 7 2 3 15
BITMAP
C6
E6
ENDCHAR
STARTCHAR 00A9
ENCODING 169
SWIDTH 760 0
DWIDTH 19 0
BBX 16 17 1 0
BITMAP
03E0
0C18
100C
2006
61E2
4771
CC01
8C01
8C01
8C01
CC01
4631
43E3
2002
300C
0C18
03E0
ENDCHAR
STARTCHAR 00AA
ENCODING 170
SWIDTH 360 0
DWIDTH 9 0
BBX 6 8 1 10
BITMAP
78
CC
04
3C
64
84
CC
F4
ENDCHAR
STARTCHAR 00AB
ENCODING 171
SWIDTH 440 0
DWIDTH 11 0
BBX 8 9 1 2
BITMAP
11
33
66
CC
CC
CC
66
33
11
ENDCHAR
STARTCHAR 00AC
ENCODING 172
SWIDTH 480 0
DWIDTH 12 0
BBX 11 6 1 3
BITMAP
FFE0
FFE0
0060
0060
0060
0060
ENDCHAR
STARTCHAR 00AD
ENCODING 173
SWIDTH 320 0
DWIDTH 8 0
BBX 6 2 1 5
BITMAP
FC
FC
ENDCHAR
STARTCHAR 00AE
ENCODING 174
SWIDTH 440 0
DWIDTH 11 0
BBX 9 10 1 8
BITMAP
3C00
4300
BD00
A480
A480
B880
A480
A700
4300
3C00
ENDCHAR
STARTCHAR 00AF
ENCODING 175
SWIDTH 560 0
DWIDTH 14 0
BBX 7 1 3 16
BITMAP
FE
ENDCHAR
STARTCHAR 00B0
ENCODING 176
SWIDTH 320 0
DWIDTH 8 0
BBX 6 6 1 11
BITMAP
78
CC
84
84
CC
78
ENDCHAR
STARTCHAR 00B1
ENCODING 177
SWIDTH 480 0
DWIDTH 12 0
BBX 11 14 1 0
BITMAP
0C00
0C00
0C00
0C00
0C00
FFE0
FFE0
0C00
0C00
0C00
0C00
0000
FFE0
FFE0
ENDCHAR
STARTCHAR 00B2
ENCODING 178
SWIDTH 360 0
DWIDTH 9 0
BBX 7 10 1 10
BITMAP
38
EC
04
04
04
0C
18
30
60
FE
ENDCHAR
STARTCHAR 00B3
ENCODING 179
SWIDTH 360 0
DWIDTH 9 0
BBX 7 10 1 10
BITMAP
38
EC
06
04
0C
38
06
06
C6
7C
ENDCHAR
STARTCHAR 00B4
ENCODING 180
SWIDTH 560 0
DWIDTH 14 0
BBX 4 5 6 14
BITMAP
30
70
60
C0
80
ENDCHAR
STARTCHAR 00B5
ENCODING 181
SWIDTH 560 0
DWIDTH 14 0
BBX 11 16 2 -4
BITMAP
C0C0
C0C0
C0C0
C0C0
C0C0
C0C0
C0C0
C0C0
C1C0
E3C0
FEE0
DCE0
C000
C000
C000
C000
ENDCHAR
STARTCHAR 00B6
ENCODING 182
SWIDTH 560 0
DWIDTH 14 0
BBX 11 18 1 -1
BITMAP
1EE0
7EE0
7EE0
FEE0
FEE0
FEE0
FEE0
FEE0
7EE0
3EE0
0EE0
00E0
00E0
00E0
00E0
00E0
00E0
00E0
ENDCHAR
STARTCHAR 00B7
ENCODING 183
SWIDTH 240 0
DWIDTH 6 0
BBX 3 3 2 7
BITMAP
C0
E0
C0
ENDCHAR
STARTCHAR 00B8
ENCODING 184
SWIDTH 560 0
DWIDTH 14 0
BBX 4 6 5 -6
BITMAP
60
40
E0
30
30
C0
ENDCHAR
STARTCHAR 00B9
ENCODING 185
SWIDTH 360 0
DWIDTH 9 0
BBX 4 10 2 10
BITMAP
30
F0
30
30
30
30
30
30
30
30
ENDCHAR
STARTCHAR 00BA
ENCODING 186
SWIDTH 360 0
DWIDTH 9 0
BBX 7 8 1 10
BITMAP
38
6E
C6
82
82
C2
C6
7C
ENDCHAR
STARTCHAR 00BB
ENCODING 187
SWIDTH 440 0
DWIDTH 11 0
BBX 9 9 1 2
BITMAP
4400
6600
2200
3300
1980
1980
3300
6600
CC00
ENDCHAR
STARTCHAR 00BC
ENCODING 188
SWIDTH 800 0
DWIDTH 20 0
BBX 17 17 2 0
BITMAP
601800
E01000
202000
202000
204000
20C000
208000
218600
210E00
230A00
021A00
061200
042200
0C7F80
080200
180200
100200
ENDCHAR
STARTCHAR 00BD
ENCODING 189
SWIDTH 800 0
DWIDTH 20 0
BBX 17 17 2 0
BITMAP
601000
E03000
202000
204000
204000
208000
218000
211F00
233300
220180
060100
040100
0C0300
080600
180C00
101800
303F80
ENDCHAR
STARTCHAR 00BE
ENCODING 190
SWIDTH 800 0
DWIDTH 20 0
BBX 18 17 1 0
BITMAP
380600
EC0400
060C00
040800
0C1000
381000
062000
066180
C64380
7CC780
008580
018980
011980
031FC0
020180
060180
040180
ENDCHAR
STARTCHAR 00BF
ENCODING 191
SWIDTH 440 0
DWIDTH 11 0
BBX 8 18 1 -5
BITMAP
0C
1C
1C
00
00
0C
0C
0C
18
38
30
60
C0
C0
C0
E1
7F
3E
ENDCHAR
STARTCHAR 00C0
ENCODING 192
SWIDTH 560 0
DWIDTH 14 0
BBX 13 22 0 0
BITMAP
0800
0E00
0700
0100
0000
0700
0700
0580
0D80
0C80
0CC0
18C0
18C0
1860
1060
3FE0
3FF0
3030
6030
6018
6018
C018
ENDCHAR
STARTCHAR 00C1
ENCODING 193
SWIDTH 560 0
DWIDTH 14 0
BBX 13 22 0 0
BITMAP
00C0
01C0
0300
0200
0000
0700
0700
0580
0D80
0C80
0CC0
18C0
18C0
1860
1060
3FE0
3FF0
3030
6030
6018
6018
C018
ENDCHAR
STARTCHAR 00C2
ENCODING 194
SWIDTH 560 0
DWIDTH 14 0
BBX 13 21 0 0
BITMAP
0700
0D80
1840
0000
0700
0700
0580
0D80
0C80
0CC0
18C0
18C0
1860
1060
3FE0
3FF0
3030
6030
6018
6018
C018
ENDCHAR
STARTCHAR 00C3
ENCODING 195
SWIDTH 560 0
DWIDTH 14 0
BBX 13 21 0 1
BITMAP
1E20
13E0
31C0
0000
0700
0700
0580
0D80
0C80
0CC0
18C0
18C0
1860
1060
3FE0
3FF0
3030
6030
6018
6018
C018
ENDCHAR
STARTCHAR 00C4
ENCODING 196
SWIDTH 560 0
DWIDTH 14 0
BBX 13 21 0 0
BITMAP
18C0
18E0
0000
0000
0700
0700
0580
0D80
0C80
0CC0
18C0
18C0
1860
1060
3FE0
3FF0
3030
6030
6018
6018
C018
ENDCHAR
STARTCHAR 00C5
ENCODING 197
SWIDTH 560 0
DWIDTH 14 0
BBX 13 23 0 0
BITMAP
0700
0480
0880
0C80
0700
0000
0700
0700
0580
0D80
0C80
0CC0
18C0
18C0
1860
1060
3FE0
3FF0
3030
6030
6018
6018
C018
ENDCHAR
STARTCHAR 00C6
ENCODING 198
SWIDTH 840 0
DWIDTH 21 0
BBX 19 17 0 0
BITMAP
007FE0
00FFE0
00F000
01B000
01B000
033000
033000
063FC0
0E3FC0
0C3000
1FF000
1FF000
383000
303000
703000
603FE0
E03FE0
ENDCHAR
STARTCHAR 00C7
ENCODING 199
SWIDTH 560 0
DWIDTH 14 0
BBX 12 22 1 -5
BITMAP
07C0
1FF0
3830
3000
6000
6000
E000
E000
C000
E000
E000
6000
6000
7000
3830
1FF0
07C0
0100
0380
00C0
0080
0700
ENDCHAR
STARTCHAR 00C8
ENCODING 200
SWIDTH 520 0
DWIDTH 13 0
BBX 10 22 2 0
BITMAP
3000
3800
0C00
0400
0000
FFC0
FFC0
C000
C000
C000
C000
C000
FF80
FF80
C000
C000
C000
C000
C000
C000
FFC0
FFC0
ENDCHAR
STARTCHAR 00C9
ENCODING 201
SWIDTH 520 0
DWIDTH 13 0
BBX 10 22 2 0
BITMAP
0300
0700
0E00
0800
0000
FFC0
FFC0
C000
C000
C000
C000
C000
FF80
FF80
C000
C000
C000
C000
C000
C000
FFC0
FFC0
ENDCHAR
STARTCHAR 00CA
ENCODING 202
SWIDTH 520 0
DWIDTH 13 0
BBX 10 21 2 0
BITMAP
1E00
3300
6180
0000
FFC0
FFC0
C000
C000
C000
C000
C000
FF80
FF80
C000
C000
C000
C000
C000
C000
FFC0
FFC0
ENDCHAR
STARTCHAR 00CB
ENCODING 203
SWIDTH 520 0
DWIDTH 13 0
BBX 10 21 2 0
BITMAP
3180
7380
0000
0000
FFC0
FFC0
C000
C000
C000
C000
C000
FF80
FF80
C000
C000
C000
C000
C000
C000
FFC0
FFC0
ENDCHAR
STARTCHAR 00CC
ENCODING 204
SWIDTH 280 0
DWIDTH 7 0
BBX 4 22 0 0
BITMAP
C0
E0
30
10
00
30
30
30
30
30
30
30
30
30
30
30
30
30
30
30
30
30
ENDCHAR
STARTCHAR 00CD
ENCODING 205
SWIDTH 280 0
DWIDTH 7 0
BBX 4 22 2 0
BITMAP
10
30
E0
80
00
C0
C0
C0
C0
C0
C0
C0
C0
C0
C0
C0
C0
C0
C0
C0
C0
C0
ENDCHAR
STARTCHAR 00CE
ENCODING 206
SWIDTH 280 0
DWIDTH 7 0
BBX 7 21 0 0
BITMAP
38
6C
86
00
30
30
30
30
30
30
30
30
30
30
30
30
30
30
30
30
30
ENDCHAR
STARTCHAR 00CF
ENCODING 207
SWIDTH 280 0
DWIDTH 7 0
BBX 8 21 -1 0
BITMAP
63
E3
00
00
18
18
18
18
18
18
18
18
18
18
18
18
18
18
18
18
18
ENDCHAR
STARTCHAR 00D0
ENCODING 208
SWIDTH 640 0
DWIDTH 16 0
BBX 14 17 1 0
BITMAP
3F80
3FE0
3070
3038
3018
3018
301C
301C
FF1C
301C
301C
3018
3018
3038
3070
3FE0
3F80
ENDCHAR
STARTCHAR 00D1
ENCODING 209
SWIDTH 640 0
DWIDTH 16 0
BBX 12 21 2 1
BITMAP
3C60
27C0
2180
0000
E030
E030
F030
F030
D830
D830
CC30
CE30
C630
C330
C330
C1B0
C1B0
C0F0
C0F0
C070
C070
ENDCHAR
STARTCHAR 00D2
ENCODING 210
SWIDTH 680 0
DWIDTH 17 0
BBX 14 22 1 0
BITMAP
0400
0E00
0700
0100
0000
07C0
1FF0
3838
7018
601C
600C
E00C
C00C
C00C
E00C
E00C
600C
601C
7018
3838
1FF0
07C0
ENDCHAR
STARTCHAR 00D3
ENCODING 211
SWIDTH 680 0
DWIDTH 17 0
BBX 14 22 1 0
BITMAP
0040
00E0
0180
0300
0000
07C0
1FF0
3838
7018
601C
600C
E00C
C00C
C00C
E00C
E00C
600C
601C
7018
3838
1FF0
07C0
ENDCHAR
STARTCHAR 00D4
ENCODING 212
SWIDTH 680 0
DWIDTH 17 0
BBX 14 21 1 0
BITMAP
0380
06C0
0860
0000
07C0
1FF0
3838
7018
601C
600C
E00C
C00C
C00C
E00C
E00C
600C
601C
7018
3838
1FF0
07C0
ENDCHAR
STARTCHAR 00D5
ENCODING 213
SWIDTH 680 0
DWIDTH 17 0
BBX 14 21 1 1
BITMAP
0F30
19E0
10E0
0000
07C0
1FF0
3838
7018
601C
600C
E00C
C00C
C00C
E00C
E00C
600C
601C
7018
3838
1FF0
07C0
ENDCHAR
STARTCHAR 00D6
ENCODING 214
SWIDTH 680 0
DWIDTH 17 0
BBX 14 20 1 0
BITMAP
0C60
0C60
0000
07C0
1FF0
3838
7018
601C
600C
E00C
C00C
C00C
E00C
E00C
600C
601C
7018
3838
1FF0
07C0
ENDCHAR
STARTCHAR 00D7
ENCODING 215
SWIDTH 480 0
DWIDTH 12 0
BBX 9 10 2 3
BITMAP
8180
C380
6700
3600
1C00
1C00
3600
6300
C180
8080
ENDCHAR
STARTCHAR 00D8
ENCODING 216
SWIDTH 680 0
DWIDTH 17 0
BBX 14 17 1 0
BITMAP
07C4
1FFC
3838
3038
603C
606C
60CC
E18C
E30C
E30C
660C
6C0C
781C
3018
3838
7FF0
C7C0
ENDCHAR
STARTCHAR 00D9
ENCODING 217
SWIDTH 640 0
DWIDTH 16 0
BBX 12 22 2 0
BITMAP
1800
1C00
0600
0200
0000
C030
C030
C030
C030
C030
C030
C030
C030
C030
C030
C030
C030
E030
6060
70E0
3FC0
1F80
ENDCHAR
STARTCHAR 00DA
ENCODING 218
SWIDTH 640 0
DWIDTH 16 0
BBX 12 22 2 0
BITMAP
0180
0380
0700
0400
0000
C030
C030
C030
C030
C030
C030
C030
C030
C030
C030
C030
C030
E030
6060
70E0
3FC0
1F80
ENDCHAR
STARTCHAR 00DB
ENCODING 219
SWIDTH 640 0
DWIDTH 16 0
BBX 12 21 2 0
BITMAP
0F00
1980
30C0
0000
C030
C030
C030
C030
C030
C030
C030
C030
C030
C030
C030
C030
E030
6060
70E0
3FC0
1F80
ENDCHAR
STARTCHAR 00DC
ENCODING 220
SWIDTH 640 0
DWIDTH 16 0
BBX 12 21 2 0
BITMAP
18C0
39C0
0000
0000
C030
C030
C030
C030
C030
C030
C030
C030
C030
C030
C030
C030
E030
6060
70E0
3FC0
1F80
ENDCHAR
STARTCHAR 00DD
ENCODING 221
SWIDTH 480 0
DWIDTH 12 0
BBX 12 22 0 0
BITMAP
0180
0380
0600
0400
0000
C030
6060
6060
30C0
30C0
1980
1980
1F00
0F00
0E00
0600
0600
0600
0600
0600
0600
0600
ENDCHAR
STARTCHAR 00DE
ENCODING 222
SWIDTH 600 0
DWIDTH 15 0
BBX 11 17 2 0
BITMAP
C000
C000
C000
FF80
FFC0
C0E0
C060
C060
C060
C060
C0E0
FFC0
FF00
C000
C000
C000
C000
ENDCHAR
STARTCHAR 00DF
ENCODING 223
SWIDTH 560 0
DWIDTH 14 0
BBX 12 18 2 0
BITMAP
1E00
7F00
6180
C180
C180
C100
C300
C600
C600
C600
C780
C1C0
C0E0
C070
C030
C060
CFE0
C7C0
ENDCHAR
STARTCHAR 00E0
ENCODING 224
SWIDTH 520 0
DWIDTH 13 0
BBX 10 20 1 0
BITMAP
1000
3800
1C00
0C00
0600
0000
0000
1F00
7F80
6180
00C0
00C0
07C0
3CC0
60C0
40C0
C0C0
E1C0
7FC0
3CC0
ENDCHAR
STARTCHAR 00E1
ENCODING 225
SWIDTH 520 0
DWIDTH 13 0
BBX 10 20 1 0
BITMAP
0100
0380
0300
0600
0400
0000
0000
1F00
7F80
6180
00C0
00C0
07C0
3CC0
60C0
40C0
C0C0
E1C0
7FC0
3CC0
ENDCHAR
STARTCHAR 00E2
ENCODING 226
SWIDTH 520 0
DWIDTH 13 0
BBX 10 19 1 0
BITMAP
0E00
1F00
3180
2080
0000
0000
1F00
7F80
6180
00C0
00C0
07C0
3CC0
60C0
40C0
C0C0
E1C0
7FC0
3CC0
ENDCHAR
STARTCHAR 00E3
ENCODING 227
SWIDTH 520 0
DWIDTH 13 0
BBX 10 18 1 0
BITMAP
38C0
3CC0
6780
0000
0000
1F00
7F80
6180
00C0
00C0
07C0
3CC0
60C0
40C0
C0C0
E1C0
7FC0
3CC0
ENDCHAR
STARTCHAR 00E4
ENCODING 228
SWIDTH 520 0
DWIDTH 13 0
BBX 10 17 1 0
BITMAP
3180
3180
0000
0000
1F00
7F80
6180
00C0
00C0
07C0
3CC0
60C0
40C0
C0C0
E1C0
7FC0
3CC0
ENDCHAR
STARTCHAR 00E5
ENCODING 229
SWIDTH 520 0
DWIDTH 13 0
BBX 10 19 1 0
BITMAP
0E00
1100
1100
1900
0E00
0000
1F00
7F80
6180
00C0
00C0
07C0
3CC0
60C0
40C0
C0C0
E1C0
7FC0
3CC0
ENDCHAR
STARTCHAR 00E6
ENCODING 230
SWIDTH 800 0
DWIDTH 20 0
BBX 18 13 1 0
BITMAP
1F1E00
7FBF00
61E180
00C080
00C0C0
0FC0C0
3CFFC0
70C000
60C000
C0C000
61E080
7F3F80
3C1F00
ENDCHAR
STARTCHAR 00E7
ENCODING 231
SWIDTH 440 0
DWIDTH 11 0
BBX 10 18 1 -5
BITMAP
0F00
3FC0
7080
6000
E000
C000
C000
C000
E000
6000
7080
3FC0
1F00
0400
0E00
0300
0300
0C00
ENDCHAR
STARTCHAR 00E8
ENCODING 232
SWIDTH 480 0
DWIDTH 12 0
BBX 10 20 1 0
BITMAP
1000
3800
1C00
0C00
0600
0000
0000
1F00
3F80
70C0
60C0
C040
C040
FFC0
C000
C000
6000
7000
3FC0
0F00
ENDCHAR
STARTCHAR 00E9
ENCODING 233
SWIDTH 480 0
DWIDTH 12 0
BBX 10 20 1 0
BITMAP
0100
0380
0300
0600
0400
0000
0000
1F00
3F80
70C0
60C0
C040
C040
FFC0
C000
C000
6000
7000
3FC0
0F00
ENDCHAR
STARTCHAR 00EA
ENCODING 234
SWIDTH 480 0
DWIDTH 12 0
BBX 10 19 1 0
BITMAP
0E00
1F00
1180
2080
0000
0000
1F00
3F80
70C0
60C0
C040
C040
FFC0
C000
C000
6000
7000
3FC0
0F00
ENDCHAR
STARTCHAR 00EB
ENCODING 235
SWIDTH 480 0
DWIDTH 12 0
BBX 10 17 1 0
BITMAP
3180
3180
0000
0000
1F00
3F80
70C0
60C0
C040
C040
FFC0
C000
C000
6000
7000
3FC0
0F00
ENDCHAR
STARTCHAR 00EC
ENCODING 236
SWIDTH 240 0
DWIDTH 6 0
BBX 4 20 0 0
BITMAP
C0
E0
60
30
10
00
00
30
30
30
30
30
30
30
30
30
30
30
30
30
ENDCHAR
STARTCHAR 00ED
ENCODING 237
SWIDTH 240 0
DWIDTH 6 0
BBX 4 20 2 0
BITMAP
30
30
60
C0
80
00
00
C0
C0
C0
C0
C0
C0
C0
C0
C0
C0
C0
C0
C0
ENDCHAR
STARTCHAR 00EE
ENCODING 238
SWIDTH 240 0
DWIDTH 6 0
BBX 6 19 0 0
BITMAP
78
EC
84
00
00
00
30
30
30
30
30
30
30
30
30
30
30
30
30
ENDCHAR
STARTCHAR 00EF
ENCODING 239
SWIDTH 240 0
DWIDTH 6 0
BBX 8 18 -1 0
BITMAP
62
E7
00
00
00
18
18
18
18
18
18
18
18
18
18
18
18
18
ENDCHAR
STARTCHAR 00F0
ENCODING 240
SWIDTH 560 0
DWIDTH 14 0
BBX 11 18 1 0
BITMAP
1860
0DC0
0700
1F80
3180
00C0
04C0
3F60
70E0
6060
6060
C060
C060
C060
6060
70C0
3F80
1F00
ENDCHAR
STARTCHAR 00F1
ENCODING 241
SWIDTH 560 0
DWIDTH 14 0
BBX 10 18 2 0
BITMAP
38C0
7C80
4780
0000
0000
CF00
DF80
E1C0
C0C0
C0C0
C0C0
C0C0
C0C0
C0C0
C0C0
C0C0
C0C0
C0C0
ENDCHAR
STARTCHAR 00F2
ENCODING 242
SWIDTH 560 0
DWIDTH 14 0
BBX 11 20 1 0
BITMAP
1000
3800
1C00
0E00
0600
0000
0000
0F00
3FC0
70C0
6060
E060
C060
C060
C060
E060
6060
70C0
3F80
1F00
ENDCHAR
STARTCHAR 00F3
ENCODING 243
SWIDTH 560 0
DWIDTH 14 0
BBX 11 20 1 0
BITMAP
0100
0180
0300
0600
0400
0000
0000
0F00
3FC0
70C0
6060
E060
C060
C060
C060
E060
6060
70C0
3F80
1F00
ENDCHAR
STARTCHAR 00F4
ENCODING 244
SWIDTH 560 0
DWIDTH 14 0
BBX 11 19 1 0
BITMAP
0E00
0F00
1980
30C0
0000
0000
0F00
3FC0
70C0
6060
E060
C060
C060
C060
E060
6060
70C0
3F80
1F00
ENDCHAR
STARTCHAR 00F5
ENCODING 245
SWIDTH 560 0
DWIDTH 14 0
BBX 11 18 1 0
BITMAP
1C40
3EC0
2380
0000
0000
0F00
3FC0
70C0
6060
E060
C060
C060
C060
E060
6060
70C0
3F80
1F00
ENDCHAR
STARTCHAR 00F6
ENCODING 246
SWIDTH 560 0
DWIDTH 14 0
BBX 11 17 1 0
BITMAP
3980
3180
0000
0000
0F00
3FC0
70C0
6060
E060
C060
C060
C060
E060
6060
70C0
3F80
1F00
ENDCHAR
STARTCHAR 00F7
ENCODING 247
SWIDTH 480 0
DWIDTH 12 0
BBX 11 12 1 2
BITMAP
0C00
0E00
0400
0000
0000
FFE0
FFE0
0000
0000
0C00
0E00
0400
ENDCHAR
STARTCHAR 00F8
ENCODING 248
SWIDTH 560 0
DWIDTH 14 0
BBX 11 13 1 0
BITMAP
0F20
3FE0
70C0
61E0
C160
C260
C660
CC60
D860
7060
70C0
7F80
DF00
ENDCHAR
STARTCHAR 00F9
ENCODING 249
SWIDTH 560 0
DWIDTH 14 0
BBX 10 20 2 0
BITMAP
2000
3000
1800
0C00
0000
0000
0000
C1C0
C1C0
C1C0
C1C0
C1C0
C1C0
C1C0
C1C0
C1C0
C1C0
E3C0
7EC0
3CC0
ENDCHAR
STARTCHAR 00FA
ENCODING 250
SWIDTH 560 0
DWIDTH 14 0
BBX 10 20 2 0
BITMAP
0300
0700
0E00
0C00
0800
0000
0000
C1C0
C1C0
C1C0
C1C0
C1C0
C1C0
C1C0
C1C0
C1C0
C1C0
E3C0
7EC0
3CC0
ENDCHAR
STARTCHAR 00FB
ENCODING 251
SWIDTH 560 0
DWIDTH 14 0
BBX 10 19 2 0
BITMAP
1E00
3600
6300
4100
0000
0000
C1C0
C1C0
C1C0
C1C0
C1C0
C1C0
C1C0
C1C0
C1C0
C1C0
E3C0
7EC0
3CC0
ENDCHAR
STARTCHAR 00FC
ENCODING 252
SWIDTH 560 0
DWIDTH 14 0
BBX 10 18 2 0
BITMAP
6300
7300
0000
0000
0000
C1C0
C1C0
C1C0
C1C0
C1C0
C1C0
C1C0
C1C0
C1C0
C1C0
E3C0
7EC0
3CC0
ENDCHAR
STARTCHAR 00FD
ENCODING 253
SWIDTH 480 0
DWIDTH 12 0
BBX 11 25 0 -5
BITMAP
0180
0180
0300
0600
0400
0000
0000
E060
6060
6060
30C0
30C0
30C0
1980
1980
0980
0D00
0F00
0700
0600
0600
0600
0C00
7800
7000
ENDCHAR
STARTCHAR 00FE
ENCODING 254
SWIDTH 560 0
DWIDTH 14 0
BBX 11 23 2 -5
BITMAP
C000
C000
C000
C000
C000
CF00
FF80
E1C0
C0C0
C0E0
C060
C060
C0E0
C0C0
C0C0
E1C0
FF80
DF00
C000
C000
C000
C000
C000
ENDCHAR
STARTCHAR 00FF
ENCODING 255
SWIDTH 480 0
DWIDTH 12 0
BBX 11 23 0 -5
BITMAP
1880
39C0
0000
0000
0000
E060
6060
6060
30C0
30C0
30C0
1980
1980
0980
0D00
0F00
0700
0600
0600
0600
0C00
7800
7000
ENDCHAR
STARTCHAR 0100
ENCODING 256
SWIDTH 560 0
DWIDTH 14 0
BBX 13 20 0 0
BITMAP
1FC0
0000
0000
0700
0700
0580
0D80
0C80
0CC0
18C0
18C0
1860
1060
3FE0
3FF0
3030
6030
6018
6018
C018
ENDCHAR
STARTCHAR 0101
ENCODING 257
SWIDTH 520 0
DWIDTH 13 0
BBX 10 17 1 0
BITMAP
3F80
0000
0000
0000
1F00
7F80
6180
00C0
00C0
07C0
3CC0
60C0
40C0
C0C0
E1C0
7FC0
3CC0
ENDCHAR
STARTCHAR 0102
ENCODING 258
SWIDTH 560 0
DWIDTH 14 0
BBX 13 21 0 0
BITMAP
1840
0CC0
0780
0000
0700
0700
0580
0D80
0C80
0CC0
18C0
18C0
1860
1060
3FE0
3FF0
3030
6030
6018
6018
C018
ENDCHAR
STARTCHAR 0103
ENCODING 259
SWIDTH 520 0
DWIDTH 13 0
BBX 10 18 1 0
BITMAP
2080
3180
1F00
0000
0000
1F00
7F80
6180
00C0
00C0
07C0
3CC0
60C0
40C0
C0C0
E1C0
7FC0
3CC0
ENDCHAR
STARTCHAR 0104
ENCODING 260
SWIDTH 560 0
DWIDTH 14 0
BBX 14 22 0 -5
BITMAP
0700
0700
0580
0D80
0C80
0CC0
18C0
18C0
1860
1060
3FE0
3FF0
3030
6030
6018
6018
C018
0018
0030
0030
003C
001C
ENDCHAR
STARTCHAR 0105
ENCODING 261
SWIDTH 520 0
DWIDTH 13 0
BBX 10 18 1 -5
BITMAP
1F00
7F80
6180
00C0
00C0
07C0
3CC0
60C0
40C0
C0C0
E1C0
7FC0
3CC0
0180
0300
0300
0340
01C0
ENDCHAR
STARTCHAR 0106
ENCODING 262
SWIDTH 560 0
DWIDTH 14 0
BBX 12 22 1 0
BITMAP
0040
00E0
0180
0300
0000
07C0
1FF0
3830
3000
6000
6000
E000
E000
C000
E000
E000
6000
6000
7000
3830
1FF0
07C0
ENDCHAR
STARTCHAR 0107
ENCODING 263
SWIDTH 440 0
DWIDTH 11 0
BBX 10 20 1 0
BITMAP
0080
0180
0300
0600
0400
0000
0000
0F00
3FC0
7080
6000
E000
C000
C000
C000
E000
6000
7080
3FC0
1F00
ENDCHAR
STARTCHAR 0108
ENCODING 264
SWIDTH 560 0
DWIDTH 14 0
BBX 12 21 1 0
BITMAP
0380
06C0
0860
0000
07C0
1FF0
3830
3000
6000
6000
E000
E000
C000
E000
E000
6000
6000
7000
3830
1FF0
07C0
ENDCHAR
STARTCHAR 0109
ENCODING 265
SWIDTH 440 0
DWIDTH 11 0
BBX 10 19 1 0
BITMAP
0600
0F00
1980
30C0
0000
0000
0F00
3FC0
7080
6000
E000
C000
C000
C000
E000
6000
7080
3FC0
1F00
ENDCHAR
STARTCHAR 010A
ENCODING 266
SWIDTH 560 0
DWIDTH 14 0
BBX 12 21 1 0
BITMAP
0100
0380
0300
0000
07C0
1FF0
3830
3000
6000
6000
E000
E000
C000
E000
E000
6000
6000
7000
3830
1FF0
07C0
ENDCHAR
STARTCHAR 010B
ENCODING 267
SWIDTH 440 0
DWIDTH 11 0
BBX 10 18 1 0
BITMAP
0600
0600
0400
0000
0000
0F00
3FC0
7080
6000
E000
C000
C000
C000
E000
6000
7080
3FC0
1F00
ENDCHAR
STARTCHAR 010C
ENCODING 268
SWIDTH 560 0
DWIDTH 14 0
BBX 12 21 1 0
BITMAP
0C60
06C0
0380
0000
07C0
1FF0
3830
3000
6000
6000
E000
E000
C000
E000
E000
6000
6000
7000
3830
1FF0
07C0
ENDCHAR
STARTCHAR 010D
ENCODING 269
SWIDTH 440 0
DWIDTH 11 0
BBX 10 18 1 1
BITMAP
3080
1980
0F00
0000
0000
0F00
3FC0
7080
6000
E000
C000
C000
C000
E000
6000
7080
3FC0
1F00
ENDCHAR
STARTCHAR 010E
ENCODING 270
SWIDTH 600 0
DWIDTH 15 0
BBX 12 21 2 0
BITMAP
3180
1B00
0E00
0000
FF00
FF80
C1C0
C060
C070
C030
C030
C030
C030
C030
C030
C030
C060
C060
C1C0
FF80
FE00
ENDCHAR
STARTCHAR 010F
ENCODING 271
SWIDTH 560 0
DWIDTH 14 0
BBX 14 19 1 0
BITMAP
000C
006C
0068
0068
0068
0060
1F60
3FE0
70E0
6060
E060
C060
C060
C060
E060
6060
70E0
3FE0
1E60
ENDCHAR
STARTCHAR 0110
ENCODING 272
SWIDTH 640 0
DWIDTH 16 0
BBX 14 17 1 0
BITMAP
3F80
3FE0
3070
3038
3018
3018
301C
301C
FF1C
301C
301C
3018
3018
3038
3070
3FE0
3F80
ENDCHAR
STARTCHAR 0111
ENCODING 273
SWIDTH 560 0
DWIDTH 14 0
BBX 13 18 1 0
BITMAP
0060
0060
07F8
0060
0060
0060
0E60
3FE0
70E0
6060
E060
C060
C060
C060
E060
70E0
3FE0
1E60
ENDCHAR
STARTCHAR 0112
ENCODING 274
SWIDTH 520 0
DWIDTH 13 0
BBX 10 20 2 0
BITMAP
3F00
0000
0000
FFC0
FFC0
C000
C000
C000
C000
C000
FF80
FF80
C000
C000
C000
C000
C000
C000
FFC0
FFC0
ENDCHAR
STARTCHAR 0113
ENCODING 275
SWIDTH 480 0
DWIDTH 12 0
BBX 10 17 1 0
BITMAP
3F80
0000
0000
0000
1F00
3F80
70C0
60C0
C040
C040
FFC0
C000
C000
6000
7000
3FC0
0F00
ENDCHAR
STARTCHAR 0114
ENCODING 276
SWIDTH 520 0
DWIDTH 13 0
BBX 10 21 2 0
BITMAP
2180
3300
1E00
0000
FFC0
FFC0
C000
C000
C000
C000
C000
FF80
FF80
C000
C000
C000
C000
C000
C000
FFC0
FFC0
ENDCHAR
STARTCHAR 0115
ENCODING 277
SWIDTH 480 0
DWIDTH 12 0
BBX 10 18 1 0
BITMAP
2080
3180
1F00
0000
0000
1F00
3F80
70C0
60C0
C040
C040
FFC0
C000
C000
6000
7000
3FC0
0F00
ENDCHAR
STARTCHAR 0116
ENCODING 278
SWIDTH 520 0
DWIDTH 13 0
BBX 10 21 2 0
BITMAP
0C00
0E00
0400
0000
FFC0
FFC0
C000
C000
C000
C000
C000
FF80
FF80
C000
C000
C000
C000
C000
C000
FFC0
FFC0
ENDCHAR
STARTCHAR 0117
ENCODING 279
SWIDTH 480 0
DWIDTH 12 0
BBX 10 18 1 0
BITMAP
0600
0E00
0400
0000
0000
1F00
3F80
70C0
60C0
C040
C040
FFC0
C000
C000
6000
7000
3FC0
0F00
ENDCHAR
STARTCHAR 0118
ENCODING 280
SWIDTH 520 0
DWIDTH 13 0
BBX 10 22 2 -5
BITMAP
FFC0
FFC0
C000
C000
C000
C000
C000
FF80
FF80
C000
C000
C000
C000
C000
C000
FFC0
FFC0
0180
0300
0300
03C0
01C0
ENDCHAR
STARTCHAR 0119
ENCODING 281
SWIDTH 480 0
DWIDTH 12 0
BBX 10 18 1 -5
BITMAP
1F00
3F80
70C0
60C0
C040
C040
FFC0
C000
C000
6000
7000
3FC0
0F80
0100
0200
0200
0300
03C0
ENDCHAR
STARTCHAR 011A
ENCODING 282
SWIDTH 520 0
DWIDTH 13 0
BBX 10 21 2 0
BITMAP
2180
1B00
0E00
0000
FFC0
FFC0
C000
C000
C000
C000
C000
FF80
FF80
C000
C000
C000
C000
C000
C000
FFC0
FFC0
ENDCHAR
STARTCHAR 011B
ENCODING 283
SWIDTH 480 0
DWIDTH 12 0
BBX 10 19 1 0
BITMAP
2080
3180
1B00
0E00
0000
0000
1F00
3F80
70C0
60C0
C040
C040
FFC0
C000
C000
6000
7000
3FC0
0F00
ENDCHAR
STARTCHAR 011C
ENCODING 284
SWIDTH 600 0
DWIDTH 15 0
BBX 13 21 1 0
BITMAP
03C0
06C0
0C20
0000
07C0
1FF0
3830
3000
6000
6000
E000
E000
C1F8
E1F8
E018
6018
6018
7018
3838
1FF0
07C0
ENDCHAR
STARTCHAR 011D
ENCODING 285
SWIDTH 520 0
DWIDTH 13 0
BBX 11 24 1 -5
BITMAP
0F00
1B00
3180
2080
0000
0000
1FE0
3FE0
6180
60C0
60C0
60C0
6180
3B80
3E00
6000
6000
7F80
3FE0
6060
C060
C060
E0C0
7F80
ENDCHAR
STARTCHAR 011E
ENCODING 286
SWIDTH 600 0
DWIDTH 15 0
BBX 13 21 1 0
BITMAP
0C20
0660
03C0
0000
07C0
1FF0
3830
3000
6000
6000
E000
E000
C1F8
E1F8
E018
6018
6018
7018
3838
1FF0
07C0
ENDCHAR
STARTCHAR 011F
ENCODING 287
SWIDTH 520 0
DWIDTH 13 0
BBX 11 23 1 -5
BITMAP
20C0
3180
1F00
0000
0000
1FE0
3FE0
6180
60C0
60C0
60C0
6180
3B80
3E00
6000
6000
7F80
3FE0
6060
C060
C060
E0C0
7F80
ENDCHAR
STARTCHAR 0120
ENCODING 288
SWIDTH 600 0
DWIDTH 15 0
BBX 13 21 1 0
BITMAP
0100
0380
0180
0000
07C0
1FF0
3830
3000
6000
6000
E000
E000
C1F8
E1F8
E018
6018
6018
7018
3838
1FF0
07C0
ENDCHAR
STARTCHAR 0121
ENCODING 289
SWIDTH 520 0
DWIDTH 13 0
BBX 11 23 1 -5
BITMAP
0600
0E00
0400
0000
0000
1FE0
3FE0
6180
60C0
60C0
60C0
6180
3B80
3E00
6000
6000
7F80
3FE0
6060
C060
C060
E0C0
7F80
ENDCHAR
STARTCHAR 0122
ENCODING 290
SWIDTH 600 0
DWIDTH 15 0
BBX 13 22 1 -5
BITMAP
07C0
1FF0
3830
3000
6000
6000
E000
E000
C1F8
E1F8
E018
6018
6018
7018
3838
1FF0
07C0
0000
0380
00C0
00C0
0700
ENDCHAR
STARTCHAR 0123
ENCODING 291
SWIDTH 520 0
DWIDTH 13 0
BBX 11 24 1 -5
BITMAP
0700
0C00
0C00
0600
0000
0000
1FE0
3FE0
6180
60C0
60C0
60C0
6180
3B80
3E00
6000
6000
7F80
3FE0
6060
C060
C060
E0C0
7F80
ENDCHAR
STARTCHAR 0124
ENCODING 292
SWIDTH 640 0
DWIDTH 16 0
BBX 12 21 2 0
BITMAP
0F00
1980
30C0
0000
C030
C030
C030
C030
C030
C030
C030
FFF0
FFF0
C030
C030
C030
C030
C030
C030
C030
C030
ENDCHAR
STARTCHAR 0125
ENCODING 293
SWIDTH 560 0
DWIDTH 14 0
BBX 12 22 0 0
BITMAP
7800
CC00
8600
0000
3000
3000
3000
3000
3000
33C0
37E0
3870
3030
3030
3030
3030
3030
3030
3030
3030
3030
3030
ENDCHAR
STARTCHAR 0126
ENCODING 294
SWIDTH 680 0
DWIDTH 17 0
BBX 15 17 1 0
BITMAP
301C
301C
301C
FFFE
301C
301C
301C
3FFC
3FFC
301C
301C
301C
301C
301C
301C
301C
301C
ENDCHAR
STARTCHAR 0127
ENCODING 295
SWIDTH 560 0
DWIDTH 14 0
BBX 12 18 0 0
BITMAP
3000
3000
FF80
FF80
3000
3000
31C0
37E0
3C60
3870
3030
3030
3030
3030
3030
3030
3030
3030
ENDCHAR
STARTCHAR 0128
ENCODING 296
SWIDTH 280 0
DWIDTH 7 0
BBX 9 21 -1 1
BITMAP
F980
DF00
8700
0000
1800
1800
1800
1800
1800
1800
1800
1800
1800
1800
1800
1800
1800
1800
1800
1800
1800
ENDCHAR
STARTCHAR 0129
ENCODING 297
SWIDTH 240 0
DWIDTH 6 0
BBX 8 18 -1 0
BITMAP
71
D9
8F
00
00
18
18
18
18
18
18
18
18
18
18
18
18
18
ENDCHAR
STARTCHAR 012A
ENCODING 298
SWIDTH 280 0
DWIDTH 7 0
BBX 7 20 0 0
BITMAP
FE
00
00
30
30
30
30
30
30
30
30
30
30
30
30
30
30
30
30
30
ENDCHAR
STARTCHAR 012B
ENCODING 299
SWIDTH 240 0
DWIDTH 6 0
BBX 6 17 0 0
BITMAP
FC
00
00
00
30
30
30
30
30
30
30
30
30
30
30
30
30
ENDCHAR
STARTCHAR 012C
ENCODING 300
SWIDTH 280 0
DWIDTH 7 0
BBX 7 21 0 0
BITMAP
86
CC
78
00
30
30
30
30
30
30
30
30
30
30
30
30
30
30
30
30
30
ENDCHAR
STARTCHAR 012D
ENCODING 301
SWIDTH 240 0
DWIDTH 6 0
BBX 8 18 -1 0
BITMAP
C1
63
7E
00
00
18
18
18
18
18
18
18
18
18
18
18
18
18
ENDCHAR
STARTCHAR 012E
ENCODING 302
SWIDTH 280 0
DWIDTH 7 0
BBX 4 22 1 -5
BITMAP
60
60
60
60
60
60
60
60
60
60
60
60
60
60
60
60
60
60
C0
C0
F0
70
ENDCHAR
STARTCHAR 012F
ENCODING 303
SWIDTH 240 0
DWIDTH 6 0
BBX 4 23 1 -5
BITMAP
60
60
00
00
00
60
60
60
60
60
60
60
60
60
60
60
60
60
40
C0
80
D0
70
ENDCHAR
STARTCHAR 0130
ENCODING 304
SWIDTH 280 0
DWIDTH 7 0
BBX 3 21 2 0
BITMAP
C0
E0
40
00
C0
C0
C0
C0
C0
C0
C0
C0
C0
C0
C0
C0
C0
C0
C0
C0
C0
ENDCHAR
STARTCHAR 0131
ENCODING 305
SWIDTH 240 0
DWIDTH 6 0
BBX 2 13 2 0
BITMAP
C0
C0
C0
C0
C0
C0
C0
C0
C0
C0
C0
C0
C0
ENDCHAR
STARTCHAR 0132
ENCODING 306
SWIDTH 520 0
DWIDTH 13 0
BBX 9 21 2 -4
BITMAP
C180
C180
C180
C180
C180
C180
C180
C180
C180
C180
C180
C180
C180
C180
C180
C180
C180
0180
0180
0F00
0E00
ENDCHAR
STARTCHAR 0133
ENCODING 307
SWIDTH 480 0
DWIDTH 12 0
BBX 9 22 2 -5
BITMAP
C300
E380
4100
0000
0000
C300
C300
C300
C300
C300
C300
C300
C300
C300
C300
C300
C300
0300
0300
0300
1F00
1E00
ENDCHAR
STARTCHAR 0134
ENCODING 308
SWIDTH 480 0
DWIDTH 12 0
BBX 11 21 1 0
BITMAP
0380
06C0
0C20
0000
0180
0180
0180
0180
0180
0180
0180
0180
0180
0180
0180
0180
0180
0180
C300
7F00
3C00
ENDCHAR
STARTCHAR 0135
ENCODING 309
SWIDTH 240 0
DWIDTH 6 0
BBX 8 24 -1 -5
BITMAP
3C
76
63
41
00
00
18
18
18
18
18
18
18
18
18
18
18
18
18
18
18
18
F8
F0
ENDCHAR
STARTCHAR 0136
ENCODING 310
SWIDTH 560 0
DWIDTH 14 0
BBX 12 23 2 -6
BITMAP
C060
C0C0
C1C0
C380
C300
C600
CC00
DE00
FF00
F300
E380
C180
C0C0
C0C0
C060
C070
C030
0000
0600
0300
0300
0300
0E00
ENDCHAR
STARTCHAR 0137
ENCODING 311
SWIDTH 480 0
DWIDTH 12 0
BBX 10 24 2 -6
BITMAP
C000
C000
C000
C000
C000
C180
C300
C700
C600
CC00
DC00
FC00
F600
E600
C300
C380
C180
C0C0
0000
0C00
0600
0600
0400
3800
ENDCHAR
STARTCHAR 0138
ENCODING 312
SWIDTH 480 0
DWIDTH 12 0
BBX 10 13 2 0
BITMAP
C180
C300
C700
C600
CC00
DC00
FC00
F600
E700
C300
C380
C180
C0C0
ENDCHAR
STARTCHAR 0139
ENCODING 313
SWIDTH 480 0
DWIDTH 12 0
BBX 9 22 2 0
BITMAP
1000
3000
E000
C000
0000
C000
C000
C000
C000
C000
C000
C000
C000
C000
C000
C000
C000
C000
C000
C000
FF80
FF80
ENDCHAR
STARTCHAR 013A
ENCODING 314
SWIDTH 240 0
DWIDTH 6 0
BBX 4 23 2 0
BITMAP
30
70
E0
80
00
C0
C0
C0
C0
C0
C0
C0
C0
C0
C0
C0
C0
C0
C0
C0
C0
E0
60
ENDCHAR
STARTCHAR 013B
ENCODING 315
SWIDTH 480 0
DWIDTH 12 0
BBX 9 23 2 -6
BITMAP
C000
C000
C000
C000
C000
C000
C000
C000
C000
C000
C000
C000
C000
C000
C000
FF80
FF80
0000
0C00
0600
0200
0600
1C00
ENDCHAR
STARTCHAR 013C
ENCODING 316
SWIDTH 240 0
DWIDTH 6 0
BBX 4 23 2 -5
BITMAP
C0
C0
C0
C0
C0
C0
C0
C0
C0
C0
C0
C0
C0
C0
C0
C0
E0
60
00
60
30
30
C0
ENDCHAR
STARTCHAR 013D
ENCODING 317
SWIDTH 480 0
DWIDTH 12 0
BBX 9 19 2 0
BITMAP
0300
0300
C300
C300
C200
C200
C000
C000
C000
C000
C000
C000
C000
C000
C000
C000
C000
FF80
FF80
ENDCHAR
STARTCHAR 013E
ENCODING 318
SWIDTH 280 0
DWIDTH 7 0
BBX 5 19 2 0
BITMAP
18
D8
D8
D8
D8
C0
C0
C0
C0
C0
C0
C0
C0
C0
C0
C0
C0
E0
60
ENDCHAR
STARTCHAR 013F
ENCODING 319
SWIDTH 480 0
DWIDTH 12 0
BBX 9 17 2 0
BITMAP
C000
C000
C000
C000
C000
C000
C000
C380
C380
C380
C000
C000
C000
C000
C000
FF80
FF80
ENDCHAR
STARTCHAR 0140
ENCODING 320
SWIDTH 360 0
DWIDTH 9 0
BBX 7 18 2 0
BITMAP
C0
C0
C0
C0
C0
C0
C0
C0
C6
CE
CE
C0
C0
C0
C0
C0
E0
60
ENDCHAR
STARTCHAR 0141
ENCODING 321
SWIDTH 480 0
DWIDTH 12 0
BBX 12 17 0 0
BITMAP
3000
3000
3000
3000
3000
3000
3180
3780
3E00
3800
F000
B000
3000
3000
3000
3FF0
3FF0
ENDCHAR
STARTCHAR 0142
ENCODING 322
SWIDTH 280 0
DWIDTH 7 0
BBX 6 18 0 0
BITMAP
30
30
30
30
30
30
3C
3C
70
F0
30
30
30
30
30
30
38
18
ENDCHAR
STARTCHAR 0143
ENCODING 323
SWIDTH 640 0
DWIDTH 16 0
BBX 12 22 2 0
BITMAP
0080
0380
0700
0400
0000
E030
E030
F030
F030
D830
D830
CC30
CE30
C630
C330
C330
C1B0
C1B0
C0F0
C0F0
C070
C070
ENDCHAR
STARTCHAR 0144
ENCODING 324
SWIDTH 560 0
DWIDTH 14 0
BBX 10 20 2 0
BITMAP
0100
0300
0600
0C00
0000
0000
0000
CF00
DF80
E1C0
C0C0
C0C0
C0C0
C0C0
C0C0
C0C0
C0C0
C0C0
C0C0
C0C0
ENDCHAR
STARTCHAR 0145
ENCODING 325
SWIDTH 640 0
DWIDTH 16 0
BBX 12 23 2 -6
BITMAP
E030
E030
F030
F030
D830
D830
CC30
CE30
C630
C330
C330
C1B0
C1B0
C0F0
C0F0
C070
C070
0000
0600
0300
0100
0300
0E00
ENDCHAR
STARTCHAR 0146
ENCODING 326
SWIDTH 560 0
DWIDTH 14 0
BBX 10 19 2 -6
BITMAP
CF00
DF80
E1C0
C0C0
C0C0
C0C0
C0C0
C0C0
C0C0
C0C0
C0C0
C0C0
C0C0
0000
0C00
0600
0600
0600
1800
ENDCHAR
STARTCHAR 0147
ENCODING 327
SWIDTH 640 0
DWIDTH 16 0
BBX 12 21 2 0
BITMAP
18C0
0D80
0700
0000
E030
E030
F030
F030
D830
D830
CC30
CE30
C630
C330
C330
C1B0
C1B0
C0F0
C0F0
C070
C070
ENDCHAR
STARTCHAR 0148
ENCODING 328
SWIDTH 560 0
DWIDTH 14 0
BBX 10 19 2 0
BITMAP
2080
3180
1B00
1E00
0000
0000
CF00
DF80
E1C0
C0C0
C0C0
C0C0
C0C0
C0C0
C0C0
C0C0
C0C0
C0C0
C0C0
ENDCHAR
STARTCHAR 0149
ENCODING 329
SWIDTH 760 0
DWIDTH 19 0
BBX 15 18 2 0
BITMAP
C000
E000
6000
6000
4000
823C
02FE
0386
0306
0306
0306
0306
0306
0306
0306
0306
0306
0306
ENDCHAR
STARTCHAR 014A
ENCODING 330
SWIDTH 640 0
DWIDTH 16 0
BBX 13 17 2 0
BITMAP
C780
DFE0
F060
E070
C030
C030
C038
C038
C038
C038
C038
C030
C030
C030
C070
C3E0
C3C0
ENDCHAR
STARTCHAR 014B
ENCODING 331
SWIDTH 560 0
DWIDTH 14 0
BBX 10 18 2 -5
BITMAP
CF00
DF80
E1C0
C0C0
C0C0
C0C0
C0C0
C0C0
C0C0
C0C0
C0C0
C0C0
C0C0
00C0
00C0
01C0
0780
0600
ENDCHAR
STARTCHAR 014C
ENCODING 332
SWIDTH 680 0
DWIDTH 17 0
BBX 14 20 1 0
BITMAP
0FE0
0000
0000
07C0
1FF0
3838
7018
601C
600C
E00C
C00C
C00C
E00C
E00C
600C
601C
7018
3838
1FF0
07C0
ENDCHAR
STARTCHAR 014D
ENCODING 333
SWIDTH 560 0
DWIDTH 14 0
BBX 11 17 1 0
BITMAP
3F80
0000
0000
0000
0F00
3FC0
70C0
6060
E060
C060
C060
C060
E060
6060
70C0
3F80
1F00
ENDCHAR
STARTCHAR 014E
ENCODING 334
SWIDTH 680 0
DWIDTH 17 0
BBX 14 21 1 0
BITMAP
0860
0CC0
0780
0000
07C0
1FF0
3838
7018
601C
600C
E00C
C00C
C00C
E00C
E00C
600C
601C
7018
3838
1FF0
07C0
ENDCHAR
STARTCHAR 014F
ENCODING 335
SWIDTH 560 0
DWIDTH 14 0
BBX 11 18 1 0
BITMAP
20C0
3180
1F00
0000
0000
0F00
3FC0
70C0
6060
E060
C060
C060
C060
E060
6060
70C0
3F80
1F00
ENDCHAR
STARTCHAR 0150
ENCODING 336
SWIDTH 680 0
DWIDTH 17 0
BBX 14 22 1 0
BITMAP
0110
0330
0660
0440
0000
07C0
1FF0
3838
7018
601C
600C
E00C
C00C
C00C
E00C
E00C
600C
601C
7018
3838
1FF0
07C0
ENDCHAR
STARTCHAR 0151
ENCODING 337
SWIDTH 560 0
DWIDTH 14 0
BBX 11 20 1 0
BITMAP
0400
0660
0CC0
0C80
1980
0000
0000
0F00
3FC0
70C0
6060
E060
C060
C060
C060
E060
6060
70C0
3F80
1F00
ENDCHAR
STARTCHAR 0152
ENCODING 338
SWIDTH 840 0
DWIDTH 21 0
BBX 19 17 1 0
BITMAP
07FFE0
1FFFE0
383000
703000
603000
603000
E03000
E03FC0
C03FC0
E03000
E03000
603000
603000
703000
383000
1FFFE0
07FFE0
ENDCHAR
STARTCHAR 0153
ENCODING 339
SWIDTH 840 0
DWIDTH 21 0
BBX 19 13 1 0
BITMAP
1F0F80
3F9FC0
70F0C0
60F060
E06060
C06060
C07FE0
C06000
E06000
60F000
70F840
3F9FC0
1F0F80
ENDCHAR
STARTCHAR 0154
ENCODING 340
SWIDTH 560 0
DWIDTH 14 0
BBX 11 22 2 0
BITMAP
0100
0700
0E00
0800
0000
FF80
FFC0
C0E0
C060
C060
C060
C060
C0C0
FF80
FE00
C300
C380
C180
C1C0
C0C0
C0E0
C060
ENDCHAR
STARTCHAR 0155
ENCODING 341
SWIDTH 360 0
DWIDTH 9 0
BBX 7 20 2 0
BITMAP
04
0E
18
30
00
00
00
CE
DC
F0
E0
C0
C0
C0
C0
C0
C0
C0
C0
C0
ENDCHAR
STARTCHAR 0156
ENCODING 342
SWIDTH 560 0
DWIDTH 14 0
BBX 11 23 2 -6
BITMAP
FF80
FFC0
C0E0
C060
C060
C060
C060
C0C0
FF80
FE00
C300
C380
C180
C1C0
C0C0
C0E0
C060
0000
0C00
0200
0300
0600
1C00
ENDCHAR
STARTCHAR 0157
ENCODING 343
SWIDTH 360 0
DWIDTH 9 0
BBX 8 19 1 -6
BITMAP
67
6E
78
70
60
60
60
60
60
60
60
60
60
00
60
30
30
30
C0
ENDCHAR
STARTCHAR 0158
ENCODING 344
SWIDTH 560 0
DWIDTH 14 0
BBX 11 21 2 0
BITMAP
3180
1B00
0E00
0000
FF80
FFC0
C0E0
C060
C060
C060
C060
C0C0
FF80
FE00
C300
C380
C180
C1C0
C0C0
C0E0
C060
ENDCHAR
STARTCHAR 0159
ENCODING 345
SWIDTH 360 0
DWIDTH 9 0
BBX 7 19 2 0
BITMAP
82
C6
6C
38
00
00
CE
DC
F0
E0
C0
C0
C0
C0
C0
C0
C0
C0
C0
ENDCHAR
STARTCHAR 015A
ENCODING 346
SWIDTH 520 0
DWIDTH 13 0
BBX 11 22 1 0
BITMAP
0080
0180
0700
0600
0000
0F80
3FC0
7040
6000
6000
6000
7800
3E00
0F80
03C0
00E0
0060
0060
4060
E0E0
7FC0
1F00
ENDCHAR
STARTCHAR 015B
ENCODING 347
SWIDTH 400 0
DWIDTH 10 0
BBX 9 20 1 0
BITMAP
0200
0700
0E00
0C00
1800
0000
0000
3E00
7F00
E000
C000
E000
7800
3E00
0700
0380
0180
C300
FF00
3E00
ENDCHAR
STARTCHAR 015C
ENCODING 348
SWIDTH 520 0
DWIDTH 13 0
BBX 11 21 1 0
BITMAP
0F00
1980
30C0
0000
0F80
3FC0
7040
6000
6000
6000
7800
3E00
0F80
03C0
00E0
0060
0060
4060
E0E0
7FC0
1F00
ENDCHAR
STARTCHAR 015D
ENCODING 349
SWIDTH 400 0
DWIDTH 10 0
BBX 9 19 1 0
BITMAP
1C00
3600
6300
4100
0000
0000
3E00
7F00
E000
C000
E000
7800
3E00
0700
0380
0180
C300
FF00
3E00
ENDCHAR
STARTCHAR 015E
ENCODING 350
SWIDTH 520 0
DWIDTH 13 0
BBX 11 22 1 -5
BITMAP
0F80
3FC0
70C0
6000
6000
6000
7800
3E00
0F80
03C0
00E0
0060
0060
4060
E0E0
7FC0
1F80
0400
0E00
0300
0300
0C00
ENDCHAR
STARTCHAR 015F
ENCODING 351
SWIDTH 400 0
DWIDTH 10 0
BBX 9 18 1 -5
BITMAP
3E00
7F00
E000
C000
E000
7800
3E00
0700
0380
0180
C300
FF00
3E00
0800
1C00
0400
0400
3800
ENDCHAR
STARTCHAR 0160
ENCODING 352
SWIDTH 520 0
DWIDTH 13 0
BBX 11 21 1 0
BITMAP
1080
1F00
0F00
0000
0F80
3FC0
7040
6000
6000
6000
7800
3E00
0F80
03C0
00E0
0060
0060
4060
E0E0
7FC0
1F00
ENDCHAR
STARTCHAR 0161
ENCODING 353
SWIDTH 400 0
DWIDTH 10 0
BBX 9 19 1 0
BITMAP
4100
6300
3600
1C00
0000
0000
3E00
7F00
E000
C000
E000
7800
3E00
0700
0380
0180
C300
FF00
3E00
ENDCHAR
STARTCHAR 0162
ENCODING 354
SWIDTH 520 0
DWIDTH 13 0
BBX 12 23 1 -6
BITMAP
FFF0
FFF0
0600
0600
0600
0600
0600
0600
0600
0600
0600
0600
0600
0600
0600
0600
0600
0400
0C00
0E00
0300
0600
1C00
ENDCHAR
STARTCHAR 0163
ENCODING 355
SWIDTH 320 0
DWIDTH 8 0
BBX 7 21 1 -5
BITMAP
20
20
20
FE
FE
60
60
60
60
60
60
60
70
30
3E
1E
08
18
04
0C
38
ENDCHAR
STARTCHAR 0164
ENCODING 356
SWIDTH 520 0
DWIDTH 13 0
BBX 12 21 1 0
BITMAP
3180
1B00
0E00
0000
FFF0
FFF0
0600
0600
0600
0600
0600
0600
0600
0600
0600
0600
0600
0600
0600
0600
0600
ENDCHAR
STARTCHAR 0165
ENCODING 357
SWIDTH 320 0
DWIDTH 8 0
BBX 7 19 1 0
BITMAP
06
06
06
26
24
20
FE
FE
60
60
60
60
60
60
60
70
30
3E
1E
ENDCHAR
STARTCHAR 0166
ENCODING 358
SWIDTH 520 0
DWIDTH 13 0
BBX 12 17 1 0
BITMAP
FFF0
FFF0
0600
0600
0600
0600
0600
0600
3FC0
0600
0600
0600
0600
0600
0600
0600
0600
ENDCHAR
STARTCHAR 0167
ENCODING 359
SWIDTH 320 0
DWIDTH 8 0
BBX 7 16 1 0
BITMAP
20
20
20
FE
FE
60
60
60
60
FE
60
60
70
30
3E
1E
ENDCHAR
STARTCHAR 0168
ENCODING 360
SWIDTH 640 0
DWIDTH 16 0
BBX 12 21 2 1
BITMAP
3C40
27C0
2380
0000
C030
C030
C030
C030
C030
C030
C030
C030
C030
C030
C030
C030
E030
6060
70E0
3FC0
1F80
ENDCHAR
STARTCHAR 0169
ENCODING 361
SWIDTH 560 0
DWIDTH 14 0
BBX 10 18 2 0
BITMAP
3880
7D80
4700
0000
0000
C1C0
C1C0
C1C0
C1C0
C1C0
C1C0
C1C0
C1C0
C1C0
C1C0
E3C0
7EC0
3CC0
ENDCHAR
STARTCHAR 016A
ENCODING 362
SWIDTH 640 0
DWIDTH 16 0
BBX 12 20 2 0
BITMAP
1F80
0000
0000
C030
C030
C030
C030
C030
C030
C030
C030
C030
C030
C030
C030
E030
6060
70E0
3FC0
1F80
ENDCHAR
STARTCHAR 016B
ENCODING 363
SWIDTH 560 0
DWIDTH 14 0
BBX 10 17 2 0
BITMAP
7F00
0000
0000
0000
C1C0
C1C0
C1C0
C1C0
C1C0
C1C0
C1C0
C1C0
C1C0
C1C0
E3C0
7EC0
3CC0
ENDCHAR
STARTCHAR 016C
ENCODING 364
SWIDTH 640 0
DWIDTH 16 0
BBX 12 21 2 0
BITMAP
10C0
1980
0F00
0000
C030
C030
C030
C030
C030
C030
C030
C030
C030
C030
C030
C030
E030
6060
70E0
3FC0
1F80
ENDCHAR
STARTCHAR 016D
ENCODING 365
SWIDTH 560 0
DWIDTH 14 0
BBX 10 18 2 0
BITMAP
4180
6300
3E00
0000
0000
C1C0
C1C0
C1C0
C1C0
C1C0
C1C0
C1C0
C1C0
C1C0
C1C0
E3C0
7EC0
3CC0
ENDCHAR
STARTCHAR 016E
ENCODING 366
SWIDTH 640 0
DWIDTH 16 0
BBX 12 23 2 0
BITMAP
0600
0900
0900
0900
0600
0000
C030
C030
C030
C030
C030
C030
C030
C030
C030
C030
C030
C030
E030
6060
70E0
3FC0
1F80
ENDCHAR
STARTCHAR 016F
ENCODING 367
SWIDTH 560 0
DWIDTH 14 0
BBX 10 20 2 0
BITMAP
1E00
3200
2300
3200
1E00
0000
0000
C1C0
C1C0
C1C0
C1C0
C1C0
C1C0
C1C0
C1C0
C1C0
C1C0
E3C0
7EC0
3CC0
ENDCHAR
STARTCHAR 0170
ENCODING 368
SWIDTH 640 0
DWIDTH 16 0
BBX 12 22 2 0
BITMAP
0660
0440
0CC0
0880
0000
C030
C030
C030
C030
C030
C030
C030
C030
C030
C030
C030
C030
E030
6060
70E0
3FC0
1F80
ENDCHAR
STARTCHAR 0171
ENCODING 369
SWIDTH 560 0
DWIDTH 14 0
BBX 10 20 2 0
BITMAP
0880
0C80
1980
1100
1300
0000
0000
C1C0
C1C0
C1C0
C1C0
C1C0
C1C0
C1C0
C1C0
C1C0
C1C0
E3C0
7EC0
3CC0
ENDCHAR
STARTCHAR 0172
ENCODING 370
SWIDTH 640 0
DWIDTH 16 0
BBX 12 22 2 -5
BITMAP
C030
C030
C030
C030
C030
C030
C030
C030
C030
C030
C030
C030
E030
6060
70E0
3FC0
1F80
0600
0400
0C00
0F00
0700
ENDCHAR
STARTCHAR 0173
ENCODING 371
SWIDTH 560 0
DWIDTH 14 0
BBX 10 18 2 -5
BITMAP
C1C0
C1C0
C1C0
C1C0
C1C0
C1C0
C1C0
C1C0
C1C0
C1C0
E3C0
7EC0
3CC0
0180
0300
0200
0340
01C0
ENDCHAR
STARTCHAR 0174
ENCODING 372
SWIDTH 800 0
DWIDTH 20 0
BBX 18 21 1 0
BITMAP
01E000
033000
061800
000000
C0C0C0
C0C0C0
C1C0C0
C1E180
E16180
616180
632180
633180
633300
323300
361300
361B00
361B00
341A00
140E00
1C0E00
1C0E00
ENDCHAR
STARTCHAR 0175
ENCODING 373
SWIDTH 720 0
DWIDTH 18 0
BBX 16 19 1 0
BITMAP
03C0
0660
0420
0000
0000
0000
C183
C183
C3C3
E3C2
6246
6246
6666
2664
346C
342C
343C
1C38
1838
ENDCHAR
STARTCHAR 0176
ENCODING 374
SWIDTH 480 0
DWIDTH 12 0
BBX 12 21 0 0
BITMAP
0F00
1980
30C0
0000
C030
6060
6060
30C0
30C0
1980
1980
1F00
0F00
0E00
0600
0600
0600
0600
0600
0600
0600
ENDCHAR
STARTCHAR 0177
ENCODING 375
SWIDTH 480 0
DWIDTH 12 0
BBX 11 24 0 -5
BITMAP
0F00
1D80
1080
0000
0000
0000
E060
6060
6060
30C0
30C0
30C0
1980
1980
0980
0D00
0F00
0700
0600
0600
0600
0C00
7800
7000
ENDCHAR
STARTCHAR 0178
ENCODING 376
SWIDTH 480 0
DWIDTH 12 0
BBX 12 21 0 0
BITMAP
30C0
39C0
0000
0000
C030
6060
6060
30C0
30C0
1980
1980
1F00
0F00
0E00
0600
0600
0600
0600
0600
0600
0600
ENDCHAR
STARTCHAR 0179
ENCODING 377
SWIDTH 520 0
DWIDTH 13 0
BBX 11 22 1 0
BITMAP
0180
0380
0700
0400
0000
7FE0
7FE0
00E0
00C0
0180
0380
0300
0600
0600
0C00
1C00
1800
3000
7000
6000
FFE0
FFE0
ENDCHAR
STARTCHAR 017A
ENCODING 378
SWIDTH 440 0
DWIDTH 11 0
BBX 9 20 1 0
BITMAP
0300
0700
0E00
0C00
0800
0000
0000
FF80
FF80
0300
0600
0E00
0C00
1800
1800
3000
7000
6000
FF80
FF80
ENDCHAR
STARTCHAR 017B
ENCODING 379
SWIDTH 520 0
DWIDTH 13 0
BBX 11 21 1 0
BITMAP
0600
0600
0200
0000
7FE0
7FE0
00E0
00C0
0180
0380
0300
0600
0600
0C00
1C00
1800
3000
7000
6000
FFE0
FFE0
ENDCHAR
STARTCHAR 017C
ENCODING 380
SWIDTH 440 0
DWIDTH 11 0
BBX 9 18 1 0
BITMAP
0C00
1C00
0800
0000
0000
FF80
FF80
0300
0600
0E00
0C00
1800
1800
3000
7000
6000
FF80
FF80
ENDCHAR
STARTCHAR 017D
ENCODING 381
SWIDTH 520 0
DWIDTH 13 0
BBX 11 21 1 0
BITMAP
1080
0F00
0F00
0000
7FE0
7FE0
00E0
00C0
0180
0380
0300
0600
0600
0C00
1C00
1800
3000
7000
6000
FFE0
FFE0
ENDCHAR
STARTCHAR 017E
ENCODING 382
SWIDTH 440 0
DWIDTH 11 0
BBX 9 19 1 0
BITMAP
4100
6300
3E00
1C00
0000
0000
FF80
FF80
0300
0600
0E00
0C00
1800
1800
3000
7000
6000
FF80
FF80
ENDCHAR
STARTCHAR 0180
ENCODING 384
SWIDTH 560 0
DWIDTH 14 0
BBX 13 18 0 0
BITMAP
3000
3000
FF80
FF80
3000
3000
3180
37E0
3C70
3030
3038
3018
3018
3038
3030
3870
3FE0
37C0
ENDCHAR
STARTCHAR 018F
ENCODING 399
SWIDTH 640 0
DWIDTH 16 0
BBX 14 17 1 0
BITMAP
0FC0
1FF0
3038
0018
001C
000C
000C
000C
FFFC
FFFC
600C
600C
601C
7018
3830
1FF0
07C0
ENDCHAR
STARTCHAR 0192
ENCODING 402
SWIDTH 480 0
DWIDTH 12 0
BBX 10 20 1 -3
BITMAP
01C0
03C0
0600
0600
0C00
0C00
3F80
3F80
0C00
0C00
0C00
0C00
0C00
0800
1800
1800
1800
3800
F000
C000
ENDCHAR
STARTCHAR 0193
ENCODING 403
SWIDTH 600 0
DWIDTH 15 0
BBX 14 21 1 0
BITMAP
000C
003C
0030
0030
07F0
1FF0
3810
3000
6000
6000
E000
E000
C1F8
E1F8
E018
6018
6018
7018
3838
1FF0
07C0
ENDCHAR
STARTCHAR 01A0
ENCODING 416
SWIDTH 680 0
DWIDTH 17 0
BBX 14 20 1 0
BITMAP
000C
0004
0004
07CC
1FF0
3838
3018
601C
600C
600C
E00C
E00C
E00C
600C
600C
601C
3018
3838
1FF0
07C0
ENDCHAR
STARTCHAR 01A1
ENCODING 417
SWIDTH 560 0
DWIDTH 14 0
BBX 12 17 1 0
BITMAP
0010
0030
0030
0030
0FE0
3FC0
70C0
6060
E060
C060
C060
C060
E060
6060
70C0
3F80
1F00
ENDCHAR
STARTCHAR 01AF
ENCODING 431
SWIDTH 640 0
DWIDTH 16 0
BBX 15 21 2 0
BITMAP
0006
0006
0006
000C
C038
C030
C030
C030
C030
C030
C030
C030
C030
C030
C030
C030
E030
6060
70E0
3FC0
1F80
ENDCHAR
STARTCHAR 01B0
ENCODING 432
SWIDTH 560 0
DWIDTH 14 0
BBX 12 17 2 1
BITMAP
0030
0030
0030
0060
C1C0
C1C0
C1C0
C1C0
C1C0
C1C0
C1C0
C1C0
C1C0
C1C0
E3C0
7EC0
3CC0
ENDCHAR
STARTCHAR 01C2
ENCODING 450
SWIDTH 280 0
DWIDTH 7 0
BBX 7 24 0 -6
BITMAP
10
10
10
10
10
10
10
10
10
FE
10
10
10
FE
10
10
10
10
10
10
10
10
10
10
ENDCHAR
STARTCHAR 01CD
ENCODING 461
SWIDTH 560 0
DWIDTH 14 0
BBX 13 21 0 0
BITMAP
18C0
0D80
0700
0000
0700
0700
0580
0D80
0C80
0CC0
18C0
18C0
1860
1060
3FE0
3FF0
3030
6030
6018
6018
C018
ENDCHAR
STARTCHAR 01CE
ENCODING 462
SWIDTH 520 0
DWIDTH 13 0
BBX 10 19 1 0
BITMAP
2080
3180
1B00
0E00
0000
0000
1F00
7F80
6180
00C0
00C0
07C0
3CC0
60C0
40C0
C0C0
E1C0
7FC0
3CC0
ENDCHAR
STARTCHAR 01CF
ENCODING 463
SWIDTH 280 0
DWIDTH 7 0
BBX 7 21 0 0
BITMAP
C6
6C
38
00
30
30
30
30
30
30
30
30
30
30
30
30
30
30
30
30
30
ENDCHAR
STARTCHAR 01D0
ENCODING 464
SWIDTH 240 0
DWIDTH 6 0
BBX 6 18 0 1
BITMAP
CC
7C
38
00
00
30
30
30
30
30
30
30
30
30
30
30
30
30
ENDCHAR
STARTCHAR 01D1
ENCODING 465
SWIDTH 680 0
DWIDTH 17 0
BBX 14 21 1 0
BITMAP
0C60
06C0
0380
0000
07C0
1FF0
3838
7018
601C
600C
E00C
C00C
C00C
E00C
E00C
600C
601C
7018
3838
1FF0
07C0
ENDCHAR
STARTCHAR 01D2
ENCODING 466
SWIDTH 560 0
DWIDTH 14 0
BBX 11 19 1 0
BITMAP
2080
3180
1B00
0F00
0000
0000
0F00
3FC0
70C0
6060
E060
C060
C060
C060
E060
6060
70C0
3F80
1F00
ENDCHAR
STARTCHAR 01D3
ENCODING 467
SWIDTH 640 0
DWIDTH 16 0
BBX 12 21 2 0
BITMAP
1080
0D80
0700
0000
C030
C030
C030
C030
C030
C030
C030
C030
C030
C030
C030
C030
E030
6060
70E0
3FC0
1F80
ENDCHAR
STARTCHAR 01D4
ENCODING 468
SWIDTH 560 0
DWIDTH 14 0
BBX 10 19 2 0
BITMAP
4100
6300
3E00
1C00
0000
0000
C1C0
C1C0
C1C0
C1C0
C1C0
C1C0
C1C0
C1C0
C1C0
C1C0
E3C0
7EC0
3CC0
ENDCHAR
STARTCHAR 01D5
ENCODING 469
SWIDTH 640 0
DWIDTH 16 0
BBX 12 23 2 0
BITMAP
1F80
0000
10C0
38C0
0000
0000
C030
C030
C030
C030
C030
C030
C030
C030
C030
C030
C030
C030
E030
6060
70E0
3FC0
1F80
ENDCHAR
STARTCHAR 01D6
ENCODING 470
SWIDTH 560 0
DWIDTH 14 0
BBX 10 21 2 0
BITMAP
7F00
0000
0000
6300
6300
0000
0000
0000
C1C0
C1C0
C1C0
C1C0
C1C0
C1C0
C1C0
C1C0
C1C0
C1C0
E3C0
7EC0
3CC0
ENDCHAR
STARTCHAR 01D7
ENCODING 471
SWIDTH 640 0
DWIDTH 16 0
BBX 12 25 2 0
BITMAP
0100
0300
0600
0000
10C0
38C0
0000
0000
C030
C030
C030
C030
C030
C030
C030
C030
C030
C030
C030
C030
E030
6060
70E0
3FC0
1F80
ENDCHAR
STARTCHAR 01D8
ENCODING 472
SWIDTH 560 0
DWIDTH 14 0
BBX 10 22 2 0
BITMAP
0600
0400
0800
0000
6300
6300
0000
0000
0000
C1C0
C1C0
C1C0
C1C0
C1C0
C1C0
C1C0
C1C0
C1C0
C1C0
E3C0
7EC0
3CC0
ENDCHAR
STARTCHAR 01D9
ENCODING 473
SWIDTH 640 0
DWIDTH 16 0
BBX 12 25 2 0
BITMAP
1080
1980
0F00
0000
10C0
38C0
0000
0000
C030
C030
C030
C030
C030
C030
C030
C030
C030
C030
C030
C030
E030
6060
70E0
3FC0
1F80
ENDCHAR
STARTCHAR 01DA
ENCODING 474
SWIDTH 560 0
DWIDTH 14 0
BBX 10 22 2 0
BITMAP
2100
3200
1C00
0000
6300
6300
0000
0000
0000
C1C0
C1C0
C1C0
C1C0
C1C0
C1C0
C1C0
C1C0
C1C0
C1C0
E3C0
7EC0
3CC0
ENDCHAR
STARTCHAR 01DB
ENCODING 475
SWIDTH 640 0
DWIDTH 16 0
BBX 12 25 2 0
BITMAP
0800
0C00
0600
0000
10C0
38C0
0000
0000
C030
C030
C030
C030
C030
C030
C030
C030
C030
C030
C030
C030
E030
6060
70E0
3FC0
1F80
ENDCHAR
STARTCHAR 01DC
ENCODING 476
SWIDTH 560 0
DWIDTH 14 0
BBX 10 22 2 0
BITMAP
1000
1800
0C00
0000
6300
6300
0000
0000
0000
C1C0
C1C0
C1C0
C1C0
C1C0
C1C0
C1C0
C1C0
C1C0
C1C0
E3C0
7EC0
3CC0
ENDCHAR
STARTCHAR 01E2
ENCODING 482
SWIDTH 840 0
DWIDTH 21 0
BBX 19 20 0 0
BITMAP
001F80
000000
000000
007FE0
00FFE0
00F000
01B000
01B000
033000
033000
063FC0
0E3FC0
0C3000
1FF000
1FF000
383000
303000
703000
603FE0
E03FE0
ENDCHAR
STARTCHAR 01E3
ENCODING 483
SWIDTH 800 0
DWIDTH 20 0
BBX 18 17 1 0
BITMAP
03F800
000000
000000
000000
1F1E00
7FBF00
61E180
00C080
00C0C0
0FC0C0
3CFFC0
70C000
60C000
C0C000
61E080
7F3F80
3C1F00
ENDCHAR
STARTCHAR 01E6
ENCODING 486
SWIDTH 600 0
DWIDTH 15 0
BBX 13 21 1 0
BITMAP
0C60
06C0
0380
0000
07C0
1FF0
3830
3000
6000
6000
E000
E000
C1F8
E1F8
E018
6018
6018
7018
3838
1FF0
07C0
ENDCHAR
STARTCHAR 01E7
ENCODING 487
SWIDTH 520 0
DWIDTH 13 0
BBX 11 24 1 -5
BITMAP
2080
3180
1F00
0E00
0000
0000
1FE0
3FE0
6180
60C0
60C0
60C0
6180
3B80
3E00
6000
6000
7F80
3FE0
6060
C060
C060
E0C0
7F80
ENDCHAR
STARTCHAR 01EA
ENCODING 490
SWIDTH 680 0
DWIDTH 17 0
BBX 14 22 1 -5
BITMAP
07C0
1FF0
3838
7018
601C
600C
E00C
C00C
C00C
E00C
E00C
600C
601C
7018
3830
1FE0
07C0
0100
0200
0200
0340
03C0
ENDCHAR
STARTCHAR 01EB
ENCODING 491
SWIDTH 560 0
DWIDTH 14 0
BBX 11 18 1 -5
BITMAP
0F00
3FC0
70C0
6060
E060
C060
C060
C060
E060
6060
70C0
3FC0
1F00
0600
0C00
0C00
0D00
0700
ENDCHAR
STARTCHAR 01F4
ENCODING 500
SWIDTH 600 0
DWIDTH 15 0
BBX 13 22 1 0
BITMAP
0040
00E0
01C0
0100
0000
07C0
1FF0
3830
3000
6000
6000
E000
E000
C1F8
E1F8
E018
6018
6018
7018
3838
1FF0
07C0
ENDCHAR
STARTCHAR 01F5
ENCODING 501
SWIDTH 520 0
DWIDTH 13 0
BBX 11 25 1 -5
BITMAP
0180
0380
0700
0600
0400
0000
0000
1FE0
3FE0
6180
60C0
60C0
60C0
6180
3B80
3E00
6000
6000
7F80
3FE0
6060
C060
C060
E0C0
7F80
ENDCHAR
STARTCHAR 01F8
ENCODING 504
SWIDTH 640 0
DWIDTH 16 0
BBX 12 22 2 0
BITMAP
1800
1C00
0600
0200
0000
E030
E030
F030
F030
D830
D830
CC30
CE30
C630
C330
C330
C1B0
C1B0
C0F0
C0F0
C070
C070
ENDCHAR
STARTCHAR 01F9
ENCODING 505
SWIDTH 560 0
DWIDTH 14 0
BBX 10 20 2 0
BITMAP
3000
3800
1C00
0C00
0400
0000
0000
CF00
DF80
E1C0
C0C0
C0C0
C0C0
C0C0
C0C0
C0C0
C0C0
C0C0
C0C0
C0C0
ENDCHAR
STARTCHAR 01FC
ENCODING 508
SWIDTH 840 0
DWIDTH 21 0
BBX 19 22 0 0
BITMAP
000180
000380
000600
000400
000000
007FE0
00FFE0
00F000
01B000
01B000
033000
033000
063FC0
0E3FC0
0C3000
1FF000
1FF000
383000
303000
703000
603FE0
E03FE0
ENDCHAR
STARTCHAR 01FD
ENCODING 509
SWIDTH 800 0
DWIDTH 20 0
BBX 18 20 1 0
BITMAP
001000
003800
007000
00E000
00C000
000000
000000
1F1E00
7FBF00
61E180
00C080
00C0C0
0FC0C0
3CFFC0
70C000
60C000
C0C000
61E080
7F3F80
3C1F00
ENDCHAR
STARTCHAR 0218
ENCODING 536
SWIDTH 520 0
DWIDTH 13 0
BBX 11 22 1 -5
BITMAP
0F80
3FC0
7040
6000
6000
6000
7800
3E00
0F80
03C0
00E0
0060
0060
4060
E0E0
7FC0
1F00
0000
0600
0300
0300
0C00
ENDCHAR
STARTCHAR 0219
ENCODING 537
SWIDTH 400 0
DWIDTH 10 0
BBX 9 18 1 -5
BITMAP
3E00
7F00
E000
C000
E000
7800
3E00
0700
0380
0180
C300
FF00
3E00
0000
1800
0600
0400
3800
ENDCHAR
STARTCHAR 021A
ENCODING 538
SWIDTH 520 0
DWIDTH 13 0
BBX 12 23 1 -6
BITMAP
FFF0
FFF0
0600
0600
0600
0600
0600
0600
0600
0600
0600
0600
0600
0600
0600
0600
0600
0000
0600
0300
0300
0600
1C00
ENDCHAR
STARTCHAR 021B
ENCODING 539
SWIDTH 320 0
DWIDTH 8 0
BBX 7 21 1 -5
BITMAP
20
20
20
FE
FE
60
60
60
60
60
60
60
70
30
3E
1E
00
18
0C
0C
38
ENDCHAR
STARTCHAR 0237
ENCODING 567
SWIDTH 240 0
DWIDTH 6 0
BBX 5 18 -1 -5
BITMAP
18
18
18
18
18
18
18
18
18
18
18
18
18
18
18
18
F8
F0
ENDCHAR
STARTCHAR 0243
ENCODING 579
SWIDTH 600 0
DWIDTH 15 0
BBX 13 17 1 0
BITMAP
3FC0
3FE0
3030
3030
3030
3030
3060
3F80
30F0
3038
3018
FF18
3018
3018
3030
3FF0
3FC0
ENDCHAR
STARTCHAR 0250
ENCODING 592
SWIDTH 520 0
DWIDTH 13 0
BBX 9 13 2 0
BITMAP
CF00
FF80
E180
C180
C180
C380
CF00
F800
C000
C000
E080
7F80
3E00
ENDCHAR
STARTCHAR 0251
ENCODING 593
SWIDTH 560 0
DWIDTH 14 0
BBX 11 13 1 0
BITMAP
1F60
3FE0
70E0
6060
E060
C060
C060
C060
E060
6060
70E0
3FE0
1E60
ENDCHAR
STARTCHAR 0252
ENCODING 594
SWIDTH 560 0
DWIDTH 14 0
BBX 11 13 2 0
BITMAP
CF00
FF80
E1C0
C0C0
C0E0
C060
C060
C0E0
C0C0
C0C0
E1C0
FF80
DF00
ENDCHAR
STARTCHAR 0253
ENCODING 595
SWIDTH 560 0
DWIDTH 14 0
BBX 11 18 2 0
BITMAP
3C00
7C00
E000
C000
C000
CF00
FF80
E1C0
C0C0
C0E0
C060
C060
C0E0
C0C0
C0C0
E1C0
FF80
DF00
ENDCHAR
STARTCHAR 0254
ENCODING 596
SWIDTH 440 0
DWIDTH 11 0
BBX 9 13 1 0
BITMAP
7C00
FE00
0300
0380
0180
0180
0180
0180
0180
0380
8300
FE00
7C00
ENDCHAR
STARTCHAR 0255
ENCODING 597
SWIDTH 440 0
DWIDTH 11 0
BBX 10 14 1 -1
BITMAP
0F00
3FC0
7080
6000
E000
C000
C000
C000
CF80
78C0
70C0
3F80
6F00
4000
ENDCHAR
STARTCHAR 0256
ENCODING 598
SWIDTH 560 0
DWIDTH 14 0
BBX 13 22 1 -4
BITMAP
0060
0060
0060
0060
0060
1F60
3FE0
70E0
6060
E060
C060
C060
C060
E060
6060
70E0
3FE0
1E60
0060
0060
0078
0038
ENDCHAR
STARTCHAR 0257
ENCODING 599
SWIDTH 560 0
DWIDTH 14 0
BBX 13 18 1 0
BITMAP
0038
0078
0060
0060
0060
1F60
3FE0
70E0
6060
E060
C060
C060
C060
E060
6060
70E0
3FE0
1E60
ENDCHAR
STARTCHAR 0258
ENCODING 600
SWIDTH 480 0
DWIDTH 12 0
BBX 10 13 1 0
BITMAP
1E00
7F80
6180
C0C0
C0C0
C0C0
FFC0
00C0
00C0
00C0
0180
7F00
3E00
ENDCHAR
STARTCHAR 0259
ENCODING 601
SWIDTH 480 0
DWIDTH 12 0
BBX 10 13 1 0
BITMAP
3E00
7F80
4180
00C0
00C0
00C0
FFC0
C0C0
C0C0
C0C0
6180
7F80
1E00
ENDCHAR
STARTCHAR 025A
ENCODING 602
SWIDTH 640 0
DWIDTH 16 0
BBX 16 13 1 0
BITMAP
3E00
7F80
4180
00F8
00F8
07CC
1EC7
78C0
C0C0
C0C0
6180
7F80
1E00
ENDCHAR
STARTCHAR 025B
ENCODING 603
SWIDTH 440 0
DWIDTH 11 0
BBX 9 13 1 0
BITMAP
1F00
3F80
6000
6000
6000
3C00
3E00
6000
C000
C000
E080
7F80
1F00
ENDCHAR
STARTCHAR 025C
ENCODING 604
SWIDTH 440 0
DWIDTH 11 0
BBX 9 13 1 0
BITMAP
3E00
7F00
0300
0300
0300
0E00
3E00
0380
0180
0180
0180
FF00
3E00
ENDCHAR
STARTCHAR 025E
ENCODING 606
SWIDTH 560 0
DWIDTH 14 0
BBX 12 13 1 0
BITMAP
1F00
3FC0
60C0
6060
6060
3860
3C70
6060
C060
C060
E0C0
7FC0
1F00
ENDCHAR
STARTCHAR 025F
ENCODING 607
SWIDTH 280 0
DWIDTH 7 0
BBX 7 18 -1 -5
BITMAP
18
18
18
18
18
7E
18
18
18
18
18
18
18
18
18
18
78
F0
ENDCHAR
STARTCHAR 0260
ENCODING 608
SWIDTH 560 0
DWIDTH 14 0
BBX 13 21 1 -5
BITMAP
0038
0078
0060
1F60
3FE0
70E0
6060
E060
C060
C060
C060
E060
6060
71E0
3F60
0C60
0060
0060
00C0
7FC0
1F00
ENDCHAR
STARTCHAR 0261
ENCODING 609
SWIDTH 560 0
DWIDTH 14 0
BBX 11 18 1 -5
BITMAP
1F60
3FE0
70E0
6060
E060
C060
C060
C060
E060
6060
71E0
3F60
0C60
0060
0060
00C0
7FC0
1F00
ENDCHAR
STARTCHAR 0262
ENCODING 610
SWIDTH 480 0
DWIDTH 12 0
BBX 10 13 1 0
BITMAP
0F80
3FC0
7000
6000
E000
C000
C3C0
C0C0
E0C0
60C0
70C0
3FC0
1F80
ENDCHAR
STARTCHAR 0263
ENCODING 611
SWIDTH 480 0
DWIDTH 12 0
BBX 10 17 1 -5
BITMAP
C0C0
C0C0
C180
6180
6180
2300
3300
3200
1E00
1E00
1C00
1E00
1600
3300
3300
3300
1E00
ENDCHAR
STARTCHAR 0264
ENCODING 612
SWIDTH 520 0
DWIDTH 13 0
BBX 12 13 0 0
BITMAP
F070
7DF0
0F80
0700
0F80
19C0
18C0
3060
3060
3060
38C0
1FC0
0F80
ENDCHAR
STARTCHAR 0265
ENCODING 613
SWIDTH 560 0
DWIDTH 14 0
BBX 10 17 2 -5
BITMAP
C0C0
C0C0
C0C0
C0C0
C0C0
C0C0
C0C0
C0C0
C1C0
E3C0
7EC0
3CC0
00C0
00C0
00C0
00C0
00C0
ENDCHAR
STARTCHAR 0266
ENCODING 614
SWIDTH 560 0
DWIDTH 14 0
BBX 10 18 2 0
BITMAP
3C00
7C00
E000
C000
C000
CF00
DF80
E1C0
C0C0
C0C0
C0C0
C0C0
C0C0
C0C0
C0C0
C0C0
C0C0
C0C0
ENDCHAR
STARTCHAR 0267
ENCODING 615
SWIDTH 560 0
DWIDTH 14 0
BBX 10 23 2 -5
BITMAP
3C00
7C00
E000
C000
C000
CF00
DF80
E1C0
C0C0
C0C0
C0C0
C0C0
C0C0
C0C0
C0C0
C0C0
C0C0
C0C0
00C0
00C0
01C0
0780
0600
ENDCHAR
STARTCHAR 0268
ENCODING 616
SWIDTH 280 0
DWIDTH 7 0
BBX 6 18 0 0
BITMAP
38
38
10
00
00
30
30
30
30
30
30
FC
30
30
30
30
30
30
ENDCHAR
STARTCHAR 026A
ENCODING 618
SWIDTH 360 0
DWIDTH 9 0
BBX 6 13 1 0
BITMAP
FC
FC
30
30
30
30
30
30
30
30
30
FC
FC
ENDCHAR
STARTCHAR 026C
ENCODING 620
SWIDTH 320 0
DWIDTH 8 0
BBX 7 18 0 0
BITMAP
18
18
18
18
18
18
F8
98
D8
7E
18
18
18
18
18
18
1C
0E
ENDCHAR
STARTCHAR 026D
ENCODING 621
SWIDTH 240 0
DWIDTH 6 0
BBX 4 23 2 -5
BITMAP
C0
C0
C0
C0
C0
C0
C0
C0
C0
C0
C0
C0
C0
C0
C0
C0
C0
C0
C0
C0
C0
70
30
ENDCHAR
STARTCHAR 026E
ENCODING 622
SWIDTH 560 0
DWIDTH 14 0
BBX 12 24 2 -5
BITMAP
C000
C000
C000
C000
C000
C000
FFE0
FFE0
C0C0
C0C0
C180
C300
C700
C600
CFC0
C0E0
C070
C030
0030
0030
0070
3060
3FC0
0F80
ENDCHAR
STARTCHAR 026F
ENCODING 623
SWIDTH 840 0
DWIDTH 21 0
BBX 17 12 2 0
BITMAP
C18180
C18180
C18180
C18180
C18180
C18180
C18180
C18180
C1C180
E3C780
7EFD80
387980
ENDCHAR
STARTCHAR 0270
ENCODING 624
SWIDTH 840 0
DWIDTH 21 0
BBX 17 17 2 -5
BITMAP
C18180
C18180
C18180
C18180
C18180
C18180
C18180
C18180
C1C180
E3C780
7EFD80
387980
000180
000180
000180
000180
000180
ENDCHAR
STARTCHAR 0271
ENCODING 625
SWIDTH 840 0
DWIDTH 21 0
BBX 17 18 2 -5
BITMAP
CF1E00
DFBF00
E1E380
C1C180
C18180
C18180
C18180
C18180
C18180
C18180
C18180
C18180
C18180
000180
000180
000380
000F00
000600
ENDCHAR
STARTCHAR 0272
ENCODING 626
SWIDTH 560 0
DWIDTH 14 0
BBX 12 18 0 -5
BITMAP
33C0
37E0
3870
3030
3030
3030
3030
3030
3030
3030
3030
3030
3030
3000
3000
3000
E000
C000
ENDCHAR
STARTCHAR 0273
ENCODING 627
SWIDTH 560 0
DWIDTH 14 0
BBX 12 18 2 -5
BITMAP
CF00
DF80
E1C0
C0C0
C0C0
C0C0
C0C0
C0C0
C0C0
C0C0
C0C0
C0C0
C0C0
00C0
00C0
00C0
00F0
0030
ENDCHAR
STARTCHAR 0274
ENCODING 628
SWIDTH 560 0
DWIDTH 14 0
BBX 10 13 2 0
BITMAP
C0C0
E0C0
E0C0
F0C0
D8C0
D8C0
CCC0
CCC0
C6C0
C2C0
C3C0
C1C0
C1C0
ENDCHAR
STARTCHAR 0275
ENCODING 629
SWIDTH 560 0
DWIDTH 14 0
BBX 11 13 1 0
BITMAP
1F00
3FC0
70C0
6060
C060
C060
FFE0
C060
C060
6060
70C0
3FC0
1F00
ENDCHAR
STARTCHAR 0276
ENCODING 630
SWIDTH 680 0
DWIDTH 17 0
BBX 16 13 1 0
BITMAP
0FFF
3FFF
70C0
60C0
E0C0
C0C0
C0FE
C0C0
E0C0
60C0
70C0
3FFF
0FFF
ENDCHAR
STARTCHAR 0278
ENCODING 632
SWIDTH 680 0
DWIDTH 17 0
BBX 15 23 1 -5
BITMAP
0100
0100
0100
0100
0100
0FE0
3FF8
711C
610C
E10E
C106
C106
C106
E10E
610C
711C
3FF8
0FE0
0100
0100
0100
0100
0100
ENDCHAR
STARTCHAR 0279
ENCODING 633
SWIDTH 360 0
DWIDTH 9 0
BBX 7 12 0 0
BITMAP
06
06
06
06
06
06
06
06
0E
1E
F6
E6
ENDCHAR
STARTCHAR 027A
ENCODING 634
SWIDTH 360 0
DWIDTH 9 0
BBX 7 18 0 0
BITMAP
06
06
06
06
06
06
06
06
06
06
06
06
06
06
0E
1E
F6
E6
ENDCHAR
STARTCHAR 027B
ENCODING 635
SWIDTH 360 0
DWIDTH 9 0
BBX 9 16 0 -4
BITMAP
0600
0600
0600
0600
0600
0600
0600
0600
0E00
1E00
F600
E600
0600
0600
0780
0380
ENDCHAR
STARTCHAR 027D
ENCODING 637
SWIDTH 360 0
DWIDTH 9 0
BBX 7 18 2 -5
BITMAP
CE
DC
F0
E0
C0
C0
C0
C0
C0
C0
C0
C0
C0
C0
C0
C0
70
30
ENDCHAR
STARTCHAR 027E
ENCODING 638
SWIDTH 320 0
DWIDTH 8 0
BBX 6 12 2 1
BITMAP
3C
7C
E0
C0
C0
C0
C0
C0
C0
C0
C0
C0
ENDCHAR
STARTCHAR 0280
ENCODING 640
SWIDTH 480 0
DWIDTH 12 0
BBX 9 13 2 0
BITMAP
FE00
FF00
C380
C180
C180
C380
CF00
FE00
C600
C600
C300
C380
C180
ENDCHAR
STARTCHAR 0281
ENCODING 641
SWIDTH 480 0
DWIDTH 12 0
BBX 9 12 1 0
BITMAP
E180
6180
3180
3180
1980
3F80
6180
6180
E180
6180
7F80
3F80
ENDCHAR
STARTCHAR 0282
ENCODING 642
SWIDTH 400 0
DWIDTH 10 0
BBX 9 17 1 -4
BITMAP
3E00
7F00
E000
C000
E000
7800
3E00
0700
0380
0180
8300
FF00
FE00
C000
C000
F000
7800
ENDCHAR
STARTCHAR 0283
ENCODING 643
SWIDTH 240 0
DWIDTH 6 0
BBX 8 23 -1 -5
BITMAP
07
0F
18
18
18
18
18
18
18
18
18
18
18
18
18
18
18
18
18
18
18
F8
F0
ENDCHAR
STARTCHAR 0284
ENCODING 644
SWIDTH 280 0
DWIDTH 7 0
BBX 8 23 -1 -5
BITMAP
07
0F
0C
18
18
18
18
18
18
18
18
7E
18
18
18
18
18
18
18
18
18
78
F0
ENDCHAR
STARTCHAR 0288
ENCODING 648
SWIDTH 320 0
DWIDTH 8 0
BBX 7 21 1 -5
BITMAP
20
20
20
FE
FE
60
60
60
60
60
60
60
60
60
60
60
60
70
30
3E
0C
ENDCHAR
STARTCHAR 0289
ENCODING 649
SWIDTH 560 0
DWIDTH 14 0
BBX 14 13 0 0
BITMAP
3030
3030
3030
3030
FFFC
3030
3030
3030
3830
3830
1870
1FB0
0F30
ENDCHAR
STARTCHAR 028A
ENCODING 650
SWIDTH 560 0
DWIDTH 14 0
BBX 12 13 1 0
BITMAP
F9F0
F1F0
30C0
6040
6060
C060
C060
C060
E060
6060
70C0
3FC0
1F00
ENDCHAR
STARTCHAR 028B
ENCODING 651
SWIDTH 520 0
DWIDTH 13 0
BBX 10 13 2 0
BITMAP
C700
C780
C1C0
C0C0
C0C0
C0C0
C0C0
C0C0
C0C0
C180
E380
7F00
3E00
ENDCHAR
STARTCHAR 028C
ENCODING 652
SWIDTH 480 0
DWIDTH 12 0
BBX 10 12 1 1
BITMAP
1C00
1E00
1600
3600
3300
3300
6300
6180
6180
C180
C0C0
C0C0
ENDCHAR
STARTCHAR 028D
ENCODING 653
SWIDTH 720 0
DWIDTH 18 0
BBX 16 13 1 0
BITMAP
1C38
3C38
3C2C
342C
366C
666C
6666
6246
6246
C3C6
C3C3
C183
C183
ENDCHAR
STARTCHAR 028E
ENCODING 654
SWIDTH 480 0
DWIDTH 12 0
BBX 10 18 1 0
BITMAP
01C0
03C0
0600
0C00
0C00
0C00
1C00
1C00
1600
3600
3600
2300
6300
6180
4180
C180
C0C0
C0C0
ENDCHAR
STARTCHAR 028F
ENCODING 655
SWIDTH 400 0
DWIDTH 10 0
BBX 10 12 0 0
BITMAP
C0C0
61C0
6180
3300
3300
1A00
1E00
0C00
0C00
0C00
0C00
0C00
ENDCHAR
STARTCHAR 0290
ENCODING 656
SWIDTH 440 0
DWIDTH 11 0
BBX 11 18 1 -5
BITMAP
FF80
FF80
0300
0600
0E00
0C00
1800
1800
3000
7000
6000
FF80
FF80
0180
0180
0180
01E0
0060
ENDCHAR
STARTCHAR 0291
ENCODING 657
SWIDTH 440 0
DWIDTH 11 0
BBX 11 15 1 -2
BITMAP
FF80
FF00
0300
0600
0E00
0C00
1800
1800
31C0
6260
6460
FFC0
FF80
0800
0800
ENDCHAR
STARTCHAR 0292
ENCODING 658
SWIDTH 440 0
DWIDTH 11 0
BBX 10 18 0 -5
BITMAP
7FC0
7F80
0180
0300
0600
0C00
0C00
1800
3F80
0380
00C0
00C0
00C0
00C0
00C0
C180
7F80
3E00
ENDCHAR
STARTCHAR 0294
ENCODING 660
SWIDTH 400 0
DWIDTH 10 0
BBX 10 18 0 0
BITMAP
3E00
7F80
C180
00C0
00C0
00C0
00C0
0180
0380
0700
0C00
0C00
0C00
0C00
0C00
0C00
0C00
0C00
ENDCHAR
STARTCHAR 0295
ENCODING 661
SWIDTH 440 0
DWIDTH 11 0
BBX 9 18 1 0
BITMAP
1F00
7F80
E080
C000
C000
C000
C000
E000
7000
3800
1C00
0C00
0C00
0C00
0C00
0C00
0C00
0C00
ENDCHAR
STARTCHAR 0298
ENCODING 664
SWIDTH 520 0
DWIDTH 13 0
BBX 11 18 1 0
BITMAP
0F00
3F80
3180
60C0
60C0
60C0
6060
4060
CE60
C460
6060
6060
60C0
60C0
60C0
3180
3F80
0F00
ENDCHAR
STARTCHAR 0299
ENCODING 665
SWIDTH 520 0
DWIDTH 13 0
BBX 10 13 2 0
BITMAP
FF00
C780
C180
C180
C180
C700
FF00
C180
C0C0
C0C0
C1C0
C780
FF00
ENDCHAR
STARTCHAR 029C
ENCODING 668
SWIDTH 560 0
DWIDTH 14 0
BBX 10 12 2 0
BITMAP
C0C0
C0C0
C0C0
C0C0
C0C0
FFC0
FFC0
C0C0
C0C0
C0C0
C0C0
C0C0
ENDCHAR
STARTCHAR 029D
ENCODING 669
SWIDTH 280 0
DWIDTH 7 0
BBX 10 23 -2 -6
BITMAP
0600
0600
0000
0000
0000
0600
0600
0600
0600
0600
0600
0600
0600
0600
0600
0600
0600
7E00
FE00
C600
FF00
7980
01C0
ENDCHAR
STARTCHAR 029F
ENCODING 671
SWIDTH 400 0
DWIDTH 10 0
BBX 8 12 2 0
BITMAP
C0
C0
C0
C0
C0
C0
C0
C0
C0
C0
FF
FF
ENDCHAR
STARTCHAR 02A1
ENCODING 673
SWIDTH 440 0
DWIDTH 11 0
BBX 11 18 0 0
BITMAP
1F00
7F80
61C0
00C0
00C0
00C0
00C0
0180
0380
0700
FFE0
FFE0
0C00
0C00
0C00
0C00
0C00
0C00
ENDCHAR
STARTCHAR 02A2
ENCODING 674
SWIDTH 440 0
DWIDTH 11 0
BBX 11 18 0 0
BITMAP
0F80
3FC0
7040
6000
6000
6000
6000
3000
3800
1C00
FFE0
FFE0
0600
0600
0600
0600
0600
0600
ENDCHAR
STARTCHAR 02B0
ENCODING 688
SWIDTH 360 0
DWIDTH 9 0
BBX 7 11 1 10
BITMAP
C0
C0
C0
DC
E6
C6
C6
C6
C6
C6
C6
ENDCHAR
STARTCHAR 02B2
ENCODING 690
SWIDTH 160 0
DWIDTH 4 0
BBX 4 15 -1 6
BITMAP
30
30
00
00
30
30
30
30
30
30
30
30
30
30
E0
ENDCHAR
STARTCHAR 02B3
ENCODING 691
SWIDTH 240 0
DWIDTH 6 0
BBX 5 8 1 10
BITMAP
D8
F8
C0
C0
C0
C0
C0
C0
ENDCHAR
STARTCHAR 02B7
ENCODING 695
SWIDTH 480 0
DWIDTH 12 0
BBX 11 8 1 10
BITMAP
8C60
8C40
CE40
DAC0
52C0
5280
7380
7180
ENDCHAR
STARTCHAR 02B8
ENCODING 696
SWIDTH 320 0
DWIDTH 8 0
BBX 8 11 0 7
BITMAP
C3
42
66
26
34
34
18
18
18
10
70
ENDCHAR
STARTCHAR 02B9
ENCODING 697
SWIDTH 240 0
DWIDTH 6 0
BBX 3 6 2 11
BITMAP
60
C0
C0
C0
C0
C0
ENDCHAR
STARTCHAR 02BB
ENCODING 699
SWIDTH 240 0
DWIDTH 6 0
BBX 3 6 1 12
BITMAP
20
40
40
C0
E0
60
ENDCHAR
STARTCHAR 02BC
ENCODING 700
SWIDTH 240 0
DWIDTH 6 0
BBX 3 7 2 11
BITMAP
40
E0
E0
60
40
C0
80
ENDCHAR
STARTCHAR 02BE
ENCODING 702
SWIDTH 160 0
DWIDTH 4 0
BBX 3 5 1 14
BITMAP
C0
60
20
60
C0
ENDCHAR
STARTCHAR 02BF
ENCODING 703
SWIDTH 160 0
DWIDTH 4 0
BBX 3 5 0 14
BITMAP
60
40
C0
40
20
ENDCHAR
STARTCHAR 02C1
ENCODING 705
SWIDTH 320 0
DWIDTH 8 0
BBX 6 12 1 10
BITMAP
78
CC
80
80
80
C0
70
30
30
30
30
30
ENDCHAR
STARTCHAR 02C6
ENCODING 710
SWIDTH 560 0
DWIDTH 14 0
BBX 7 4 3 14
BITMAP
3C
6C
C6
82
ENDCHAR
STARTCHAR 02C7
ENCODING 711
SWIDTH 560 0
DWIDTH 14 0
BBX 7 4 3 15
BITMAP
82
C6
6C
3C
ENDCHAR
STARTCHAR 02C8
ENCODING 712
SWIDTH 120 0
DWIDTH 3 0
BBX 1 5 1 13
BITMAP
80
80
80
80
80
ENDCHAR
STARTCHAR 02C9
ENCODING 713
SWIDTH 280 0
DWIDTH 7 0
BBX 7 1 0 16
BITMAP
FE
ENDCHAR
STARTCHAR 02CA
ENCODING 714
SWIDTH 240 0
DWIDTH 6 0
BBX 4 5 2 14
BITMAP
30
70
60
C0
80
ENDCHAR
STARTCHAR 02CB
ENCODING 715
SWIDTH 240 0
DWIDTH 6 0
BBX 4 5 0 14
BITMAP
80
C0
60
30
10
ENDCHAR
STARTCHAR 02CC
ENCODING 716
SWIDTH 120 0
DWIDTH 3 0
BBX 1 5 1 -7
BITMAP
80
80
80
80
80
ENDCHAR
STARTCHAR 02D0
ENCODING 720
SWIDTH 240 0
DWIDTH 6 0
BBX 4 11 1 0
BITMAP
70
60
40
00
00
00
00
00
60
60
F0
ENDCHAR
STARTCHAR 02D1
ENCODING 721
SWIDTH 240 0
DWIDTH 6 0
BBX 4 3 1 7
BITMAP
F0
60
60
ENDCHAR
STARTCHAR 02D8
ENCODING 728
SWIDTH 560 0
DWIDTH 14 0
BBX 8 4 3 14
BITMAP
83
C2
6E
3C
ENDCHAR
STARTCHAR 02D9
ENCODING 729
SWIDTH 560 0
DWIDTH 14 0
BBX 3 3 5 14
BITMAP
60
E0
40
ENDCHAR
STARTCHAR 02DA
ENCODING 730
SWIDTH 560 0
DWIDTH 14 0
BBX 6 5 4 14
BITMAP
70
C8
8C
C8
70
ENDCHAR
STARTCHAR 02DB
ENCODING 731
SWIDTH 560 0
DWIDTH 14 0
BBX 4 5 5 -5
BITMAP
60
C0
C0
D0
70
ENDCHAR
STARTCHAR 02DC
ENCODING 732
SWIDTH 560 0
DWIDTH 14 0
BBX 8 3 3 15
BITMAP
61
FB
8E
ENDCHAR
STARTCHAR 02DD
ENCODING 733
SWIDTH 560 0
DWIDTH 14 0
BBX 6 5 5 14
BITMAP
64
64
CC
88
80
ENDCHAR
STARTCHAR 02DE
ENCODING 734
SWIDTH 160 0
DWIDTH 4 0
BBX 6 4 -2 6
BITMAP
20
F0
B0
1C
ENDCHAR
STARTCHAR 02E0
ENCODING 736
SWIDTH 320 0
DWIDTH 8 0
BBX 8 12 0 6
BITMAP
C3
42
66
64
24
3C
18
18
3C
24
24
18
ENDCHAR
STARTCHAR 02E1
ENCODING 737
SWIDTH 160 0
DWIDTH 4 0
BBX 3 12 1 10
BITMAP
C0
C0
C0
C0
C0
C0
C0
C0
C0
C0
C0
60
ENDCHAR
STARTCHAR 02E2
ENCODING 738
SWIDTH 280 0
DWIDTH 7 0
BBX 6 8 1 10
BITMAP
78
C8
80
E0
38
0C
88
F8
ENDCHAR
STARTCHAR 02E3
ENCODING 739
SWIDTH 320 0
DWIDTH 8 0
BBX 6 8 1 10
BITMAP
8C
C8
78
30
70
58
C8
8C
ENDCHAR
STARTCHAR 0300
ENCODING 768
SWIDTH 0 0
DWIDTH 0 0
BBX 4 5 -3 14
BITMAP
80
C0
60
30
10
ENDCHAR
STARTCHAR 0301
ENCODING 769
SWIDTH 0 0
DWIDTH 0 0
BBX 4 5 -1 14
BITMAP
10
30
60
C0
80
ENDCHAR
STARTCHAR 0302
ENCODING 770
SWIDTH 0 0
DWIDTH 0 0
BBX 6 3 -3 14
BITMAP
78
CC
84
ENDCHAR
STARTCHAR 0303
ENCODING 771
SWIDTH 0 0
DWIDTH 0 0
BBX 8 3 -4 15
BITMAP
71
F9
8F
ENDCHAR
STARTCHAR 0304
ENCODING 772
SWIDTH 0 0
DWIDTH 0 0
BBX 6 1 -3 16
BITMAP
FC
ENDCHAR
STARTCHAR 0305
ENCODING 773
SWIDTH 0 0
DWIDTH 0 0
BBX 6 1 -3 16
BITMAP
FC
ENDCHAR
STARTCHAR 0306
ENCODING 774
SWIDTH 0 0
DWIDTH 0 0
BBX 8 4 -4 14
BITMAP
C1
C3
66
3C
ENDCHAR
STARTCHAR 0307
ENCODING 775
SWIDTH 0 0
DWIDTH 0 0
BBX 2 3 -1 14
BITMAP
C0
C0
C0
ENDCHAR
STARTCHAR 0308
ENCODING 776
SWIDTH 0 0
DWIDTH 0 0
BBX 8 2 -4 15
BITMAP
66
E7
ENDCHAR
STARTCHAR 0309
ENCODING 777
SWIDTH 0 0
DWIDTH 0 0
BBX 4 5 -2 14
BITMAP
E0
70
30
70
40
ENDCHAR
STARTCHAR 030A
ENCODING 778
SWIDTH 0 0
DWIDTH 0 0
BBX 6 5 -3 14
BITMAP
78
CC
CC
CC
78
ENDCHAR
STARTCHAR 030B
ENCODING 779
SWIDTH 0 0
DWIDTH 0 0
BBX 7 5 -2 14
BITMAP
66
64
CC
C8
88
ENDCHAR
STARTCHAR 030C
ENCODING 780
SWIDTH 0 0
DWIDTH 0 0
BBX 6 3 -3 16
BITMAP
84
CC
78
ENDCHAR
STARTCHAR 030F
ENCODING 783
SWIDTH 0 0
DWIDTH 0 0
BBX 7 5 -5 14
BITMAP
C8
CC
64
26
22
ENDCHAR
STARTCHAR 0311
ENCODING 785
SWIDTH 0 0
DWIDTH 0 0
BBX 8 4 -4 14
BITMAP
3C
66
C3
81
ENDCHAR
STARTCHAR 0312
ENCODING 786
SWIDTH 0 0
DWIDTH 0 0
BBX 2 4 -1 15
BITMAP
C0
80
C0
C0
ENDCHAR
STARTCHAR 0313
ENCODING 787
SWIDTH 0 0
DWIDTH 0 0
BBX 2 5 -1 14
BITMAP
C0
C0
40
C0
80
ENDCHAR
STARTCHAR 0318
ENCODING 792
SWIDTH 0 0
DWIDTH 0 0
BBX 4 5 -2 -6
BITMAP
10
10
F0
10
10
ENDCHAR
STARTCHAR 0319
ENCODING 793
SWIDTH 0 0
DWIDTH 0 0
BBX 4 5 -2 -6
BITMAP
80
80
F0
80
80
ENDCHAR
STARTCHAR 031A
ENCODING 794
SWIDTH 0 0
DWIDTH 0 0
BBX 4 4 -2 14
BITMAP
F0
10
10
10
ENDCHAR
STARTCHAR 031B
ENCODING 795
SWIDTH 0 0
DWIDTH 0 0
BBX 4 5 0 11
BITMAP
20
30
30
60
C0
ENDCHAR
STARTCHAR 031C
ENCODING 796
SWIDTH 0 0
DWIDTH 0 0
BBX 3 5 -2 -7
BITMAP
60
40
C0
40
20
ENDCHAR
STARTCHAR 031D
ENCODING 797
SWIDTH 0 0
DWIDTH 0 0
BBX 4 4 -2 -5
BITMAP
60
60
60
F0
ENDCHAR
STARTCHAR 031E
ENCODING 798
SWIDTH 0 0
DWIDTH 0 0
BBX 4 4 -2 -6
BITMAP
F0
60
60
60
ENDCHAR
STARTCHAR 031F
ENCODING 799
SWIDTH 0 0
DWIDTH 0 0
BBX 4 5 -2 -6
BITMAP
60
60
F0
60
60
ENDCHAR
STARTCHAR 0320
ENCODING 800
SWIDTH 0 0
DWIDTH 0 0
BBX 4 1 -2 -4
BITMAP
F0
ENDCHAR
STARTCHAR 0323
ENCODING 803
SWIDTH 0 0
DWIDTH 0 0
BBX 2 2 -1 -4
BITMAP
C0
C0
ENDCHAR
STARTCHAR 0324
ENCODING 804
SWIDTH 0 0
DWIDTH 0 0
BBX 8 2 -4 -5
BITMAP
E7
66
ENDCHAR
STARTCHAR 0325
ENCODING 805
SWIDTH 0 0
DWIDTH 0 0
BBX 6 5 -3 -6
BITMAP
78
CC
CC
CC
78
ENDCHAR
STARTCHAR 0326
ENCODING 806
SWIDTH 0 0
DWIDTH 0 0
BBX 4 5 -2 -6
BITMAP
60
30
30
30
C0
ENDCHAR
STARTCHAR 0327
ENCODING 807
SWIDTH 0 0
DWIDTH 0 0
BBX 4 6 -2 -6
BITMAP
60
40
E0
30
30
C0
ENDCHAR
STARTCHAR 0328
ENCODING 808
SWIDTH 0 0
DWIDTH 0 0
BBX 4 5 -2 -5
BITMAP
60
40
C0
F0
70
ENDCHAR
STARTCHAR 0329
ENCODING 809
SWIDTH 0 0
DWIDTH 0 0
BBX 2 5 -1 -7
BITMAP
C0
C0
C0
C0
C0
ENDCHAR
STARTCHAR 032A
ENCODING 810
SWIDTH 0 0
DWIDTH 0 0
BBX 6 4 -3 -6
BITMAP
FC
84
84
84
ENDCHAR
STARTCHAR 032C
ENCODING 812
SWIDTH 0 0
DWIDTH 0 0
BBX 6 3 -3 -4
BITMAP
84
CC
78
ENDCHAR
STARTCHAR 032E
ENCODING 814
SWIDTH 0 0
DWIDTH 0 0
BBX 8 4 -4 -6
BITMAP
C1
C3
66
3C
ENDCHAR
STARTCHAR 032F
ENCODING 815
SWIDTH 0 0
DWIDTH 0 0
BBX 8 4 -4 -6
BITMAP
3C
66
C3
81
ENDCHAR
STARTCHAR 0330
ENCODING 816
SWIDTH 0 0
DWIDTH 0 0
BBX 8 3 -4 -5
BITMAP
71
F9
8F
ENDCHAR
STARTCHAR 0331
ENCODING 817
SWIDTH 0 0
DWIDTH 0 0
BBX 6 1 -3 -4
BITMAP
FC
ENDCHAR
STARTCHAR 0334
ENCODING 820
SWIDTH 0 0
DWIDTH 0 0
BBX 8 3 -4 5
BITMAP
F1
99
8F
ENDCHAR
STARTCHAR 0339
ENCODING 825
SWIDTH 0 0
DWIDTH 0 0
BBX 3 5 -1 -7
BITMAP
C0
60
60
40
80
ENDCHAR
STARTCHAR 033A
ENCODING 826
SWIDTH 0 0
DWIDTH 0 0
BBX 6 4 -3 -6
BITMAP
84
84
84
FC
ENDCHAR
STARTCHAR 033B
ENCODING 827
SWIDTH 0 0
DWIDTH 0 0
BBX 6 4 -3 -6
BITMAP
FC
84
84
FC
ENDCHAR
STARTCHAR 033C
ENCODING 828
SWIDTH 0 0
DWIDTH 0 0
BBX 8 4 -4 -6
BITMAP
66
DB
99
99
ENDCHAR
STARTCHAR 033D
ENCODING 829
SWIDTH 0 0
DWIDTH 0 0
BBX 4 4 -2 14
BITMAP
90
60
60
90
ENDCHAR
STARTCHAR 0342
ENCODING 834
SWIDTH 0 0
DWIDTH 0 0
BBX 8 3 -4 15
BITMAP
71
F9
8F
ENDCHAR
STARTCHAR 0345
ENCODING 837
SWIDTH 0 0
DWIDTH 0 0
BBX 3 3 -1 -5
BITMAP
C0
C0
60
ENDCHAR
STARTCHAR 0361
ENCODING 865
SWIDTH 0 0
DWIDTH 0 0
BBX 22 4 -11 14
BITMAP
03FF00
1FCFE0
700038
C0000C
ENDCHAR
STARTCHAR 0374
ENCODING 884
SWIDTH 240 0
DWIDTH 6 0
BBX 3 6 2 11
BITMAP
60
C0
C0
C0
C0
C0
ENDCHAR
STARTCHAR 0375
ENCODING 885
SWIDTH 240 0
DWIDTH 6 0
BBX 2 6 2 0
BITMAP
40
C0
C0
C0
C0
C0
ENDCHAR
STARTCHAR 037A
ENCODING 890
SWIDTH 560 0
DWIDTH 14 0
BBX 3 3 6 -5
BITMAP
C0
C0
60
ENDCHAR
STARTCHAR 037E
ENCODING 894
SWIDTH 240 0
DWIDTH 6 0
BBX 4 16 1 -4
BITMAP
60
70
60
00
00
00
00
00
00
60
70
70
30
30
60
C0
ENDCHAR
STARTCHAR 0384
ENCODING 900
SWIDTH 560 0
DWIDTH 14 0
BBX 3 5 6 14
BITMAP
60
60
C0
C0
C0
ENDCHAR
STARTCHAR 0385
ENCODING 901
SWIDTH 560 0
DWIDTH 14 0
BBX 8 5 3 14
BITMAP
0C
08
DB
D3
10
ENDCHAR
STARTCHAR 0386
ENCODING 902
SWIDTH 560 0
DWIDTH 14 0
BBX 14 17 0 0
BITMAP
6380
4380
C680
C6C0
C4C0
0CC0
0C60
0C60
1860
1830
1FF0
3FF0
3018
3018
6018
601C
600C
ENDCHAR
STARTCHAR 0387
ENCODING 903
SWIDTH 240 0
DWIDTH 6 0
BBX 3 3 2 9
BITMAP
C0
E0
C0
ENDCHAR
STARTCHAR 0388
ENCODING 904
SWIDTH 600 0
DWIDTH 15 0
BBX 14 17 0 0
BITMAP
CFF8
CFF8
CC00
8C00
8C00
0C00
0C00
0FF0
0FF0
0C00
0C00
0C00
0C00
0C00
0C00
0FFC
0FFC
ENDCHAR
STARTCHAR 0389
ENCODING 905
SWIDTH 720 0
DWIDTH 18 0
BBX 16 17 0 0
BITMAP
CC03
CC03
CC03
8C03
8C03
0C03
0C03
0FFF
0FFF
0C03
0C03
0C03
0C03
0C03
0C03
0C03
0C03
ENDCHAR
STARTCHAR 038A
ENCODING 906
SWIDTH 320 0
DWIDTH 8 0
BBX 6 17 0 0
BITMAP
CC
CC
CC
8C
8C
0C
0C
0C
0C
0C
0C
0C
0C
0C
0C
0C
0C
ENDCHAR
STARTCHAR 038C
ENCODING 908
SWIDTH 720 0
DWIDTH 18 0
BBX 16 17 0 0
BITMAP
C1F0
C7FC
CE0E
8C06
9803
1803
1803
1803
3803
1803
1803
1803
1C03
0C06
0E0E
07FC
01F0
ENDCHAR
STARTCHAR 038E
ENCODING 910
SWIDTH 600 0
DWIDTH 15 0
BBX 15 17 0 0
BITMAP
DC06
CC0C
CC0C
8618
8618
0330
0330
01A0
01E0
00E0
00C0
00C0
00C0
00C0
00C0
00C0
00C0
ENDCHAR
STARTCHAR 038F
ENCODING 911
SWIDTH 720 0
DWIDTH 18 0
BBX 18 17 -1 0
BITMAP
60F800
63FE00
470700
460380
CE0180
0C0180
0C01C0
0C01C0
0C00C0
0C01C0
0C0180
0C0180
060180
060300
030600
1F8FC0
1F8FC0
ENDCHAR
STARTCHAR 0390
ENCODING 912
SWIDTH 280 0
DWIDTH 7 0
BBX 8 20 -1 0
BITMAP
0C
08
CB
DB
10
00
00
18
18
18
18
18
18
18
18
18
18
18
1E
0E
ENDCHAR
STARTCHAR 0391
ENCODING 913
SWIDTH 560 0
DWIDTH 14 0
BBX 13 17 0 0
BITMAP
0700
0700
0580
0D80
0C80
0CC0
18C0
18C0
1860
1060
3FE0
3FF0
3030
6030
6018
6018
C018
ENDCHAR
STARTCHAR 0392
ENCODING 914
SWIDTH 600 0
DWIDTH 15 0
BBX 12 17 2 0
BITMAP
FF00
FFC0
C0C0
C060
C060
C060
C0C0
FF80
FFC0
C0E0
C060
C030
C030
C070
C060
FFC0
FF80
ENDCHAR
STARTCHAR 0393
ENCODING 915
SWIDTH 480 0
DWIDTH 12 0
BBX 10 17 2 0
BITMAP
FFC0
FFC0
C000
C000
C000
C000
C000
C000
C000
C000
C000
C000
C000
C000
C000
C000
C000
ENDCHAR
STARTCHAR 0394
ENCODING 916
SWIDTH 600 0
DWIDTH 15 0
BBX 13 17 1 0
BITMAP
0700
0700
0D00
0D80
0980
1980
18C0
18C0
30C0
3060
3060
6060
6030
6030
C038
FFF8
FFF8
ENDCHAR
STARTCHAR 0395
ENCODING 917
SWIDTH 520 0
DWIDTH 13 0
BBX 10 17 2 0
BITMAP
FFC0
FFC0
C000
C000
C000
C000
C000
FF80
FF80
C000
C000
C000
C000
C000
C000
FFC0
FFC0
ENDCHAR
STARTCHAR 0396
ENCODING 918
SWIDTH 520 0
DWIDTH 13 0
BBX 11 17 1 0
BITMAP
7FE0
7FE0
00E0
00C0
0180
0380
0300
0600
0600
0C00
1C00
1800
3000
7000
6000
FFE0
FFE0
ENDCHAR
STARTCHAR 0397
ENCODING 919
SWIDTH 640 0
DWIDTH 16 0
BBX 12 17 2 0
BITMAP
C030
C030
C030
C030
C030
C030
C030
FFF0
FFF0
C030
C030
C030
C030
C030
C030
C030
C030
ENDCHAR
STARTCHAR 0398
ENCODING 920
SWIDTH 680 0
DWIDTH 17 0
BBX 14 17 1 0
BITMAP
07C0
1FF0
3838
7018
601C
600C
E00C
CFCC
CFCC
E00C
E00C
600C
601C
7018
3838
1FF0
07C0
ENDCHAR
STARTCHAR 0399
ENCODING 921
SWIDTH 280 0
DWIDTH 7 0
BBX 2 17 2 0
BITMAP
C0
C0
C0
C0
C0
C0
C0
C0
C0
C0
C0
C0
C0
C0
C0
C0
C0
ENDCHAR
STARTCHAR 039A
ENCODING 922
SWIDTH 560 0
DWIDTH 14 0
BBX 12 17 2 0
BITMAP
C060
C0C0
C1C0
C380
C300
C600
CC00
DE00
FF00
F300
E380
C180
C0C0
C0C0
C060
C070
C030
ENDCHAR
STARTCHAR 039B
ENCODING 923
SWIDTH 520 0
DWIDTH 13 0
BBX 13 17 0 0
BITMAP
0700
0700
0D00
0D80
0D80
0980
18C0
18C0
18C0
3060
3060
3060
6060
6030
6030
E030
C018
ENDCHAR
STARTCHAR 039C
ENCODING 924
SWIDTH 720 0
DWIDTH 18 0
BBX 14 17 2 0
BITMAP
E01C
E01C
F01C
F03C
D02C
D86C
D86C
C84C
CCCC
CCCC
C48C
C78C
C78C
C30C
C30C
C00C
C00C
ENDCHAR
STARTCHAR 039D
ENCODING 925
SWIDTH 640 0
DWIDTH 16 0
BBX 12 17 2 0
BITMAP
E030
E030
F030
F030
D830
D830
CC30
CE30
C630
C330
C330
C1B0
C1B0
C0F0
C0F0
C070
C070
ENDCHAR
STARTCHAR 039E
ENCODING 926
SWIDTH 520 0
DWIDTH 13 0
BBX 11 17 1 0
BITMAP
FFE0
FFE0
0000
0000
0000
0000
0000
3F80
3F80
0000
0000
0000
0000
0000
0000
FFE0
FFE0
ENDCHAR
STARTCHAR 039F
ENCODING 927
SWIDTH 680 0
DWIDTH 17 0
BBX 14 17 1 0
BITMAP
07C0
1FF0
3838
7018
601C
600C
E00C
C00C
C00C
E00C
E00C
600C
601C
7018
3838
1FF0
07C0
ENDCHAR
STARTCHAR 03A0
ENCODING 928
SWIDTH 640 0
DWIDTH 16 0
BBX 12 17 2 0
BITMAP
FFF0
FFF0
C030
C030
C030
C030
C030
C030
C030
C030
C030
C030
C030
C030
C030
C030
C030
ENDCHAR
STARTCHAR 03A1
ENCODING 929
SWIDTH 560 0
DWIDTH 14 0
BBX 11 17 2 0
BITMAP
FF00
FFC0
C0E0
C060
C060
C060
C060
C0C0
FFC0
FF00
C000
C000
C000
C000
C000
C000
C000
ENDCHAR
STARTCHAR 03A3
ENCODING 931
SWIDTH 520 0
DWIDTH 13 0
BBX 12 17 1 0
BITMAP
FFE0
FFE0
6000
3000
1800
1C00
0C00
0600
0300
0600
0C00
1C00
1800
3000
6000
FFF0
FFF0
ENDCHAR
STARTCHAR 03A4
ENCODING 932
SWIDTH 520 0
DWIDTH 13 0
BBX 12 17 1 0
BITMAP
FFF0
FFF0
0600
0600
0600
0600
0600
0600
0600
0600
0600
0600
0600
0600
0600
0600
0600
ENDCHAR
STARTCHAR 03A5
ENCODING 933
SWIDTH 480 0
DWIDTH 12 0
BBX 12 17 0 0
BITMAP
C030
6060
6060
30C0
30C0
1980
1980
1F00
0F00
0E00
0600
0600
0600
0600
0600
0600
0600
ENDCHAR
STARTCHAR 03A6
ENCODING 934
SWIDTH 720 0
DWIDTH 18 0
BBX 16 17 1 0
BITMAP
0180
0180
0FF0
1FFC
718E
6186
E187
C183
C183
C183
E187
6186
718C
3FF8
0FF0
0180
0180
ENDCHAR
STARTCHAR 03A7
ENCODING 935
SWIDTH 520 0
DWIDTH 13 0
BBX 11 17 1 0
BITMAP
C060
E0C0
60C0
3180
3180
1B00
1B00
0E00
0E00
1E00
1B00
3300
3180
61C0
60C0
C0E0
C060
ENDCHAR
STARTCHAR 03A8
ENCODING 936
SWIDTH 680 0
DWIDTH 17 0
BBX 14 17 2 0
BITMAP
C30C
C30C
C30C
C30C
C30C
C30C
C31C
E318
7338
3FF0
0780
0300
0300
0300
0300
0300
0300
ENDCHAR
STARTCHAR 03A9
ENCODING 937
SWIDTH 680 0
DWIDTH 17 0
BBX 15 17 1 0
BITMAP
07C0
1FF0
3838
3018
600C
600C
600C
600C
E00C
600C
600C
600C
7018
3018
1830
FC7E
FC7E
ENDCHAR
STARTCHAR 03AA
ENCODING 938
SWIDTH 280 0
DWIDTH 7 0
BBX 8 21 -1 0
BITMAP
63
E3
00
00
18
18
18
18
18
18
18
18
18
18
18
18
18
18
18
18
18
ENDCHAR
STARTCHAR 03AB
ENCODING 939
SWIDTH 480 0
DWIDTH 12 0
BBX 12 21 0 0
BITMAP
30C0
39C0
0000
0000
C030
6060
6060
30C0
30C0
1980
1980
1F00
0F00
0E00
0600
0600
0600
0600
0600
0600
0600
ENDCHAR
STARTCHAR 03AC
ENCODING 940
SWIDTH 560 0
DWIDTH 14 0
BBX 13 20 1 0
BITMAP
0300
0300
0300
0200
0600
0000
0000
1E30
3F30
71E0
60E0
E060
C060
C060
C060
C0C0
60C0
61C0
3F70
1E78
ENDCHAR
STARTCHAR 03AD
ENCODING 941
SWIDTH 440 0
DWIDTH 11 0
BBX 10 20 1 0
BITMAP
0600
0600
0600
0400
0C00
0000
0000
1F00
7F80
6080
6000
6000
3A00
3E00
6000
C000
C000
E080
7FC0
3F00
ENDCHAR
STARTCHAR 03AE
ENCODING 942
SWIDTH 560 0
DWIDTH 14 0
BBX 10 24 2 -4
BITMAP
0600
0600
0600
0600
0400
0000
0000
CF00
DF80
F180
E0C0
C0C0
C0C0
C0C0
C0C0
C0C0
C0C0
C0C0
C0C0
C0C0
00C0
00C0
00C0
00C0
ENDCHAR
STARTCHAR 03AF
ENCODING 943
SWIDTH 280 0
DWIDTH 7 0
BBX 4 20 2 0
BITMAP
60
60
60
40
C0
00
00
C0
C0
C0
C0
C0
C0
C0
C0
C0
C0
C0
F0
70
ENDCHAR
STARTCHAR 03B0
ENCODING 944
SWIDTH 520 0
DWIDTH 13 0
BBX 9 19 2 0
BITMAP
0C00
0800
CB00
DB00
1000
0000
C300
C180
C180
C180
C180
C180
C180
C180
C180
C180
C380
7F00
3C00
ENDCHAR
STARTCHAR 03B1
ENCODING 945
SWIDTH 560 0
DWIDTH 14 0
BBX 13 13 1 0
BITMAP
1E30
3F30
71E0
60E0
E060
C060
C060
C060
C0C0
60C0
61C0
3F70
1E78
ENDCHAR
STARTCHAR 03B2
ENCODING 946
SWIDTH 560 0
DWIDTH 14 0
BBX 11 22 2 -4
BITMAP
1E00
7F80
6180
C1C0
C0C0
C180
C180
C300
CF00
CFC0
C0C0
C060
C060
C060
C060
E0C0
FFC0
CF00
C000
C000
C000
C000
ENDCHAR
STARTCHAR 03B3
ENCODING 947
SWIDTH 480 0
DWIDTH 12 0
BBX 12 17 0 -4
BITMAP
E070
6060
7060
3060
3860
18C0
18C0
0D80
0D80
0F00
0700
0600
0600
0600
0600
0600
0600
ENDCHAR
STARTCHAR 03B4
ENCODING 948
SWIDTH 520 0
DWIDTH 13 0
BBX 11 18 1 0
BITMAP
1F80
3FE0
3000
3000
3800
1C00
0E00
0F80
39C0
70C0
6060
C060
C060
C060
6060
70C0
3FC0
1F00
ENDCHAR
STARTCHAR 03B5
ENCODING 949
SWIDTH 440 0
DWIDTH 11 0
BBX 10 13 1 0
BITMAP
1F00
7F80
6080
6000
6000
3A00
3E00
6000
C000
C000
E080
7FC0
3F00
ENDCHAR
STARTCHAR 03B6
ENCODING 950
SWIDTH 440 0
DWIDTH 11 0
BBX 9 22 1 -4
BITMAP
7F80
7F80
0300
0600
0C00
1800
3800
3000
6000
6000
E000
C000
C000
C000
E000
7000
3E00
1F80
0180
0080
0180
0380
ENDCHAR
STARTCHAR 03B7
ENCODING 951
SWIDTH 560 0
DWIDTH 14 0
BBX 10 17 2 -4
BITMAP
CF00
DF80
F180
E0C0
C0C0
C0C0
C0C0
C0C0
C0C0
C0C0
C0C0
C0C0
C0C0
00C0
00C0
00C0
00C0
ENDCHAR
STARTCHAR 03B8
ENCODING 952
SWIDTH 520 0
DWIDTH 13 0
BBX 11 18 1 0
BITMAP
0F00
3F80
3180
60C0
60C0
60C0
60C0
6060
FFE0
E060
6060
60C0
60C0
60C0
60C0
3180
3F80
1E00
ENDCHAR
STARTCHAR 03B9
ENCODING 953
SWIDTH 280 0
DWIDTH 7 0
BBX 4 13 2 0
BITMAP
C0
C0
C0
C0
C0
C0
C0
C0
C0
C0
C0
F0
70
ENDCHAR
STARTCHAR 03BA
ENCODING 954
SWIDTH 480 0
DWIDTH 12 0
BBX 10 13 2 0
BITMAP
C080
C1C0
C380
C600
CC00
DC00
DC00
E600
E600
C300
C380
C180
C0C0
ENDCHAR
STARTCHAR 03BB
ENCODING 955
SWIDTH 480 0
DWIDTH 12 0
BBX 11 18 1 0
BITMAP
F000
F800
1C00
0C00
0C00
0600
0E00
0E00
1B00
1B00
1B00
3180
3180
61C0
60C0
E0C0
C0E0
C060
ENDCHAR
STARTCHAR 03BC
ENCODING 956
SWIDTH 560 0
DWIDTH 14 0
BBX 11 17 2 -4
BITMAP
C0C0
C0C0
C0C0
C0C0
C0C0
C0C0
C0C0
C0C0
C0C0
C1C0
E3C0
FEE0
DCE0
C000
C000
C000
C000
ENDCHAR
STARTCHAR 03BD
ENCODING 957
SWIDTH 480 0
DWIDTH 12 0
BBX 11 13 0 0
BITMAP
E060
6060
7060
3060
3040
18C0
18C0
1880
0D80
0D80
0F00
0F00
0600
ENDCHAR
STARTCHAR 03BE
ENCODING 958
SWIDTH 440 0
DWIDTH 11 0
BBX 10 22 1 -5
BITMAP
FF80
FF80
3000
3000
7000
7000
3000
3800
0F00
3D00
7000
6000
C000
C000
E000
6000
7C00
1F80
03C0
00C0
0080
0180
ENDCHAR
STARTCHAR 03BF
ENCODING 959
SWIDTH 520 0
DWIDTH 13 0
BBX 11 13 1 0
BITMAP
1F00
3F80
70C0
60E0
E060
C060
C060
C060
E060
6060
70C0
3F80
1F00
ENDCHAR
STARTCHAR 03C0
ENCODING 960
SWIDTH 600 0
DWIDTH 15 0
BBX 13 13 1 0
BITMAP
FFF8
FFF8
3060
3060
3060
3040
3040
3040
30C0
30C0
30C0
3078
3078
ENDCHAR
STARTCHAR 03C1
ENCODING 961
SWIDTH 560 0
DWIDTH 14 0
BBX 11 17 2 -4
BITMAP
1F00
3F80
61C0
E0C0
C0C0
C0E0
C0E0
C0C0
C0C0
C0C0
E1C0
FF80
DE00
C000
C000
C000
C000
ENDCHAR
STARTCHAR 03C2
ENCODING 962
SWIDTH 440 0
DWIDTH 11 0
BBX 9 17 1 -4
BITMAP
1F00
3F80
7000
6000
C000
C000
C000
C000
6000
7000
3C00
1F00
0300
0100
0300
0300
0200
ENDCHAR
STARTCHAR 03C3
ENCODING 963
SWIDTH 560 0
DWIDTH 14 0
BBX 12 13 1 0
BITMAP
1FF0
3FF0
71C0
60C0
E060
C060
C060
C060
E060
60C0
70C0
3F80
1F00
ENDCHAR
STARTCHAR 03C4
ENCODING 964
SWIDTH 480 0
DWIDTH 12 0
BBX 10 13 1 0
BITMAP
FFC0
FFC0
0C00
0C00
0C00
0C00
0C00
0C00
0C00
0C00
0C00
0F00
0700
ENDCHAR
STARTCHAR 03C5
ENCODING 965
SWIDTH 520 0
DWIDTH 13 0
BBX 9 13 2 0
BITMAP
C300
C180
C180
C180
C180
C180
C180
C180
C180
C180
C380
7F00
3C00
ENDCHAR
STARTCHAR 03C6
ENCODING 966
SWIDTH 680 0
DWIDTH 17 0
BBX 15 20 1 -4
BITMAP
0100
0100
0100
0FE0
3FF8
711C
610C
E10E
C106
C106
C106
E10E
610C
711C
3FF8
0FE0
0100
0100
0100
0100
ENDCHAR
STARTCHAR 03C7
ENCODING 967
SWIDTH 480 0
DWIDTH 12 0
BBX 12 17 0 -4
BITMAP
E060
60E0
70C0
31C0
1980
1F80
0F00
0700
0600
0F00
0F00
1980
19C0
30C0
3060
6060
E030
ENDCHAR
STARTCHAR 03C8
ENCODING 968
SWIDTH 680 0
DWIDTH 17 0
BBX 14 20 2 -4
BITMAP
0300
0300
0300
C318
C318
C31C
C30C
C30C
C30C
C30C
C30C
C31C
C318
6338
7FF0
1FC0
0300
0300
0300
0300
ENDCHAR
STARTCHAR 03C9
ENCODING 969
SWIDTH 720 0
DWIDTH 18 0
BBX 15 13 1 0
BITMAP
3008
300C
600C
6006
6006
C186
C186
C186
C186
6186
638E
7EFC
1C78
ENDCHAR
STARTCHAR 03CA
ENCODING 970
SWIDTH 280 0
DWIDTH 7 0
BBX 8 18 -1 0
BITMAP
63
E7
00
00
00
18
18
18
18
18
18
18
18
18
18
18
1E
0E
ENDCHAR
STARTCHAR 03CB
ENCODING 971
SWIDTH 520 0
DWIDTH 13 0
BBX 9 17 2 0
BITMAP
E700
6200
0000
0000
C300
C180
C180
C180
C180
C180
C180
C180
C180
C180
C380
7F00
3C00
ENDCHAR
STARTCHAR 03CC
ENCODING 972
SWIDTH 520 0
DWIDTH 13 0
BBX 11 20 1 0
BITMAP
0300
0300
0600
0600
0600
0000
0000
1F00
3F80
70C0
60E0
E060
C060
C060
C060
E060
6060
70C0
3F80
1F00
ENDCHAR
STARTCHAR 03CD
ENCODING 973
SWIDTH 520 0
DWIDTH 13 0
BBX 9 20 2 0
BITMAP
0C00
0C00
0C00
0800
1800
0000
0000
C300
C180
C180
C180
C180
C180
C180
C180
C180
C180
C380
7F00
3C00
ENDCHAR
STARTCHAR 03CE
ENCODING 974
SWIDTH 720 0
DWIDTH 18 0
BBX 15 20 1 0
BITMAP
00C0
00C0
0180
0180
0180
0000
0000
3008
300C
600C
6006
6006
C186
C186
C186
C186
6186
638E
7EFC
1C78
ENDCHAR
STARTCHAR 03D0
ENCODING 976
SWIDTH 560 0
DWIDTH 14 0
BBX 11 18 2 0
BITMAP
1E00
7F80
6180
C180
C180
C180
C180
C700
DE00
FF80
C0C0
C060
C060
C060
E060
60C0
3FC0
1F00
ENDCHAR
STARTCHAR 03D1
ENCODING 977
SWIDTH 520 0
DWIDTH 13 0
BBX 10 18 2 0
BITMAP
3C00
7F00
C300
C180
C180
C180
C180
60C0
3FC0
00C0
C0C0
C180
C180
C180
C180
E300
7F00
3E00
ENDCHAR
STARTCHAR 03D5
ENCODING 981
SWIDTH 680 0
DWIDTH 17 0
BBX 15 17 1 -4
BITMAP
3070
31F8
618C
618E
E106
C106
C106
C106
E10E
610C
711C
3FF8
0FE0
0100
0180
0180
0180
ENDCHAR
STARTCHAR 03D7
ENCODING 983
SWIDTH 480 0
DWIDTH 12 0
BBX 10 17 2 -4
BITMAP
C080
C1C0
C300
C600
CC00
DC00
FC00
E600
E600
C300
C380
C1C0
00C0
00C0
0180
0300
0700
ENDCHAR
STARTCHAR 03D9
ENCODING 985
SWIDTH 520 0
DWIDTH 13 0
BBX 11 17 1 -4
BITMAP
1F00
3F80
70C0
60E0
E060
C060
C060
C060
E060
6060
70C0
3F80
1F00
0600
0600
0600
0600
ENDCHAR
STARTCHAR 03DB
ENCODING 987
SWIDTH 480 0
DWIDTH 12 0
BBX 10 17 1 -4
BITMAP
0FC0
3FC0
7000
6000
C000
C000
C000
C000
6000
7000
3C00
1F00
0380
0180
0180
0180
0100
ENDCHAR
STARTCHAR 03DD
ENCODING 989
SWIDTH 400 0
DWIDTH 10 0
BBX 8 17 2 -4
BITMAP
FF
FF
C0
C0
C0
C0
C0
C0
FE
C0
C0
C0
C0
C0
C0
C0
C0
ENDCHAR
STARTCHAR 03E1
ENCODING 993
SWIDTH 480 0
DWIDTH 12 0
BBX 12 22 0 -5
BITMAP
3000
3800
1C00
0E00
0700
0380
0180
01C0
07C0
1EE0
F860
6060
00E0
03F0
0F30
1C30
1030
0030
0030
0030
0030
0020
ENDCHAR
STARTCHAR 0400
ENCODING 1024
SWIDTH 520 0
DWIDTH 13 0
BBX 10 22 2 0
BITMAP
3000
3800
0C00
0400
0000
FFC0
FFC0
C000
C000
C000
C000
C000
FF80
FF80
C000
C000
C000
C000
C000
C000
FFC0
FFC0
ENDCHAR
STARTCHAR 0401
ENCODING 1025
SWIDTH 520 0
DWIDTH 13 0
BBX 10 21 2 0
BITMAP
3180
7380
0000
0000
FFC0
FFC0
C000
C000
C000
C000
C000
FF80
FF80
C000
C000
C000
C000
C000
C000
FFC0
FFC0
ENDCHAR
STARTCHAR 0402
ENCODING 1026
SWIDTH 680 0
DWIDTH 17 0
BBX 15 17 1 0
BITMAP
FFF0
FFF0
0C00
0C00
0C00
0C00
0DE0
0FF8
0C1C
0C0E
0C06
0C06
0C06
0C06
0C0C
0C7C
0C78
ENDCHAR
STARTCHAR 0403
ENCODING 1027
SWIDTH 480 0
DWIDTH 12 0
BBX 10 22 2 0
BITMAP
0100
0700
0E00
0800
0000
FFC0
FFC0
C000
C000
C000
C000
C000
C000
C000
C000
C000
C000
C000
C000
C000
C000
C000
ENDCHAR
STARTCHAR 0404
ENCODING 1028
SWIDTH 560 0
DWIDTH 14 0
BBX 12 17 1 0
BITMAP
07C0
1FF0
3830
7000
6000
6000
E000
FF80
FF80
C000
E000
6000
6000
7000
3830
1FF0
07C0
ENDCHAR
STARTCHAR 0405
ENCODING 1029
SWIDTH 520 0
DWIDTH 13 0
BBX 11 17 1 0
BITMAP
0F80
3FC0
7040
6000
6000
6000
7800
3E00
0F80
03C0
00E0
0060
0060
4060
E0E0
7FC0
1F00
ENDCHAR
STARTCHAR 0406
ENCODING 1030
SWIDTH 280 0
DWIDTH 7 0
BBX 2 17 2 0
BITMAP
C0
C0
C0
C0
C0
C0
C0
C0
C0
C0
C0
C0
C0
C0
C0
C0
C0
ENDCHAR
STARTCHAR 0407
ENCODING 1031
SWIDTH 280 0
DWIDTH 7 0
BBX 8 21 -1 0
BITMAP
63
E3
00
00
18
18
18
18
18
18
18
18
18
18
18
18
18
18
18
18
18
ENDCHAR
STARTCHAR 0408
ENCODING 1032
SWIDTH 480 0
DWIDTH 12 0
BBX 9 17 1 0
BITMAP
0180
0180
0180
0180
0180
0180
0180
0180
0180
0180
0180
0180
0180
0180
C300
7F00
3C00
ENDCHAR
STARTCHAR 0409
ENCODING 1033
SWIDTH 920 0
DWIDTH 23 0
BBX 21 17 0 0
BITMAP
07F800
07F800
061800
061800
061800
041800
0C1800
0C1FE0
0C1FF0
0C1838
0C1818
181818
181818
181818
381838
F01FF0
E01FC0
ENDCHAR
STARTCHAR 040A
ENCODING 1034
SWIDTH 920 0
DWIDTH 23 0
BBX 20 17 2 0
BITMAP
C03000
C03000
C03000
C03000
C03000
C03000
C03000
FFFF80
FFFFE0
C03070
C03030
C03030
C03030
C03030
C03070
C03FE0
C03F80
ENDCHAR
STARTCHAR 040B
ENCODING 1035
SWIDTH 680 0
DWIDTH 17 0
BBX 15 17 1 0
BITMAP
FFF0
FFF0
0C00
0C00
0C00
0C00
0DE0
0FF8
0C1C
0C0C
0C06
0C06
0C06
0C06
0C06
0C06
0C06
ENDCHAR
STARTCHAR 040C
ENCODING 1036
SWIDTH 600 0
DWIDTH 15 0
BBX 12 22 2 0
BITMAP
0180
0380
0600
0400
0000
C070
C0F0
C0C0
C180
C180
C300
C300
FE00
FE00
C700
C300
C180
C1C0
C0C0
C060
C070
C030
ENDCHAR
STARTCHAR 040D
ENCODING 1037
SWIDTH 640 0
DWIDTH 16 0
BBX 12 22 2 0
BITMAP
1800
0C00
0600
0200
0000
C030
C070
C070
C0F0
C1B0
C1B0
C330
C330
C630
C630
CC30
CC30
D830
D030
F030
E030
E030
ENDCHAR
STARTCHAR 040E
ENCODING 1038
SWIDTH 520 0
DWIDTH 13 0
BBX 13 21 0 0
BITMAP
18C0
18C0
0F80
0000
E018
6030
6030
3060
3060
1860
18C0
18C0
0CC0
0D80
0780
0700
0300
0700
0600
3E00
3800
ENDCHAR
STARTCHAR 040F
ENCODING 1039
SWIDTH 640 0
DWIDTH 16 0
BBX 12 22 2 -5
BITMAP
C030
C030
C030
C030
C030
C030
C030
C030
C030
C030
C030
C030
C030
C030
C030
FFF0
FFF0
0600
0600
0600
0600
0600
ENDCHAR
STARTCHAR 0410
ENCODING 1040
SWIDTH 560 0
DWIDTH 14 0
BBX 13 17 0 0
BITMAP
0700
0700
0580
0D80
0C80
0CC0
18C0
18C0
1860
1060
3FE0
3FF0
3030
6030
6018
6018
C018
ENDCHAR
STARTCHAR 0411
ENCODING 1041
SWIDTH 600 0
DWIDTH 15 0
BBX 11 17 2 0
BITMAP
FFC0
FFC0
C000
C000
C000
C000
C000
FF80
FFC0
C0E0
C060
C060
C060
C060
C0E0
FFC0
FF80
ENDCHAR
STARTCHAR 0412
ENCODING 1042
SWIDTH 600 0
DWIDTH 15 0
BBX 12 17 2 0
BITMAP
FF00
FFC0
C0C0
C060
C060
C060
C0C0
FF80
FFC0
C0E0
C060
C030
C030
C070
C060
FFC0
FF80
ENDCHAR
STARTCHAR 0413
ENCODING 1043
SWIDTH 480 0
DWIDTH 12 0
BBX 10 17 2 0
BITMAP
FFC0
FFC0
C000
C000
C000
C000
C000
C000
C000
C000
C000
C000
C000
C000
C000
C000
C000
ENDCHAR
STARTCHAR 0414
ENCODING 1044
SWIDTH 640 0
DWIDTH 16 0
BBX 14 22 1 -5
BITMAP
0FF0
0FF0
0C30
0C30
1830
1830
1830
1830
1830
1830
3030
3030
3030
3030
6030
FFFC
FFFC
C00C
C00C
C00C
C00C
C00C
ENDCHAR
STARTCHAR 0415
ENCODING 1045
SWIDTH 520 0
DWIDTH 13 0
BBX 10 17 2 0
BITMAP
FFC0
FFC0
C000
C000
C000
C000
C000
FF80
FF80
C000
C000
C000
C000
C000
C000
FFC0
FFC0
ENDCHAR
STARTCHAR 0416
ENCODING 1046
SWIDTH 800 0
DWIDTH 20 0
BBX 20 17 0 0
BITMAP
E06070
7060F0
3860C0
186180
0C6180
0C6300
0C6300
07FE00
07FE00
0C6300
0C6300
186180
186180
3060C0
3060E0
606060
E06070
ENDCHAR
STARTCHAR 0417
ENCODING 1047
SWIDTH 560 0
DWIDTH 14 0
BBX 12 17 1 0
BITMAP
1F80
7FC0
60E0
0060
0060
0060
00C0
0F80
0FC0
00E0
0070
0030
0030
4070
E0E0
7FC0
1F80
ENDCHAR
STARTCHAR 0418
ENCODING 1048
SWIDTH 640 0
DWIDTH 16 0
BBX 12 17 2 0
BITMAP
C030
C070
C070
C0F0
C1B0
C1B0
C330
C330
C630
C630
CC30
CC30
D830
D030
F030
E030
E030
ENDCHAR
STARTCHAR 0419
ENCODING 1049
SWIDTH 640 0
DWIDTH 16 0
BBX 12 21 2 0
BITMAP
10C0
19C0
0F00
0000
C030
C070
C070
C0F0
C1B0
C1B0
C330
C330
C630
C630
CC30
CC30
D830
D030
F030
E030
E030
ENDCHAR
STARTCHAR 041A
ENCODING 1050
SWIDTH 600 0
DWIDTH 15 0
BBX 12 17 2 0
BITMAP
C070
C0F0
C0C0
C180
C180
C300
C300
FE00
FE00
C700
C300
C180
C1C0
C0C0
C060
C070
C030
ENDCHAR
STARTCHAR 041B
ENCODING 1051
SWIDTH 640 0
DWIDTH 16 0
BBX 13 17 0 0
BITMAP
07F8
07F8
0618
0618
0418
0C18
0C18
0C18
0C18
0C18
1818
1818
1818
1818
3018
F018
E018
ENDCHAR
STARTCHAR 041C
ENCODING 1052
SWIDTH 720 0
DWIDTH 18 0
BBX 14 17 2 0
BITMAP
E01C
E01C
F01C
F03C
D02C
D86C
D86C
C84C
CCCC
CCCC
C48C
C78C
C78C
C30C
C30C
C00C
C00C
ENDCHAR
STARTCHAR 041D
ENCODING 1053
SWIDTH 640 0
DWIDTH 16 0
BBX 12 17 2 0
BITMAP
C030
C030
C030
C030
C030
C030
C030
FFF0
FFF0
C030
C030
C030
C030
C030
C030
C030
C030
ENDCHAR
STARTCHAR 041E
ENCODING 1054
SWIDTH 680 0
DWIDTH 17 0
BBX 14 17 1 0
BITMAP
07C0
1FF0
3838
7018
601C
600C
E00C
C00C
C00C
E00C
E00C
600C
601C
7018
3838
1FF0
07C0
ENDCHAR
STARTCHAR 041F
ENCODING 1055
SWIDTH 640 0
DWIDTH 16 0
BBX 12 17 2 0
BITMAP
FFF0
FFF0
C030
C030
C030
C030
C030
C030
C030
C030
C030
C030
C030
C030
C030
C030
C030
ENDCHAR
STARTCHAR 0420
ENCODING 1056
SWIDTH 560 0
DWIDTH 14 0
BBX 11 17 2 0
BITMAP
FF00
FFC0
C0E0
C060
C060
C060
C060
C0C0
FFC0
FF00
C000
C000
C000
C000
C000
C000
C000
ENDCHAR
STARTCHAR 0421
ENCODING 1057
SWIDTH 560 0
DWIDTH 14 0
BBX 12 17 1 0
BITMAP
07C0
1FF0
3830
3000
6000
6000
E000
E000
C000
E000
E000
6000
6000
7000
3830
1FF0
07C0
ENDCHAR
STARTCHAR 0422
ENCODING 1058
SWIDTH 520 0
DWIDTH 13 0
BBX 12 17 1 0
BITMAP
FFF0
FFF0
0600
0600
0600
0600
0600
0600
0600
0600
0600
0600
0600
0600
0600
0600
0600
ENDCHAR
STARTCHAR 0423
ENCODING 1059
SWIDTH 520 0
DWIDTH 13 0
BBX 13 17 0 0
BITMAP
E018
6030
6030
3060
3060
1860
18C0
18C0
0CC0
0D80
0780
0700
0300
0700
0600
3E00
3800
ENDCHAR
STARTCHAR 0424
ENCODING 1060
SWIDTH 720 0
DWIDTH 18 0
BBX 16 17 1 0
BITMAP
0180
0180
0FF0
3FFC
798E
6187
E183
C183
C183
C183
6183
6186
398E
1FF8
01C0
0180
0180
ENDCHAR
STARTCHAR 0425
ENCODING 1061
SWIDTH 520 0
DWIDTH 13 0
BBX 11 17 1 0
BITMAP
C060
E0C0
60C0
3180
3180
1B00
1B00
0E00
0E00
1E00
1B00
3300
3180
61C0
60C0
C0E0
C060
ENDCHAR
STARTCHAR 0426
ENCODING 1062
SWIDTH 640 0
DWIDTH 16 0
BBX 13 22 2 -5
BITMAP
C070
C070
C070
C070
C070
C070
C070
C070
C070
C070
C070
C070
C070
C070
C070
FFF8
FFF8
0018
0018
0018
0018
0018
ENDCHAR
STARTCHAR 0427
ENCODING 1063
SWIDTH 600 0
DWIDTH 15 0
BBX 11 17 2 0
BITMAP
C060
C060
C060
C060
C060
C060
C060
E060
7FE0
1F60
0060
0060
0060
0060
0060
0060
0060
ENDCHAR
STARTCHAR 0428
ENCODING 1064
SWIDTH 880 0
DWIDTH 22 0
BBX 17 17 2 0
BITMAP
C0C180
C0C180
C0C180
C0C180
C0C180
C0C180
C0C180
C0C180
C0C180
C0C180
C0C180
C0C180
C0C180
C0C180
C0C180
FFFF80
FFFF80
ENDCHAR
STARTCHAR 0429
ENCODING 1065
SWIDTH 880 0
DWIDTH 22 0
BBX 19 22 2 -5
BITMAP
C0C180
C0C180
C0C180
C0C180
C0C180
C0C180
C0C180
C0C180
C0C180
C0C180
C0C180
C0C180
C0C180
C0C180
C0C180
FFFFE0
FFFFE0
000060
000060
000060
000060
000060
ENDCHAR
STARTCHAR 042A
ENCODING 1066
SWIDTH 720 0
DWIDTH 18 0
BBX 16 17 1 0
BITMAP
FE00
FE00
0600
0600
0600
0600
0600
07F8
07FE
0606
0603
0603
0603
0603
0606
07FE
07F8
ENDCHAR
STARTCHAR 042B
ENCODING 1067
SWIDTH 800 0
DWIDTH 20 0
BBX 16 17 2 0
BITMAP
C003
C003
C003
C003
C003
C003
C003
FF03
FFC3
C0C3
C063
C063
C063
C063
C0C3
FFC3
FF03
ENDCHAR
STARTCHAR 042C
ENCODING 1068
SWIDTH 600 0
DWIDTH 15 0
BBX 11 17 2 0
BITMAP
C000
C000
C000
C000
C000
C000
C000
FF80
FFC0
C0E0
C060
C060
C060
C060
C0E0
FFC0
FF00
ENDCHAR
STARTCHAR 042D
ENCODING 1069
SWIDTH 560 0
DWIDTH 14 0
BBX 12 17 1 0
BITMAP
1F00
7F80
61C0
0060
0060
0030
0030
1FF0
1FF0
0030
0030
0030
0060
0060
C0C0
7F80
3F00
ENDCHAR
STARTCHAR 042E
ENCODING 1070
SWIDTH 920 0
DWIDTH 23 0
BBX 19 17 2 0
BITMAP
C03E00
C07F80
C0C1C0
C180C0
C180E0
C30060
C30060
FF0060
FF0060
C30060
C30060
C38060
C18060
C180C0
C0E1C0
C07F80
C03E00
ENDCHAR
STARTCHAR 042F
ENCODING 1071
SWIDTH 600 0
DWIDTH 15 0
BBX 11 17 1 0
BITMAP
1FE0
3FE0
6060
6060
E060
E060
6060
7060
3FE0
0FE0
1C60
1860
3860
3060
6060
E060
C060
ENDCHAR
STARTCHAR 0430
ENCODING 1072
SWIDTH 520 0
DWIDTH 13 0
BBX 10 13 1 0
BITMAP
1F00
7F80
6180
00C0
00C0
07C0
3CC0
60C0
40C0
C0C0
E1C0
7FC0
3CC0
ENDCHAR
STARTCHAR 0431
ENCODING 1073
SWIDTH 560 0
DWIDTH 14 0
BBX 11 18 1 1
BITMAP
03E0
0FC0
3C00
3000
6000
6000
6F80
DFC0
E0E0
E060
C060
C060
4060
6060
6060
70C0
3FC0
0F00
ENDCHAR
STARTCHAR 0432
ENCODING 1074
SWIDTH 520 0
DWIDTH 13 0
BBX 10 13 2 0
BITMAP
FF00
C780
C180
C180
C180
C700
FF00
C180
C0C0
C0C0
C1C0
C780
FF00
ENDCHAR
STARTCHAR 0433
ENCODING 1075
SWIDTH 400 0
DWIDTH 10 0
BBX 8 13 2 0
BITMAP
FF
FF
C0
C0
C0
C0
C0
C0
C0
C0
C0
C0
C0
ENDCHAR
STARTCHAR 0434
ENCODING 1076
SWIDTH 520 0
DWIDTH 13 0
BBX 13 17 0 -4
BITMAP
1FE0
1FE0
1860
1860
1860
1860
1860
1060
3060
3060
3060
FFF8
FFF8
4018
4018
4018
4018
ENDCHAR
STARTCHAR 0435
ENCODING 1077
SWIDTH 480 0
DWIDTH 12 0
BBX 10 13 1 0
BITMAP
1F00
3F80
70C0
60C0
C040
C040
FFC0
C000
C000
6000
7000
3FC0
0F00
ENDCHAR
STARTCHAR 0436
ENCODING 1078
SWIDTH 680 0
DWIDTH 17 0
BBX 15 13 1 0
BITMAP
C106
E10E
711C
3118
3110
1FF0
1FF0
3118
3118
610C
610C
C106
C106
ENDCHAR
STARTCHAR 0437
ENCODING 1079
SWIDTH 440 0
DWIDTH 11 0
BBX 9 13 1 0
BITMAP
3E00
FF00
0180
0180
0180
0F00
1F00
0380
0180
0180
0180
FF80
3E00
ENDCHAR
STARTCHAR 0438
ENCODING 1080
SWIDTH 560 0
DWIDTH 14 0
BBX 10 13 2 0
BITMAP
C0C0
C1C0
C1C0
C3C0
C6C0
C6C0
CCC0
D8C0
D8C0
F0C0
E0C0
E0C0
C0C0
ENDCHAR
STARTCHAR 0439
ENCODING 1081
SWIDTH 560 0
DWIDTH 14 0
BBX 10 19 2 0
BITMAP
6180
6180
3300
1E00
0000
0000
C0C0
C1C0
C1C0
C3C0
C6C0
C6C0
CCC0
D8C0
D8C0
F0C0
E0C0
E0C0
C0C0
ENDCHAR
STARTCHAR 043A
ENCODING 1082
SWIDTH 480 0
DWIDTH 12 0
BBX 10 13 2 0
BITMAP
C180
C380
C300
C600
C600
FC00
FC00
C600
C600
C300
C380
C180
C0C0
ENDCHAR
STARTCHAR 043B
ENCODING 1083
SWIDTH 520 0
DWIDTH 13 0
BBX 11 13 0 0
BITMAP
0FE0
0FE0
0860
1860
1860
1860
1860
1860
1860
1060
3060
7060
E060
ENDCHAR
STARTCHAR 043C
ENCODING 1084
SWIDTH 640 0
DWIDTH 16 0
BBX 12 13 2 0
BITMAP
E070
E070
E0F0
F0F0
F0B0
D9B0
D9B0
C930
CF30
CE30
C630
C030
C030
ENDCHAR
STARTCHAR 043D
ENCODING 1085
SWIDTH 560 0
DWIDTH 14 0
BBX 10 13 2 0
BITMAP
C0C0
C0C0
C0C0
C0C0
C0C0
FFC0
FFC0
C0C0
C0C0
C0C0
C0C0
C0C0
C0C0
ENDCHAR
STARTCHAR 043E
ENCODING 1086
SWIDTH 560 0
DWIDTH 14 0
BBX 11 13 1 0
BITMAP
0F00
3FC0
70C0
6060
E060
C060
C060
C060
E060
6060
70C0
3F80
1F00
ENDCHAR
STARTCHAR 043F
ENCODING 1087
SWIDTH 560 0
DWIDTH 14 0
BBX 10 13 2 0
BITMAP
FFC0
FFC0
C0C0
C0C0
C0C0
C0C0
C0C0
C0C0
C0C0
C0C0
C0C0
C0C0
C0C0
ENDCHAR
STARTCHAR 0440
ENCODING 1088
SWIDTH 560 0
DWIDTH 14 0
BBX 11 18 2 -5
BITMAP
CF00
FF80
E1C0
C0C0
C0E0
C060
C060
C0E0
C0C0
C0C0
E1C0
FF80
DF00
C000
C000
C000
C000
C000
ENDCHAR
STARTCHAR 0441
ENCODING 1089
SWIDTH 440 0
DWIDTH 11 0
BBX 10 13 1 0
BITMAP
0F00
3FC0
7080
6000
E000
C000
C000
C000
E000
6000
7080
3FC0
1F00
ENDCHAR
STARTCHAR 0442
ENCODING 1090
SWIDTH 480 0
DWIDTH 12 0
BBX 10 13 1 0
BITMAP
FFC0
FFC0
0C00
0C00
0C00
0C00
0C00
0C00
0C00
0C00
0C00
0C00
0C00
ENDCHAR
STARTCHAR 0443
ENCODING 1091
SWIDTH 480 0
DWIDTH 12 0
BBX 11 18 0 -5
BITMAP
E060
6060
6060
30C0
30C0
30C0
1980
1980
0980
0D00
0F00
0700
0600
0600
0600
0C00
7800
7000
ENDCHAR
STARTCHAR 0444
ENCODING 1092
SWIDTH 720 0
DWIDTH 18 0
BBX 16 23 1 -5
BITMAP
0180
0180
0180
0180
0180
1FBC
3FFE
6187
6183
E183
C183
C183
C183
E183
6183
6186
3FFE
1FB8
0180
0180
0180
0180
0180
ENDCHAR
STARTCHAR 0445
ENCODING 1093
SWIDTH 440 0
DWIDTH 11 0
BBX 10 13 1 0
BITMAP
C180
6180
6300
3300
3600
1C00
1C00
1C00
3600
6300
6300
C180
C1C0
ENDCHAR
STARTCHAR 0446
ENCODING 1094
SWIDTH 560 0
DWIDTH 14 0
BBX 11 17 2 -4
BITMAP
C0C0
C0C0
C0C0
C0C0
C0C0
C0C0
C0C0
C0C0
C0C0
C0C0
C0C0
FFE0
FFE0
0060
0060
0060
0060
ENDCHAR
STARTCHAR 0447
ENCODING 1095
SWIDTH 520 0
DWIDTH 13 0
BBX 10 13 1 0
BITMAP
E0C0
E0C0
E0C0
E0C0
60C0
60C0
7FC0
1FC0
00C0
00C0
00C0
00C0
00C0
ENDCHAR
STARTCHAR 0448
ENCODING 1096
SWIDTH 760 0
DWIDTH 19 0
BBX 15 13 2 0
BITMAP
C306
C306
C306
C306
C306
C306
C306
C306
C306
C306
C306
FFFE
FFFE
ENDCHAR
STARTCHAR 0449
ENCODING 1097
SWIDTH 760 0
DWIDTH 19 0
BBX 16 17 2 -4
BITMAP
C306
C306
C306
C306
C306
C306
C306
C306
C306
C306
C306
FFFF
FFFF
0003
0003
0003
0003
ENDCHAR
STARTCHAR 044A
ENCODING 1098
SWIDTH 600 0
DWIDTH 15 0
BBX 13 13 1 0
BITMAP
FC00
FC00
0C00
0C00
0C00
0FE0
0FF0
0C38
0C18
0C18
0C38
0FF0
0FE0
ENDCHAR
STARTCHAR 044B
ENCODING 1099
SWIDTH 680 0
DWIDTH 17 0
BBX 13 13 2 0
BITMAP
C018
C018
C018
C018
C018
FE18
FF18
C318
C198
C198
C318
FF18
FE18
ENDCHAR
STARTCHAR 044C
ENCODING 1100
SWIDTH 480 0
DWIDTH 12 0
BBX 9 13 2 0
BITMAP
C000
C000
C000
C000
C000
FE00
FF80
C180
C180
C180
C180
FF00
FE00
ENDCHAR
STARTCHAR 044D
ENCODING 1101
SWIDTH 440 0
DWIDTH 11 0
BBX 9 13 1 0
BITMAP
7C00
FF00
0300
0180
0180
0180
3F80
0180
0180
0180
8300
FF00
7C00
ENDCHAR
STARTCHAR 044E
ENCODING 1102
SWIDTH 720 0
DWIDTH 18 0
BBX 15 13 2 0
BITMAP
C0F0
C3FC
C30C
C606
C606
FE06
FE06
C606
C606
C606
C30C
C3FC
C0F0
ENDCHAR
STARTCHAR 044F
ENCODING 1103
SWIDTH 520 0
DWIDTH 13 0
BBX 10 13 1 0
BITMAP
1FC0
7FC0
60C0
60C0
60C0
60C0
3CC0
1FC0
18C0
30C0
30C0
60C0
C0C0
ENDCHAR
STARTCHAR 0450
ENCODING 1104
SWIDTH 480 0
DWIDTH 12 0
BBX 10 20 1 0
BITMAP
1000
3800
1C00
0C00
0600
0000
0000
1F00
3F80
70C0
60C0
C040
C040
FFC0
C000
C000
6000
7000
3FC0
0F00
ENDCHAR
STARTCHAR 0451
ENCODING 1105
SWIDTH 480 0
DWIDTH 12 0
BBX 10 17 1 0
BITMAP
3180
3180
0000
0000
1F00
3F80
70C0
60C0
C040
C040
FFC0
C000
C000
6000
7000
3FC0
0F00
ENDCHAR
STARTCHAR 0452
ENCODING 1106
SWIDTH 560 0
DWIDTH 14 0
BBX 12 23 0 -5
BITMAP
3000
3000
FF80
FF80
3000
3000
3180
37E0
3C70
3030
3030
3030
3030
3030
3030
3030
3030
3030
0030
0030
0060
03E0
03C0
ENDCHAR
STARTCHAR 0453
ENCODING 1107
SWIDTH 400 0
DWIDTH 10 0
BBX 8 20 2 0
BITMAP
02
06
0C
18
10
00
00
FF
FF
C0
C0
C0
C0
C0
C0
C0
C0
C0
C0
C0
ENDCHAR
STARTCHAR 0454
ENCODING 1108
SWIDTH 440 0
DWIDTH 11 0
BBX 10 13 1 0
BITMAP
0F00
3FC0
7080
6000
C000
C000
FF00
C000
C000
6000
7000
3FC0
1F00
ENDCHAR
STARTCHAR 0455
ENCODING 1109
SWIDTH 400 0
DWIDTH 10 0
BBX 9 13 1 0
BITMAP
3E00
7F00
E000
C000
E000
7800
3E00
0700
0380
0180
C300
FF00
3E00
ENDCHAR
STARTCHAR 0456
ENCODING 1110
SWIDTH 240 0
DWIDTH 6 0
BBX 3 18 2 0
BITMAP
C0
E0
40
00
00
C0
C0
C0
C0
C0
C0
C0
C0
C0
C0
C0
C0
C0
ENDCHAR
STARTCHAR 0457
ENCODING 1111
SWIDTH 240 0
DWIDTH 6 0
BBX 8 18 -1 0
BITMAP
62
E7
00
00
00
18
18
18
18
18
18
18
18
18
18
18
18
18
ENDCHAR
STARTCHAR 0458
ENCODING 1112
SWIDTH 240 0
DWIDTH 6 0
BBX 6 23 -1 -5
BITMAP
18
1C
08
00
00
18
18
18
18
18
18
18
18
18
18
18
18
18
18
18
18
F8
F0
ENDCHAR
STARTCHAR 0459
ENCODING 1113
SWIDTH 720 0
DWIDTH 18 0
BBX 17 13 0 0
BITMAP
0FE000
0FE000
186000
186000
186000
187E00
187F80
186180
186180
186180
306180
707F80
E07E00
ENDCHAR
STARTCHAR 045A
ENCODING 1114
SWIDTH 760 0
DWIDTH 19 0
BBX 16 13 2 0
BITMAP
C180
C180
C180
C180
C180
FFFC
FFFE
C187
C183
C183
C187
C1FE
C1FC
ENDCHAR
STARTCHAR 045B
ENCODING 1115
SWIDTH 560 0
DWIDTH 14 0
BBX 12 18 0 0
BITMAP
3000
3000
FF80
FF80
3000
3000
31C0
37E0
3C60
3870
3030
3030
3030
3030
3030
3030
3030
3030
ENDCHAR
STARTCHAR 045C
ENCODING 1116
SWIDTH 480 0
DWIDTH 12 0
BBX 10 20 2 0
BITMAP
0300
0700
0600
0C00
0800
0000
0000
C180
C380
C300
C600
C600
FC00
FC00
C600
C600
C300
C380
C180
C0C0
ENDCHAR
STARTCHAR 045D
ENCODING 1117
SWIDTH 560 0
DWIDTH 14 0
BBX 10 20 2 0
BITMAP
3000
3800
1800
0C00
0400
0000
0000
C0C0
C1C0
C1C0
C3C0
C6C0
C6C0
CCC0
D8C0
D8C0
F0C0
E0C0
E0C0
C0C0
ENDCHAR
STARTCHAR 045E
ENCODING 1118
SWIDTH 480 0
DWIDTH 12 0
BBX 11 24 0 -5
BITMAP
30C0
30C0
1980
0F00
0000
0000
E060
6060
6060
30C0
30C0
30C0
1980
1980
0980
0D00
0F00
0700
0600
0600
0600
0C00
7800
7000
ENDCHAR
STARTCHAR 045F
ENCODING 1119
SWIDTH 560 0
DWIDTH 14 0
BBX 10 17 2 -4
BITMAP
C0C0
C0C0
C0C0
C0C0
C0C0
C0C0
C0C0
C0C0
C0C0
C0C0
C0C0
FFC0
FFC0
0C00
0C00
0C00
0C00
ENDCHAR
STARTCHAR 0462
ENCODING 1122
SWIDTH 600 0
DWIDTH 15 0
BBX 13 18 1 0
BITMAP
1800
1800
1800
FFE0
FFE0
1800
1800
1800
1F00
1FF0
1838
1818
1818
1818
1818
1838
1FF0
1FC0
ENDCHAR
STARTCHAR 0463
ENCODING 1123
SWIDTH 560 0
DWIDTH 14 0
BBX 12 16 1 0
BITMAP
1800
1800
1800
FFC0
FFC0
1800
1800
1800
1F00
1FE0
1830
1830
1830
1830
1FF0
1FC0
ENDCHAR
STARTCHAR 0472
ENCODING 1138
SWIDTH 680 0
DWIDTH 17 0
BBX 14 17 1 0
BITMAP
07C0
1FF0
3838
7018
601C
600C
E00C
FFFC
FFFC
C00C
E00C
600C
600C
7018
3838
1FF0
07C0
ENDCHAR
STARTCHAR 0473
ENCODING 1139
SWIDTH 560 0
DWIDTH 14 0
BBX 11 13 1 0
BITMAP
1F00
3FC0
70C0
6060
C060
C060
FFE0
C060
C060
6060
70C0
3FC0
1F00
ENDCHAR
STARTCHAR 0474
ENCODING 1140
SWIDTH 520 0
DWIDTH 13 0
BBX 14 17 0 0
BITMAP
C01C
E03C
6030
6030
6060
3060
3060
30C0
18C0
18C0
18C0
0980
0D80
0D80
0D00
0700
0700
ENDCHAR
STARTCHAR 0475
ENCODING 1141
SWIDTH 480 0
DWIDTH 12 0
BBX 12 13 0 0
BITMAP
E030
6070
60C0
60C0
30C0
3080
3180
1980
1980
1B00
0F00
0F00
0E00
ENDCHAR
STARTCHAR 0490
ENCODING 1168
SWIDTH 480 0
DWIDTH 12 0
BBX 10 21 2 0
BITMAP
00C0
00C0
00C0
00C0
FFC0
FFC0
C000
C000
C000
C000
C000
C000
C000
C000
C000
C000
C000
C000
C000
C000
C000
ENDCHAR
STARTCHAR 0491
ENCODING 1169
SWIDTH 400 0
DWIDTH 10 0
BBX 8 17 2 0
BITMAP
03
03
03
03
FF
FF
C0
C0
C0
C0
C0
C0
C0
C0
C0
C0
C0
ENDCHAR
STARTCHAR 0492
ENCODING 1170
SWIDTH 520 0
DWIDTH 13 0
BBX 11 17 1 0
BITMAP
3FE0
3FE0
3000
3000
3000
3000
3000
3000
FF00
3000
3000
3000
3000
3000
3000
3000
3000
ENDCHAR
STARTCHAR 0493
ENCODING 1171
SWIDTH 440 0
DWIDTH 11 0
BBX 9 13 1 0
BITMAP
7F80
7F80
6000
6000
6000
6000
FE00
6000
6000
6000
6000
6000
6000
ENDCHAR
STARTCHAR 0496
ENCODING 1174
SWIDTH 840 0
DWIDTH 21 0
BBX 21 22 0 -5
BITMAP
E06070
7060F0
3860C0
186180
0C6180
0C6300
0C6300
07FE00
07FE00
0C6300
0C6300
186180
186180
3060C0
3060E0
606078
E06078
000030
000030
000030
000030
000030
ENDCHAR
STARTCHAR 0497
ENCODING 1175
SWIDTH 720 0
DWIDTH 18 0
BBX 16 17 1 -4
BITMAP
C106
E10E
711C
3118
3110
1FF0
1FF0
3118
3118
610C
610C
C107
C107
0003
0003
0003
0003
ENDCHAR
STARTCHAR 0498
ENCODING 1176
SWIDTH 560 0
DWIDTH 14 0
BBX 12 21 1 -4
BITMAP
1F80
7FC0
60E0
0060
0060
0060
00C0
0F80
0FC0
00E0
0070
0030
0030
4070
E060
7FC0
1F80
0600
0600
0600
0600
ENDCHAR
STARTCHAR 0499
ENCODING 1177
SWIDTH 440 0
DWIDTH 11 0
BBX 9 17 1 -4
BITMAP
3E00
FF00
0180
0180
0180
0F00
1F00
0380
0180
0180
0180
FF80
3E00
0C00
0800
0800
0800
ENDCHAR
STARTCHAR 049A
ENCODING 1178
SWIDTH 640 0
DWIDTH 16 0
BBX 13 22 2 -5
BITMAP
C070
C0F0
C0C0
C180
C180
C300
C300
FE00
FE00
C700
C300
C180
C1C0
C0C0
C060
C078
C038
0018
0018
0018
0018
0018
ENDCHAR
STARTCHAR 049B
ENCODING 1179
SWIDTH 520 0
DWIDTH 13 0
BBX 11 17 2 -4
BITMAP
C180
C380
C300
C600
C600
FC00
FC00
C600
C600
C300
C380
C1E0
C0E0
0060
0060
0060
0060
ENDCHAR
STARTCHAR 04A0
ENCODING 1184
SWIDTH 720 0
DWIDTH 18 0
BBX 17 17 1 0
BITMAP
FE0300
FE0700
060C00
060C00
061800
061800
063000
07F000
07F000
063000
063800
061800
060C00
060E00
060600
060300
060380
ENDCHAR
STARTCHAR 04A1
ENCODING 1185
SWIDTH 600 0
DWIDTH 15 0
BBX 14 13 1 0
BITMAP
FC18
FC38
0C30
0C60
0C60
0FC0
0FC0
0C60
0C60
0C30
0C38
0C18
0C1C
ENDCHAR
STARTCHAR 04A2
ENCODING 1186
SWIDTH 680 0
DWIDTH 17 0
BBX 14 22 2 -5
BITMAP
C030
C030
C030
C030
C030
C030
C030
FFF0
FFF0
C030
C030
C030
C030
C030
C030
C03C
C03C
000C
000C
000C
000C
000C
ENDCHAR
STARTCHAR 04A3
ENCODING 1187
SWIDTH 560 0
DWIDTH 14 0
BBX 12 17 2 -4
BITMAP
C0C0
C0C0
C0C0
C0C0
C0C0
FFC0
FFC0
C0C0
C0C0
C0C0
C0C0
C0F0
C0F0
0030
0030
0030
0030
ENDCHAR
STARTCHAR 04AA
ENCODING 1194
SWIDTH 560 0
DWIDTH 14 0
BBX 12 21 1 -4
BITMAP
07C0
1FF0
3830
3000
6000
6000
E000
E000
C000
E000
E000
6000
6000
7000
3830
1FF0
07C0
0300
0300
0300
0300
ENDCHAR
STARTCHAR 04AB
ENCODING 1195
SWIDTH 440 0
DWIDTH 11 0
BBX 10 17 1 -4
BITMAP
0F00
3FC0
7080
6000
E000
C000
C000
C000
E000
6000
7080
3FC0
1F00
0600
0600
0600
0600
ENDCHAR
STARTCHAR 04AE
ENCODING 1198
SWIDTH 480 0
DWIDTH 12 0
BBX 11 16 0 0
BITMAP
E060
6060
70E0
30C0
30C0
1980
1980
0F00
0F00
0600
0600
0600
0600
0600
0600
0600
ENDCHAR
STARTCHAR 04AF
ENCODING 1199
SWIDTH 480 0
DWIDTH 12 0
BBX 11 17 0 -4
BITMAP
E060
6060
60C0
30C0
30C0
3180
1980
1980
1B00
0F00
0F00
0600
0600
0600
0600
0600
0600
ENDCHAR
STARTCHAR 04B0
ENCODING 1200
SWIDTH 480 0
DWIDTH 12 0
BBX 12 16 0 0
BITMAP
E070
6060
60E0
30C0
30C0
1980
1980
0F00
0F00
7FC0
0600
0600
0600
0600
0600
0600
ENDCHAR
STARTCHAR 04B1
ENCODING 1201
SWIDTH 480 0
DWIDTH 12 0
BBX 10 17 1 -5
BITMAP
C0C0
C0C0
C180
6180
6180
6300
3300
3300
1600
1E00
1C00
FF80
0C00
0C00
0C00
0C00
0C00
ENDCHAR
STARTCHAR 04B2
ENCODING 1202
SWIDTH 560 0
DWIDTH 14 0
BBX 12 22 1 -5
BITMAP
C060
E0C0
60C0
3180
3180
1B00
1B00
0E00
0E00
1E00
1B00
3300
3180
6180
60C0
C0F0
C070
0030
0030
0030
0030
0030
ENDCHAR
STARTCHAR 04B3
ENCODING 1203
SWIDTH 480 0
DWIDTH 12 0
BBX 11 17 1 -4
BITMAP
C180
6180
6300
3300
3600
1C00
1C00
1C00
3600
6700
6300
C1E0
C1E0
0060
0040
0040
0040
ENDCHAR
STARTCHAR 04B6
ENCODING 1206
SWIDTH 600 0
DWIDTH 15 0
BBX 13 22 2 -5
BITMAP
C060
C060
C060
C060
C060
C060
C060
E060
7FE0
1F60
0060
0060
0060
0060
0060
0078
0078
0010
0010
0010
0010
0010
ENDCHAR
STARTCHAR 04B7
ENCODING 1207
SWIDTH 520 0
DWIDTH 13 0
BBX 12 17 1 -4
BITMAP
E0C0
E0C0
E0C0
E0C0
60C0
60C0
7FC0
1FC0
00C0
00C0
00C0
00F0
00F0
0020
0020
0020
0020
ENDCHAR
STARTCHAR 04BA
ENCODING 1210
SWIDTH 600 0
DWIDTH 15 0
BBX 11 17 2 0
BITMAP
C000
C000
C000
C000
C000
C000
DE00
FFC0
C0E0
C060
C060
C060
C060
C060
C060
C060
C060
ENDCHAR
STARTCHAR 04BB
ENCODING 1211
SWIDTH 560 0
DWIDTH 14 0
BBX 10 18 2 0
BITMAP
C000
C000
C000
C000
C000
CF00
DF80
E1C0
C0C0
C0C0
C0C0
C0C0
C0C0
C0C0
C0C0
C0C0
C0C0
C0C0
ENDCHAR
STARTCHAR 04C0
ENCODING 1216
SWIDTH 280 0
DWIDTH 7 0
BBX 2 17 2 0
BITMAP
C0
C0
C0
C0
C0
C0
C0
C0
C0
C0
C0
C0
C0
C0
C0
C0
C0
ENDCHAR
STARTCHAR 04C1
ENCODING 1217
SWIDTH 800 0
DWIDTH 20 0
BBX 20 21 0 0
BITMAP
030C00
019800
00F000
000000
E06070
7060F0
3860C0
186180
0C6180
0C6300
0C6300
07FE00
07FE00
0C6300
0C6300
186180
1861C0
3060C0
7060E0
606060
E06070
ENDCHAR
STARTCHAR 04C2
ENCODING 1218
SWIDTH 680 0
DWIDTH 17 0
BBX 15 18 1 1
BITMAP
0820
0C20
0C60
07C0
0000
0000
C106
E10E
711C
3118
3110
1FF0
1FF0
3118
3118
610C
610E
C106
ENDCHAR
STARTCHAR 04CF
ENCODING 1231
SWIDTH 240 0
DWIDTH 6 0
BBX 3 18 2 0
BITMAP
C0
C0
C0
C0
C0
C0
C0
C0
C0
C0
C0
C0
C0
C0
C0
C0
E0
60
ENDCHAR
STARTCHAR 04D0
ENCODING 1232
SWIDTH 560 0
DWIDTH 14 0
BBX 13 21 0 0
BITMAP
1840
0CC0
0780
0000
0700
0700
0580
0D80
0C80
0CC0
18C0
18C0
1860
1060
3FE0
3FF0
3030
6030
6018
6018
C018
ENDCHAR
STARTCHAR 04D1
ENCODING 1233
SWIDTH 520 0
DWIDTH 13 0
BBX 10 19 1 0
BITMAP
2080
3080
3180
1F00
0000
0000
1F00
7F80
6180
00C0
00C0
07C0
3CC0
60C0
40C0
C0C0
E1C0
7FC0
3CC0
ENDCHAR
STARTCHAR 04D4
ENCODING 1236
SWIDTH 840 0
DWIDTH 21 0
BBX 19 17 0 0
BITMAP
007FE0
00FFE0
00F000
01B000
01B000
033000
033000
063FC0
0E3FC0
0C3000
1FF000
1FF000
383000
303000
703000
603FE0
E03FE0
ENDCHAR
STARTCHAR 04D5
ENCODING 1237
SWIDTH 800 0
DWIDTH 20 0
BBX 18 13 1 0
BITMAP
1F1E00
7FBF00
61E180
00C080
00C0C0
0FC0C0
3CFFC0
70C000
60C000
C0C000
61E080
7F3F80
3C1F00
ENDCHAR
STARTCHAR 04D6
ENCODING 1238
SWIDTH 520 0
DWIDTH 13 0
BBX 10 21 2 0
BITMAP
6180
3300
1E00
0000
FFC0
FFC0
C000
C000
C000
C000
C000
FF80
FF80
C000
C000
C000
C000
C000
C000
FFC0
FFC0
ENDCHAR
STARTCHAR 04D7
ENCODING 1239
SWIDTH 480 0
DWIDTH 12 0
BBX 10 19 1 0
BITMAP
20C0
3080
3180
1F00
0000
0000
1F00
3F80
70C0
60C0
C040
C040
FFC0
C000
C000
6000
7000
3FC0
0F00
ENDCHAR
STARTCHAR 04D8
ENCODING 1240
SWIDTH 640 0
DWIDTH 16 0
BBX 14 17 1 0
BITMAP
0FC0
1FF0
3038
0018
001C
000C
000C
000C
FFFC
FFFC
600C
600C
601C
7018
3830
1FF0
07C0
ENDCHAR
STARTCHAR 04D9
ENCODING 1241
SWIDTH 480 0
DWIDTH 12 0
BBX 10 13 1 0
BITMAP
3E00
7F80
4180
00C0
00C0
00C0
FFC0
C0C0
C0C0
C0C0
6180
7F80
1E00
ENDCHAR
STARTCHAR 04E2
ENCODING 1250
SWIDTH 640 0
DWIDTH 16 0
BBX 12 20 2 0
BITMAP
1FC0
0000
0000
C030
C070
C070
C0F0
C1B0
C1B0
C330
C330
C630
C630
CC30
CC30
D830
D030
F030
E030
E030
ENDCHAR
STARTCHAR 04E3
ENCODING 1251
SWIDTH 560 0
DWIDTH 14 0
BBX 10 17 2 0
BITMAP
3F00
0000
0000
0000
C0C0
C1C0
C1C0
C3C0
C6C0
C6C0
CCC0
D8C0
D8C0
F0C0
E0C0
E0C0
C0C0
ENDCHAR
STARTCHAR 04E6
ENCODING 1254
SWIDTH 680 0
DWIDTH 17 0
BBX 14 20 1 0
BITMAP
0C60
0C60
0000
07C0
1FF0
3838
7018
601C
600C
E00C
C00C
C00C
E00C
E00C
600C
601C
7018
3838
1FF0
07C0
ENDCHAR
STARTCHAR 04E7
ENCODING 1255
SWIDTH 560 0
DWIDTH 14 0
BBX 11 17 1 0
BITMAP
3980
3180
0000
0000
0F00
3FC0
70C0
6060
E060
C060
C060
C060
E060
6060
70C0
3F80
1F00
ENDCHAR
STARTCHAR 04E8
ENCODING 1256
SWIDTH 680 0
DWIDTH 17 0
BBX 14 17 1 0
BITMAP
07C0
1FF0
3838
7018
601C
600C
E00C
FFFC
FFFC
C00C
E00C
600C
600C
7018
3838
1FF0
07C0
ENDCHAR
STARTCHAR 04E9
ENCODING 1257
SWIDTH 560 0
DWIDTH 14 0
BBX 11 13 1 0
BITMAP
1F00
3FC0
70C0
6060
C060
C060
FFE0
C060
C060
6060
70C0
3FC0
1F00
ENDCHAR
STARTCHAR 04EE
ENCODING 1262
SWIDTH 520 0
DWIDTH 13 0
BBX 13 20 0 0
BITMAP
1FC0
0000
0000
E018
6030
6030
3060
3060
1860
18C0
18C0
0CC0
0D80
0780
0700
0300
0700
0600
3E00
3800
ENDCHAR
STARTCHAR 04EF
ENCODING 1263
SWIDTH 480 0
DWIDTH 12 0
BBX 11 22 0 -5
BITMAP
1F80
0000
0000
0000
E060
6060
6060
30C0
30C0
30C0
1980
1980
0980
0D00
0F00
0700
0600
0600
0600
0C00
7800
7000
ENDCHAR
STARTCHAR 04F2
ENCODING 1266
SWIDTH 520 0
DWIDTH 13 0
BBX 13 22 0 0
BITMAP
0220
0660
0CC0
0880
0000
C018
6030
6030
3070
3060
3860
18C0
18C0
0CC0
0D80
0780
0700
0300
0700
0600
3E00
3800
ENDCHAR
STARTCHAR 04F3
ENCODING 1267
SWIDTH 480 0
DWIDTH 12 0
BBX 10 24 1 -5
BITMAP
0CC0
0C80
1980
1100
0100
0000
0000
C0C0
C0C0
C180
6180
6180
3300
3300
3300
1A00
1E00
0E00
0C00
0C00
0C00
1800
F000
E000
ENDCHAR
STARTCHAR 1D43
ENCODING 7491
SWIDTH 360 0
DWIDTH 9 0
BBX 6 8 1 10
BITMAP
78
CC
04
3C
64
84
CC
F4
ENDCHAR
STARTCHAR 1D47
ENCODING 7495
SWIDTH 360 0
DWIDTH 9 0
BBX 8 11 1 10
BITMAP
C0
C0
C0
DC
E6
C2
C3
C3
C2
C6
FC
ENDCHAR
STARTCHAR 1D48
ENCODING 7496
SWIDTH 360 0
DWIDTH 9 0
BBX 7 11 1 10
BITMAP
06
06
06
3A
66
C6
86
86
C6
C6
7A
ENDCHAR
STARTCHAR 1D49
ENCODING 7497
SWIDTH 320 0
DWIDTH 8 0
BBX 7 8 1 10
BITMAP
38
EC
86
FE
80
C0
E4
3C
ENDCHAR
STARTCHAR 1D4D
ENCODING 7501
SWIDTH 360 0
DWIDTH 9 0
BBX 7 12 1 6
BITMAP
7E
CC
C4
C4
CC
78
C0
7E
C6
82
C6
7C
ENDCHAR
STARTCHAR 1D4F
ENCODING 7503
SWIDTH 320 0
DWIDTH 8 0
BBX 7 12 1 10
BITMAP
C0
C0
C0
C0
C6
CC
D8
F0
F8
CC
C4
C6
ENDCHAR
STARTCHAR 1D50
ENCODING 7504
SWIDTH 560 0
DWIDTH 14 0
BBX 12 8 1 10
BITMAP
DCE0
E770
C630
C630
C630
C630
C630
C630
ENDCHAR
STARTCHAR 1D52
ENCODING 7506
SWIDTH 360 0
DWIDTH 9 0
BBX 7 8 1 10
BITMAP
38
6E
C6
82
82
C2
C6
7C
ENDCHAR
STARTCHAR 1D56
ENCODING 7510
SWIDTH 360 0
DWIDTH 9 0
BBX 8 12 1 6
BITMAP
DC
E6
C2
C3
C3
C2
C6
FC
C0
C0
C0
C0
ENDCHAR
STARTCHAR 1D57
ENCODING 7511
SWIDTH 240 0
DWIDTH 6 0
BBX 5 10 0 10
BITMAP
20
20
F8
20
20
20
20
20
20
38
ENDCHAR
STARTCHAR 1D58
ENCODING 7512
SWIDTH 360 0
DWIDTH 9 0
BBX 7 8 1 10
BITMAP
C6
C6
C6
C6
C6
C6
C6
7A
ENDCHAR
STARTCHAR 1D5B
ENCODING 7515
SWIDTH 320 0
DWIDTH 8 0
BBX 8 8 0 10
BITMAP
C3
42
62
66
24
34
3C
18
ENDCHAR
STARTCHAR 1D9C
ENCODING 7580
SWIDTH 320 0
DWIDTH 8 0
BBX 6 8 1 10
BITMAP
3C
64
C0
80
80
C0
C4
7C
ENDCHAR
STARTCHAR 1DA0
ENCODING 7584
SWIDTH 200 0
DWIDTH 5 0
BBX 5 12 0 10
BITMAP
18
30
20
20
F8
20
20
20
20
20
20
20
ENDCHAR
STARTCHAR 1DBB
ENCODING 7611
SWIDTH 280 0
DWIDTH 7 0
BBX 6 8 1 10
BITMAP
FC
08
18
30
60
40
C0
FC
ENDCHAR
STARTCHAR 1E06
ENCODING 7686
SWIDTH 600 0
DWIDTH 15 0
BBX 12 21 2 -4
BITMAP
FF00
FFC0
C0C0
C060
C060
C060
C0C0
FF80
FFC0
C0E0
C060
C030
C030
C070
C060
FFC0
FF80
0000
0000
0000
3F80
ENDCHAR
STARTCHAR 1E07
ENCODING 7687
SWIDTH 560 0
DWIDTH 14 0
BBX 11 22 2 -4
BITMAP
C000
C000
C000
C000
C000
CF00
FF80
E1C0
C0C0
C0E0
C060
C060
C0E0
C0C0
C0C0
E1C0
FF80
DF00
0000
0000
0000
3F00
ENDCHAR
STARTCHAR 1E0C
ENCODING 7692
SWIDTH 600 0
DWIDTH 15 0
BBX 12 22 2 -5
BITMAP
FF00
FF80
C1C0
C060
C070
C030
C030
C030
C030
C030
C030
C030
C060
C060
C1C0
FF80
FE00
0000
0000
0400
0E00
0600
ENDCHAR
STARTCHAR 1E0D
ENCODING 7693
SWIDTH 560 0
DWIDTH 14 0
BBX 11 23 1 -5
BITMAP
0060
0060
0060
0060
0060
1F60
3FE0
70E0
6060
E060
C060
C060
C060
E060
6060
70E0
3FE0
1E60
0000
0000
0200
0700
0700
ENDCHAR
STARTCHAR 1E0E
ENCODING 7694
SWIDTH 600 0
DWIDTH 15 0
BBX 12 21 2 -4
BITMAP
FF00
FF80
C1C0
C060
C070
C030
C030
C030
C030
C030
C030
C030
C060
C060
C1C0
FF80
FE00
0000
0000
0000
3F80
ENDCHAR
STARTCHAR 1E0F
ENCODING 7695
SWIDTH 560 0
DWIDTH 14 0
BBX 11 22 1 -4
BITMAP
0060
0060
0060
0060
0060
1F60
3FE0
70E0
6060
E060
C060
C060
C060
E060
6060
70E0
3FE0
1E60
0000
0000
0000
1FC0
ENDCHAR
STARTCHAR 1E16
ENCODING 7702
SWIDTH 520 0
DWIDTH 13 0
BBX 10 25 2 0
BITMAP
0200
0700
0C00
0800
0000
3F00
0000
0000
FFC0
FFC0
C000
C000
C000
C000
C000
FF80
FF80
C000
C000
C000
C000
C000
C000
FFC0
FFC0
ENDCHAR
STARTCHAR 1E17
ENCODING 7703
SWIDTH 480 0
DWIDTH 12 0
BBX 10 21 1 1
BITMAP
0300
0E00
0800
0000
3F80
0000
0000
0000
1F00
3F80
70C0
60C0
C040
C040
FFC0
C000
C000
6000
7000
3FC0
0F00
ENDCHAR
STARTCHAR 1E20
ENCODING 7712
SWIDTH 600 0
DWIDTH 15 0
BBX 13 20 1 0
BITMAP
0FE0
0000
0000
07C0
1FF0
3830
3000
6000
6000
E000
E000
C1F8
E1F8
E018
6018
6018
7018
3838
1FF0
07C0
ENDCHAR
STARTCHAR 1E21
ENCODING 7713
SWIDTH 520 0
DWIDTH 13 0
BBX 11 22 1 -5
BITMAP
3F80
0000
0000
0000
1FE0
3FE0
6180
60C0
60C0
60C0
6180
3B80
3E00
6000
6000
7F80
3FE0
6060
C060
C060
E0C0
7F80
ENDCHAR
STARTCHAR 1E24
ENCODING 7716
SWIDTH 640 0
DWIDTH 16 0
BBX 12 22 2 -5
BITMAP
C030
C030
C030
C030
C030
C030
C030
FFF0
FFF0
C030
C030
C030
C030
C030
C030
C030
C030
0000
0000
0200
0600
0600
ENDCHAR
STARTCHAR 1E25
ENCODING 7717
SWIDTH 560 0
DWIDTH 14 0
BBX 10 23 2 -5
BITMAP
C000
C000
C000
C000
C000
CF00
DF80
E1C0
C0C0
C0C0
C0C0
C0C0
C0C0
C0C0
C0C0
C0C0
C0C0
C0C0
0000
0000
0400
0C00
0C00
ENDCHAR
STARTCHAR 1E2A
ENCODING 7722
SWIDTH 640 0
DWIDTH 16 0
BBX 12 23 2 -6
BITMAP
C030
C030
C030
C030
C030
C030
C030
FFF0
FFF0
C030
C030
C030
C030
C030
C030
C030
C030
0000
0000
3040
30C0
1D80
0F00
ENDCHAR
STARTCHAR 1E2B
ENCODING 7723
SWIDTH 560 0
DWIDTH 14 0
BBX 10 24 2 -6
BITMAP
C000
C000
C000
C000
C000
CF00
DF80
E1C0
C0C0
C0C0
C0C0
C0C0
C0C0
C0C0
C0C0
C0C0
C0C0
C0C0
0000
0000
6080
6180
3B00
1E00
ENDCHAR
STARTCHAR 1E32
ENCODING 7730
SWIDTH 560 0
DWIDTH 14 0
BBX 12 22 2 -5
BITMAP
C060
C0C0
C1C0
C380
C300
C600
CC00
DE00
FF00
F300
E380
C180
C0C0
C0C0
C060
C070
C030
0000
0000
0200
0700
0600
ENDCHAR
STARTCHAR 1E33
ENCODING 7731
SWIDTH 480 0
DWIDTH 12 0
BBX 10 23 2 -5
BITMAP
C000
C000
C000
C000
C000
C180
C300
C700
C600
CC00
DC00
FC00
F600
E600
C300
C380
C180
C0C0
0000
0000
0800
1C00
0C00
ENDCHAR
STARTCHAR 1E34
ENCODING 7732
SWIDTH 560 0
DWIDTH 14 0
BBX 12 21 2 -4
BITMAP
C060
C0C0
C1C0
C380
C300
C600
CC00
DE00
FF00
F300
E380
C180
C0C0
C0C0
C060
C070
C030
0000
0000
0000
1F80
ENDCHAR
STARTCHAR 1E35
ENCODING 7733
SWIDTH 480 0
DWIDTH 12 0
BBX 10 22 2 -4
BITMAP
C000
C000
C000
C000
C000
C180
C300
C700
C600
CC00
DC00
FC00
F600
E600
C300
C380
C180
C0C0
0000
0000
0000
7F00
ENDCHAR
STARTCHAR 1E36
ENCODING 7734
SWIDTH 480 0
DWIDTH 12 0
BBX 9 22 2 -5
BITMAP
C000
C000
C000
C000
C000
C000
C000
C000
C000
C000
C000
C000
C000
C000
C000
FF80
FF80
0000
0000
0400
0E00
0C00
ENDCHAR
STARTCHAR 1E37
ENCODING 7735
SWIDTH 240 0
DWIDTH 6 0
BBX 3 23 2 -5
BITMAP
C0
C0
C0
C0
C0
C0
C0
C0
C0
C0
C0
C0
C0
C0
C0
C0
E0
60
00
00
00
60
60
ENDCHAR
STARTCHAR 1E38
ENCODING 7736
SWIDTH 480 0
DWIDTH 12 0
BBX 11 25 0 -5
BITMAP
FE00
0000
0000
3000
3000
3000
3000
3000
3000
3000
3000
3000
3000
3000
3000
3000
3000
3000
3FE0
3FE0
0000
0000
0100
0380
0300
ENDCHAR
STARTCHAR 1E39
ENCODING 7737
SWIDTH 240 0
DWIDTH 6 0
BBX 6 27 0 -5
BITMAP
FC
00
00
00
30
30
30
30
30
30
30
30
30
30
30
30
30
30
30
30
38
18
00
00
00
18
18
ENDCHAR
STARTCHAR 1E3A
ENCODING 7738
SWIDTH 480 0
DWIDTH 12 0
BBX 9 21 2 -4
BITMAP
C000
C000
C000
C000
C000
C000
C000
C000
C000
C000
C000
C000
C000
C000
C000
FF80
FF80
0000
0000
0000
3F80
ENDCHAR
STARTCHAR 1E3B
ENCODING 7739
SWIDTH 240 0
DWIDTH 6 0
BBX 6 22 1 -4
BITMAP
60
60
60
60
60
60
60
60
60
60
60
60
60
60
60
60
70
30
00
00
00
FC
ENDCHAR
STARTCHAR 1E3E
ENCODING 7742
SWIDTH 720 0
DWIDTH 18 0
BBX 14 22 2 0
BITMAP
00C0
01C0
0380
0200
0000
E01C
E01C
F01C
F03C
D02C
D86C
D86C
C84C
CCCC
CCCC
C48C
C78C
C78C
C30C
C30C
C00C
C00C
ENDCHAR
STARTCHAR 1E3F
ENCODING 7743
SWIDTH 840 0
DWIDTH 21 0
BBX 17 20 2 0
BITMAP
002000
007000
00E000
018000
000000
000000
000000
CF1E00
DFBF00
E1E380
C1C180
C18180
C18180
C18180
C18180
C18180
C18180
C18180
C18180
C18180
ENDCHAR
STARTCHAR 1E40
ENCODING 7744
SWIDTH 720 0
DWIDTH 18 0
BBX 14 21 2 0
BITMAP
0300
0300
0100
0000
E01C
E01C
F01C
F03C
D02C
D86C
D86C
C84C
CCCC
CCCC
C48C
C78C
C78C
C30C
C30C
C00C
C00C
ENDCHAR
STARTCHAR 1E41
ENCODING 7745
SWIDTH 840 0
DWIDTH 21 0
BBX 17 18 2 0
BITMAP
01C000
01C000
008000
000000
000000
CF1E00
DFBF00
E1E380
C1C180
C18180
C18180
C18180
C18180
C18180
C18180
C18180
C18180
C18180
ENDCHAR
STARTCHAR 1E42
ENCODING 7746
SWIDTH 720 0
DWIDTH 18 0
BBX 14 22 2 -5
BITMAP
E01C
E01C
F01C
F03C
D02C
D86C
D86C
C84C
CCCC
CCCC
C48C
C78C
C78C
C30C
C30C
C00C
C00C
0000
0000
0100
0300
0300
ENDCHAR
STARTCHAR 1E43
ENCODING 7747
SWIDTH 840 0
DWIDTH 21 0
BBX 17 18 2 -5
BITMAP
CF1E00
DFBF00
E1E380
C1C180
C18180
C18180
C18180
C18180
C18180
C18180
C18180
C18180
C18180
000000
000000
008000
01C000
00C000
ENDCHAR
STARTCHAR 1E44
ENCODING 7748
SWIDTH 640 0
DWIDTH 16 0
BBX 12 21 2 0
BITMAP
0600
0700
0200
0000
E030
E030
F030
F030
D830
D830
CC30
CE30
C630
C330
C330
C1B0
C1B0
C0F0
C0F0
C070
C070
ENDCHAR
STARTCHAR 1E45
ENCODING 7749
SWIDTH 560 0
DWIDTH 14 0
BBX 10 18 2 0
BITMAP
0C00
0E00
0400
0000
0000
CF00
DF80
E1C0
C0C0
C0C0
C0C0
C0C0
C0C0
C0C0
C0C0
C0C0
C0C0
C0C0
ENDCHAR
STARTCHAR 1E46
ENCODING 7750
SWIDTH 640 0
DWIDTH 16 0
BBX 12 22 2 -5
BITMAP
E030
E030
F030
F030
D830
D830
CC30
CE30
C630
C330
C330
C1B0
C1B0
C0F0
C0F0
C070
C070
0000
0000
0200
0700
0600
ENDCHAR
STARTCHAR 1E47
ENCODING 7751
SWIDTH 560 0
DWIDTH 14 0
BBX 10 18 2 -5
BITMAP
CF00
DF80
E1C0
C0C0
C0C0
C0C0
C0C0
C0C0
C0C0
C0C0
C0C0
C0C0
C0C0
0000
0000
0000
0C00
0C00
ENDCHAR
STARTCHAR 1E48
ENCODING 7752
SWIDTH 640 0
DWIDTH 16 0
BBX 12 21 2 -4
BITMAP
E030
E030
F030
F030
D830
D830
CC30
CE30
C630
C330
C330
C1B0
C1B0
C0F0
C0F0
C070
C070
0000
0000
0000
1FC0
ENDCHAR
STARTCHAR 1E49
ENCODING 7753
SWIDTH 560 0
DWIDTH 14 0
BBX 10 17 2 -4
BITMAP
CF00
DF80
E1C0
C0C0
C0C0
C0C0
C0C0
C0C0
C0C0
C0C0
C0C0
C0C0
C0C0
0000
0000
0000
3F00
ENDCHAR
STARTCHAR 1E52
ENCODING 7762
SWIDTH 680 0
DWIDTH 17 0
BBX 14 24 1 0
BITMAP
00C0
0180
0300
0000
0FE0
0000
0000
07C0
1FF0
3838
7018
601C
600C
E00C
C00C
C00C
E00C
E00C
600C
601C
7018
3838
1FF0
07C0
ENDCHAR
STARTCHAR 1E53
ENCODING 7763
SWIDTH 560 0
DWIDTH 14 0
BBX 11 22 1 0
BITMAP
0100
0300
0600
0000
0000
3F80
0000
0000
0000
0F00
3FC0
70C0
6060
E060
C060
C060
C060
E060
6060
70C0
3F80
1F00
ENDCHAR
STARTCHAR 1E58
ENCODING 7768
SWIDTH 560 0
DWIDTH 14 0
BBX 11 21 2 0
BITMAP
0C00
0E00
0400
0000
FF80
FFC0
C0E0
C060
C060
C060
C060
C0C0
FF80
FE00
C300
C380
C180
C1C0
C0C0
C0E0
C060
ENDCHAR
STARTCHAR 1E59
ENCODING 7769
SWIDTH 360 0
DWIDTH 9 0
BBX 7 18 2 0
BITMAP
30
38
10
00
00
CE
DC
F0
E0
C0
C0
C0
C0
C0
C0
C0
C0
C0
ENDCHAR
STARTCHAR 1E5A
ENCODING 7770
SWIDTH 560 0
DWIDTH 14 0
BBX 11 22 2 -5
BITMAP
FF80
FFC0
C0E0
C060
C060
C060
C060
C0C0
FF80
FE00
C300
C380
C180
C1C0
C0C0
C0E0
C060
0000
0000
0400
0E00
0600
ENDCHAR
STARTCHAR 1E5B
ENCODING 7771
SWIDTH 360 0
DWIDTH 9 0
BBX 7 18 2 -5
BITMAP
CE
DC
F0
E0
C0
C0
C0
C0
C0
C0
C0
C0
C0
00
00
40
C0
C0
ENDCHAR
STARTCHAR 1E5C
ENCODING 7772
SWIDTH 560 0
DWIDTH 14 0
BBX 11 25 2 -5
BITMAP
3F80
0000
0000
FF80
FFC0
C0E0
C060
C060
C060
C060
C0C0
FF80
FE00
C300
C380
C180
C1C0
C0C0
C0E0
C060
0000
0000
0400
0E00
0600
ENDCHAR
STARTCHAR 1E5D
ENCODING 7773
SWIDTH 360 0
DWIDTH 9 0
BBX 7 22 2 -5
BITMAP
FE
00
00
00
CE
DC
F0
E0
C0
C0
C0
C0
C0
C0
C0
C0
C0
00
00
40
C0
C0
ENDCHAR
STARTCHAR 1E5E
ENCODING 7774
SWIDTH 560 0
DWIDTH 14 0
BBX 11 21 2 -4
BITMAP
FF80
FFC0
C0E0
C060
C060
C060
C060
C0C0
FF80
FE00
C300
C380
C180
C1C0
C0C0
C0E0
C060
0000
0000
0000
3F80
ENDCHAR
STARTCHAR 1E5F
ENCODING 7775
SWIDTH 360 0
DWIDTH 9 0
BBX 9 17 0 -4
BITMAP
3380
3700
3C00
3800
3000
3000
3000
3000
3000
3000
3000
3000
3000
0000
0000
0000
FC00
ENDCHAR
STARTCHAR 1E60
ENCODING 7776
SWIDTH 520 0
DWIDTH 13 0
BBX 11 20 1 1
BITMAP
0600
0600
0000
0F80
3FC0
7040
6000
6000
6000
7800
3E00
0F80
03C0
00E0
0060
0060
4060
E0E0
7FC0
1F00
ENDCHAR
STARTCHAR 1E61
ENCODING 7777
SWIDTH 400 0
DWIDTH 10 0
BBX 9 18 1 0
BITMAP
1C00
1C00
0800
0000
0000
3E00
7F00
E000
C000
E000
7800
3E00
0700
0380
0180
C300
FF00
3E00
ENDCHAR
STARTCHAR 1E62
ENCODING 7778
SWIDTH 520 0
DWIDTH 13 0
BBX 11 22 1 -5
BITMAP
0F80
3FC0
7040
6000
6000
6000
7800
3E00
0F80
03C0
00E0
0060
0060
4060
E0E0
7FC0
1F00
0000
0000
0400
0E00
0600
ENDCHAR
STARTCHAR 1E63
ENCODING 7779
SWIDTH 400 0
DWIDTH 10 0
BBX 9 18 1 -5
BITMAP
3E00
7F00
E000
C000
E000
7800
3E00
0700
0380
0180
C300
FF00
3E00
0000
0000
0800
1C00
0C00
ENDCHAR
STARTCHAR 1E6C
ENCODING 7788
SWIDTH 520 0
DWIDTH 13 0
BBX 12 22 1 -5
BITMAP
FFF0
FFF0
0600
0600
0600
0600
0600
0600
0600
0600
0600
0600
0600
0600
0600
0600
0600
0000
0000
0400
0E00
0600
ENDCHAR
STARTCHAR 1E6D
ENCODING 7789
SWIDTH 320 0
DWIDTH 8 0
BBX 7 21 1 -5
BITMAP
20
20
20
FE
FE
60
60
60
60
60
60
60
70
30
3E
1E
00
00
08
1C
18
ENDCHAR
STARTCHAR 1E6E
ENCODING 7790
SWIDTH 520 0
DWIDTH 13 0
BBX 12 21 1 -4
BITMAP
FFF0
FFF0
0600
0600
0600
0600
0600
0600
0600
0600
0600
0600
0600
0600
0600
0600
0600
0000
0000
0000
3F80
ENDCHAR
STARTCHAR 1E6F
ENCODING 7791
SWIDTH 320 0
DWIDTH 8 0
BBX 8 20 1 -4
BITMAP
20
20
20
FE
FE
60
60
60
60
60
60
60
70
30
3E
1E
00
00
00
7F
ENDCHAR
STARTCHAR 1E80
ENCODING 7808
SWIDTH 800 0
DWIDTH 20 0
BBX 18 22 1 0
BITMAP
020000
038000
01C000
004000
000000
C0C0C0
C0C0C0
C1C0C0
C1E180
E16180
616180
632180
633180
633300
323300
361300
361B00
361B00
341A00
140E00
1C0E00
1C0E00
ENDCHAR
STARTCHAR 1E81
ENCODING 7809
SWIDTH 720 0
DWIDTH 18 0
BBX 16 20 1 0
BITMAP
0600
0600
0300
0180
0080
0000
0000
C183
C183
C3C3
E3C2
6246
6246
6666
2664
346C
342C
343C
1C38
1838
ENDCHAR
STARTCHAR 1E82
ENCODING 7810
SWIDTH 800 0
DWIDTH 20 0
BBX 18 22 1 0
BITMAP
003000
007000
00C000
008000
000000
C0C0C0
C0C0C0
C1C0C0
C1E180
E16180
616180
632180
633180
633300
323300
361300
361B00
361B00
341A00
140E00
1C0E00
1C0E00
ENDCHAR
STARTCHAR 1E83
ENCODING 7811
SWIDTH 720 0
DWIDTH 18 0
BBX 16 20 1 0
BITMAP
0060
0060
00C0
0180
0100
0000
0000
C183
C183
C3C3
E3C2
6246
6246
6666
2664
346C
342C
343C
1C38
1838
ENDCHAR
STARTCHAR 1E84
ENCODING 7812
SWIDTH 800 0
DWIDTH 20 0
BBX 18 21 1 0
BITMAP
063000
063800
000000
000000
C0C0C0
C0C0C0
C1C0C0
C1E180
E16180
616180
632180
633180
633300
323300
361300
361B00
361B00
341A00
140E00
1C0E00
1C0E00
ENDCHAR
STARTCHAR 1E85
ENCODING 7813
SWIDTH 720 0
DWIDTH 18 0
BBX 16 18 1 0
BITMAP
0660
0E70
0000
0000
0000
C183
C183
C3C3
E3C2
6246
6246
6666
2664
346C
342C
343C
1C38
1838
ENDCHAR
STARTCHAR 1E8E
ENCODING 7822
SWIDTH 480 0
DWIDTH 12 0
BBX 12 21 0 0
BITMAP
0600
0600
0400
0000
C030
6060
6060
30C0
30C0
1980
1980
1F00
0F00
0E00
0600
0600
0600
0600
0600
0600
0600
ENDCHAR
STARTCHAR 1E8F
ENCODING 7823
SWIDTH 480 0
DWIDTH 12 0
BBX 11 23 0 -5
BITMAP
0600
0600
0200
0000
0000
E060
6060
6060
30C0
30C0
30C0
1980
1980
0980
0D00
0F00
0700
0600
0600
0600
0C00
7800
7000
ENDCHAR
STARTCHAR 1E92
ENCODING 7826
SWIDTH 520 0
DWIDTH 13 0
BBX 11 22 1 -5
BITMAP
7FE0
7FE0
00E0
00C0
0180
0380
0300
0600
0600
0C00
1C00
1800
3000
7000
6000
FFE0
FFE0
0000
0000
0200
0600
0600
ENDCHAR
STARTCHAR 1E93
ENCODING 7827
SWIDTH 440 0
DWIDTH 11 0
BBX 9 18 1 -5
BITMAP
FF80
FF80
0300
0600
0E00
0C00
1800
1800
3000
7000
6000
FF80
FF80
0000
0000
0800
1C00
0C00
ENDCHAR
STARTCHAR 1E94
ENCODING 7828
SWIDTH 520 0
DWIDTH 13 0
BBX 11 21 1 -4
BITMAP
7FE0
7FE0
00E0
00C0
0180
0380
0300
0600
0600
0C00
1C00
1800
3000
7000
6000
FFE0
FFE0
0000
0000
0000
1F80
ENDCHAR
STARTCHAR 1E95
ENCODING 7829
SWIDTH 440 0
DWIDTH 11 0
BBX 9 17 1 -4
BITMAP
FF80
FF80
0300
0600
0E00
0C00
1800
1800
3000
7000
6000
FF80
FF80
0000
0000
0000
7F00
ENDCHAR
STARTCHAR 1E96
ENCODING 7830
SWIDTH 560 0
DWIDTH 14 0
BBX 10 22 2 -4
BITMAP
C000
C000
C000
C000
C000
CF00
DF80
E1C0
C0C0
C0C0
C0C0
C0C0
C0C0
C0C0
C0C0
C0C0
C0C0
C0C0
0000
0000
0000
3F00
ENDCHAR
STARTCHAR 1E97
ENCODING 7831
SWIDTH 320 0
DWIDTH 8 0
BBX 8 21 0 0
BITMAP
C6
C6
00
00
00
10
10
10
7F
7F
30
30
30
30
30
30
30
38
18
1F
0F
ENDCHAR
STARTCHAR 1E9E
ENCODING 7838
SWIDTH 680 0
DWIDTH 17 0
BBX 14 17 2 0
BITMAP
0F80
3FE0
7060
6030
E070
C0E0
C0C0
C180
C1E0
C0F8
C038
C01C
C01C
C018
C418
C7F0
C3E0
ENDCHAR
STARTCHAR 1EA0
ENCODING 7840
SWIDTH 560 0
DWIDTH 14 0
BBX 13 22 0 -5
BITMAP
0700
0700
0580
0D80
0C80
0CC0
18C0
18C0
1860
1060
3FE0
3FF0
3030
6030
6018
6018
C018
0000
0000
0200
0700
0300
ENDCHAR
STARTCHAR 1EA1
ENCODING 7841
SWIDTH 520 0
DWIDTH 13 0
BBX 10 18 1 -5
BITMAP
1F00
7F80
6180
00C0
00C0
07C0
3CC0
60C0
40C0
C0C0
E1C0
7FC0
3CC0
0000
0000
0400
0C00
0C00
ENDCHAR
STARTCHAR 1EA2
ENCODING 7842
SWIDTH 560 0
DWIDTH 14 0
BBX 13 22 0 0
BITMAP
0700
0180
0180
0300
0000
0700
0700
0580
0D80
0C80
0CC0
18C0
18C0
1860
3060
3FE0
3FF0
7030
6030
6018
E018
C018
ENDCHAR
STARTCHAR 1EA3
ENCODING 7843
SWIDTH 520 0
DWIDTH 13 0
BBX 10 19 1 0
BITMAP
0E00
0300
0200
0600
0000
0000
1F00
7F80
4180
00C0
00C0
0FC0
3CC0
60C0
C0C0
C0C0
E1C0
7FC0
3CC0
ENDCHAR
STARTCHAR 1EA4
ENCODING 7844
SWIDTH 560 0
DWIDTH 14 0
BBX 13 23 0 0
BITMAP
0010
0030
0760
0D80
0840
0000
0700
0700
0580
0D80
0C80
0CC0
18C0
18C0
1860
1060
3FE0
3FF0
3030
6030
6018
6018
C018
ENDCHAR
STARTCHAR 1EA5
ENCODING 7845
SWIDTH 520 0
DWIDTH 13 0
BBX 11 20 1 0
BITMAP
0020
0060
0EC0
1B00
3180
0000
0000
1F00
7F80
6180
00C0
00C0
07C0
3CC0
60C0
40C0
C0C0
E1C0
7FC0
3CC0
ENDCHAR
STARTCHAR 1EA6
ENCODING 7846
SWIDTH 560 0
DWIDTH 14 0
BBX 13 23 0 0
BITMAP
2000
3000
1700
0D80
0840
0000
0700
0700
0580
0D80
0C80
0CC0
18C0
18C0
1860
1060
3FE0
3FF0
3030
6030
6018
6018
C018
ENDCHAR
STARTCHAR 1EA7
ENCODING 7847
SWIDTH 520 0
DWIDTH 13 0
BBX 10 20 1 0
BITMAP
8000
C000
6E00
1B00
3180
0000
0000
1F00
7F80
6180
00C0
00C0
07C0
3CC0
60C0
40C0
C0C0
E1C0
7FC0
3CC0
ENDCHAR
STARTCHAR 1EA8
ENCODING 7848
SWIDTH 560 0
DWIDTH 14 0
BBX 13 23 0 0
BITMAP
0060
0030
0730
0D80
0840
0000
0700
0700
0580
0D80
0C80
0CC0
18C0
18C0
1860
3060
3FE0
3FF0
7030
6030
6018
E018
C018
ENDCHAR
STARTCHAR 1EA9
ENCODING 7849
SWIDTH 520 0
DWIDTH 13 0
BBX 11 20 1 0
BITMAP
00C0
0060
0E40
1B80
3180
0000
0000
1F00
7F80
4180
00C0
00C0
0FC0
3CC0
60C0
C0C0
C0C0
E1C0
7FC0
3CC0
ENDCHAR
STARTCHAR 1EAA
ENCODING 7850
SWIDTH 560 0
DWIDTH 14 0
BBX 13 24 0 0
BITMAP
0E40
1BC0
0000
0700
0D80
0840
0000
0700
0700
0580
0D80
0C80
0CC0
18C0
18C0
1860
1060
3FE0
3FF0
3030
6030
6018
6018
C018
ENDCHAR
STARTCHAR 1EAB
ENCODING 7851
SWIDTH 520 0
DWIDTH 13 0
BBX 10 20 1 0
BITMAP
1C80
2700
0000
0E00
1B80
0000
0000
1F00
7F80
6180
00C0
00C0
07C0
3CC0
60C0
40C0
C0C0
E1C0
7FC0
3CC0
ENDCHAR
STARTCHAR 1EAC
ENCODING 7852
SWIDTH 560 0
DWIDTH 14 0
BBX 13 26 0 -5
BITMAP
0700
0D80
1840
0000
0700
0700
0580
0D80
0C80
0CC0
18C0
18C0
1860
1060
3FE0
3FF0
3030
6030
6018
6018
C018
0000
0000
0200
0700
0300
ENDCHAR
STARTCHAR 1EAD
ENCODING 7853
SWIDTH 520 0
DWIDTH 13 0
BBX 10 24 1 -5
BITMAP
0E00
1F00
3180
2080
0000
0000
1F00
7F80
6180
00C0
00C0
07C0
3CC0
60C0
40C0
C0C0
E1C0
7FC0
3CC0
0000
0000
0400
0C00
0C00
ENDCHAR
STARTCHAR 1EAE
ENCODING 7854
SWIDTH 560 0
DWIDTH 14 0
BBX 13 24 0 0
BITMAP
0080
0180
0300
1840
0CC0
0780
0000
0700
0700
0580
0D80
0C80
0CC0
18C0
18C0
1860
1060
3FE0
3FF0
3030
6030
6018
6018
C018
ENDCHAR
STARTCHAR 1EAF
ENCODING 7855
SWIDTH 520 0
DWIDTH 13 0
BBX 10 21 1 0
BITMAP
0200
0300
0600
2480
3180
1F00
0000
0000
1F00
7F80
6180
00C0
00C0
07C0
3CC0
60C0
40C0
C0C0
E1C0
7FC0
3CC0
ENDCHAR
STARTCHAR 1EB0
ENCODING 7856
SWIDTH 560 0
DWIDTH 14 0
BBX 13 24 0 0
BITMAP
0C00
0600
0200
1840
0CC0
0780
0000
0700
0700
0580
0D80
0C80
0CC0
18C0
18C0
1860
1060
3FE0
3FF0
3030
6030
6018
6018
C018
ENDCHAR
STARTCHAR 1EB1
ENCODING 7857
SWIDTH 520 0
DWIDTH 13 0
BBX 10 21 1 0
BITMAP
0800
1800
0C00
2480
3180
1F00
0000
0000
1F00
7F80
6180
00C0
00C0
07C0
3CC0
60C0
40C0
C0C0
E1C0
7FC0
3CC0
ENDCHAR
STARTCHAR 1EB2
ENCODING 7858
SWIDTH 560 0
DWIDTH 14 0
BBX 13 24 0 0
BITMAP
0700
0100
0100
1A40
0CC0
0780
0000
0700
0700
0580
0D80
0C80
0CC0
18C0
18C0
1860
3060
3FE0
3FF0
7030
6030
6018
E018
C018
ENDCHAR
STARTCHAR 1EB3
ENCODING 7859
SWIDTH 520 0
DWIDTH 13 0
BBX 10 22 1 0
BITMAP
0C00
0600
0200
2680
2080
3180
1F00
0000
0000
1F00
7F80
4180
00C0
00C0
0FC0
3CC0
60C0
C0C0
C0C0
E1C0
7FC0
3CC0
ENDCHAR
STARTCHAR 1EB4
ENCODING 7860
SWIDTH 560 0
DWIDTH 14 0
BBX 13 24 0 0
BITMAP
0E40
13C0
0000
1840
08C0
0780
0000
0700
0700
0580
0D80
0C80
0CC0
18C0
18C0
1860
1060
3FE0
3FF0
3030
6030
6018
6018
C018
ENDCHAR
STARTCHAR 1EB5
ENCODING 7861
SWIDTH 520 0
DWIDTH 13 0
BBX 10 20 1 0
BITMAP
1C80
2700
0000
3180
1F00
0000
0000
1F00
7F80
6180
00C0
00C0
07C0
3CC0
60C0
40C0
C0C0
E1C0
7FC0
3CC0
ENDCHAR
STARTCHAR 1EB6
ENCODING 7862
SWIDTH 560 0
DWIDTH 14 0
BBX 13 26 0 -5
BITMAP
1840
0CC0
0780
0000
0700
0700
0580
0D80
0C80
0CC0
18C0
18C0
1860
1060
3FE0
3FF0
3030
6030
6018
6018
C018
0000
0000
0200
0700
0300
ENDCHAR
STARTCHAR 1EB7
ENCODING 7863
SWIDTH 520 0
DWIDTH 13 0
BBX 10 23 1 -5
BITMAP
2080
3180
1F00
0000
0000
1F00
7F80
6180
00C0
00C0
07C0
3CC0
60C0
40C0
C0C0
E1C0
7FC0
3CC0
0000
0000
0400
0C00
0C00
ENDCHAR
STARTCHAR 1EB8
ENCODING 7864
SWIDTH 520 0
DWIDTH 13 0
BBX 10 22 2 -5
BITMAP
FFC0
FFC0
C000
C000
C000
C000
C000
FF80
FF80
C000
C000
C000
C000
C000
C000
FFC0
FFC0
0000
0000
0400
0E00
0C00
ENDCHAR
STARTCHAR 1EB9
ENCODING 7865
SWIDTH 480 0
DWIDTH 12 0
BBX 10 18 1 -5
BITMAP
1F00
3F80
70C0
60C0
C040
C040
FFC0
C000
C000
6000
7000
3FC0
0F00
0000
0000
0400
0E00
0600
ENDCHAR
STARTCHAR 1EBA
ENCODING 7866
SWIDTH 520 0
DWIDTH 13 0
BBX 10 22 2 0
BITMAP
1C00
0600
0600
0C00
0000
FFC0
FFC0
C000
C000
C000
C000
C000
FF80
FF80
C000
C000
C000
C000
C000
C000
FFC0
FFC0
ENDCHAR
STARTCHAR 1EBB
ENCODING 7867
SWIDTH 480 0
DWIDTH 12 0
BBX 10 19 1 0
BITMAP
0E00
0300
0300
0600
0000
0000
1F00
3F80
70C0
60C0
C040
C040
FFC0
C000
C000
6000
7000
3FC0
0F00
ENDCHAR
STARTCHAR 1EBC
ENCODING 7868
SWIDTH 520 0
DWIDTH 13 0
BBX 10 21 2 1
BITMAP
7880
4F80
4700
0000
FFC0
FFC0
C000
C000
C000
C000
C000
FF80
FF80
C000
C000
C000
C000
C000
C000
FFC0
FFC0
ENDCHAR
STARTCHAR 1EBD
ENCODING 7869
SWIDTH 480 0
DWIDTH 12 0
BBX 10 18 1 0
BITMAP
3840
3CC0
6780
0000
0000
1F00
3F80
70C0
60C0
C040
C040
FFC0
C000
C000
6000
7000
3FC0
0F00
ENDCHAR
STARTCHAR 1EBE
ENCODING 7870
SWIDTH 520 0
DWIDTH 13 0
BBX 10 23 2 0
BITMAP
0040
00C0
0F80
1B00
2100
0000
FFC0
FFC0
C000
C000
C000
C000
C000
FF80
FF80
C000
C000
C000
C000
C000
C000
FFC0
FFC0
ENDCHAR
STARTCHAR 1EBF
ENCODING 7871
SWIDTH 480 0
DWIDTH 12 0
BBX 11 20 1 0
BITMAP
0020
0060
0EC0
1B00
3180
0000
0000
1F00
3F80
70C0
60C0
C040
C040
FFC0
C000
C000
6000
7000
3FC0
0F00
ENDCHAR
STARTCHAR 1EC0
ENCODING 7872
SWIDTH 520 0
DWIDTH 13 0
BBX 10 23 2 0
BITMAP
8000
C000
6E00
1B00
2100
0000
FFC0
FFC0
C000
C000
C000
C000
C000
FF80
FF80
C000
C000
C000
C000
C000
C000
FFC0
FFC0
ENDCHAR
STARTCHAR 1EC1
ENCODING 7873
SWIDTH 480 0
DWIDTH 12 0
BBX 10 20 1 0
BITMAP
8000
C000
6E00
1B00
3180
0000
0000
1F00
3F80
70C0
60C0
C040
C040
FFC0
C000
C000
6000
7000
3FC0
0F00
ENDCHAR
STARTCHAR 1EC2
ENCODING 7874
SWIDTH 520 0
DWIDTH 13 0
BBX 10 23 2 0
BITMAP
01C0
0040
0EC0
1B00
2100
0000
FFC0
FFC0
C000
C000
C000
C000
C000
FF80
FF80
C000
C000
C000
C000
C000
C000
FFC0
FFC0
ENDCHAR
STARTCHAR 1EC3
ENCODING 7875
SWIDTH 480 0
DWIDTH 12 0
BBX 11 20 1 0
BITMAP
00C0
0060
0E60
1B80
3180
0000
0000
1F00
3F80
70C0
60C0
C040
C040
FFC0
C000
C000
6000
7000
3FC0
0F00
ENDCHAR
STARTCHAR 1EC4
ENCODING 7876
SWIDTH 520 0
DWIDTH 13 0
BBX 10 24 2 0
BITMAP
3980
2700
0000
0E00
1B00
2100
0000
FFC0
FFC0
C000
C000
C000
C000
C000
FF80
FF80
C000
C000
C000
C000
C000
C000
FFC0
FFC0
ENDCHAR
STARTCHAR 1EC5
ENCODING 7877
SWIDTH 480 0
DWIDTH 12 0
BBX 10 20 1 0
BITMAP
1C80
2300
0000
0E00
1980
0000
0000
1F00
3F80
70C0
60C0
C040
C040
FFC0
C000
C000
6000
7000
3FC0
0F00
ENDCHAR
STARTCHAR 1EC6
ENCODING 7878
SWIDTH 520 0
DWIDTH 13 0
BBX 10 26 2 -5
BITMAP
1E00
3300
6180
0000
FFC0
FFC0
C000
C000
C000
C000
C000
FF80
FF80
C000
C000
C000
C000
C000
C000
FFC0
FFC0
0000
0000
0400
0E00
0C00
ENDCHAR
STARTCHAR 1EC7
ENCODING 7879
SWIDTH 480 0
DWIDTH 12 0
BBX 10 24 1 -5
BITMAP
0E00
1F00
1180
2080
0000
0000
1F00
3F80
70C0
60C0
C040
C040
FFC0
C000
C000
6000
7000
3FC0
0F00
0000
0000
0400
0E00
0E00
ENDCHAR
STARTCHAR 1EC8
ENCODING 7880
SWIDTH 280 0
DWIDTH 7 0
BBX 3 22 2 0
BITMAP
C0
60
20
E0
00
C0
C0
C0
C0
C0
C0
C0
C0
C0
C0
C0
C0
C0
C0
C0
C0
C0
ENDCHAR
STARTCHAR 1EC9
ENCODING 7881
SWIDTH 240 0
DWIDTH 6 0
BBX 4 19 1 0
BITMAP
E0
70
30
30
40
00
00
60
60
60
60
60
60
60
60
60
60
60
60
ENDCHAR
STARTCHAR 1ECA
ENCODING 7882
SWIDTH 280 0
DWIDTH 7 0
BBX 3 22 2 -5
BITMAP
C0
C0
C0
C0
C0
C0
C0
C0
C0
C0
C0
C0
C0
C0
C0
C0
C0
00
00
40
E0
C0
ENDCHAR
STARTCHAR 1ECB
ENCODING 7883
SWIDTH 240 0
DWIDTH 6 0
BBX 3 23 2 -5
BITMAP
C0
E0
40
00
00
C0
C0
C0
C0
C0
C0
C0
C0
C0
C0
C0
C0
C0
00
00
40
C0
C0
ENDCHAR
STARTCHAR 1ECC
ENCODING 7884
SWIDTH 680 0
DWIDTH 17 0
BBX 14 22 1 -5
BITMAP
07C0
1FF0
3838
7018
601C
600C
E00C
C00C
C00C
E00C
E00C
600C
601C
7018
3838
1FF0
07C0
0000
0000
0100
0380
0300
ENDCHAR
STARTCHAR 1ECD
ENCODING 7885
SWIDTH 560 0
DWIDTH 14 0
BBX 11 18 1 -5
BITMAP
0F00
3FC0
70C0
6060
E060
C060
C060
C060
E060
6060
70C0
3F80
1F00
0000
0000
0400
0E00
0600
ENDCHAR
STARTCHAR 1ECE
ENCODING 7886
SWIDTH 680 0
DWIDTH 17 0
BBX 14 22 1 0
BITMAP
0300
0180
0080
0380
0000
07C0
1FF0
3838
7018
601C
600C
E00C
C00C
C00C
E00C
E00C
600C
601C
7018
3838
1FF0
07C0
ENDCHAR
STARTCHAR 1ECF
ENCODING 7887
SWIDTH 560 0
DWIDTH 14 0
BBX 11 19 1 0
BITMAP
0E00
0300
0300
0600
0000
0000
0F00
3FC0
70C0
6060
E060
C060
C060
C060
E060
6060
70C0
3F80
1F00
ENDCHAR
STARTCHAR 1ED0
ENCODING 7888
SWIDTH 680 0
DWIDTH 17 0
BBX 14 22 1 1
BITMAP
0010
03A0
06C0
0C40
0000
07C0
1FF0
3838
7018
601C
600C
E00C
C00C
C00C
E00C
E00C
600C
601C
7018
3838
1FF0
07C0
ENDCHAR
STARTCHAR 1ED1
ENCODING 7889
SWIDTH 560 0
DWIDTH 14 0
BBX 11 20 1 0
BITMAP
0020
0060
0EC0
1F00
1180
0000
0000
0F00
3FC0
70C0
6060
E060
C060
C060
C060
E060
6060
70C0
3F80
1F00
ENDCHAR
STARTCHAR 1ED2
ENCODING 7890
SWIDTH 680 0
DWIDTH 17 0
BBX 14 22 1 1
BITMAP
3000
1B80
06C0
0C40
0000
07C0
1FF0
3838
7018
601C
600C
E00C
C00C
C00C
E00C
E00C
600C
601C
7018
3838
1FF0
07C0
ENDCHAR
STARTCHAR 1ED3
ENCODING 7891
SWIDTH 560 0
DWIDTH 14 0
BBX 11 20 1 0
BITMAP
8000
C000
6E00
1F00
1180
0000
0000
0F00
3FC0
70C0
6060
E060
C060
C060
C060
E060
6060
70C0
3F80
1F00
ENDCHAR
STARTCHAR 1ED4
ENCODING 7892
SWIDTH 680 0
DWIDTH 17 0
BBX 14 23 1 0
BITMAP
0070
0010
03B0
06C0
0C40
0000
07C0
1FF0
3838
7018
601C
600C
E00C
C00C
C00C
E00C
E00C
600C
601C
7018
3838
1FF0
07C0
ENDCHAR
STARTCHAR 1ED5
ENCODING 7893
SWIDTH 560 0
DWIDTH 14 0
BBX 11 20 1 0
BITMAP
00C0
0060
0E60
1F00
1180
0000
0000
0F00
3FC0
70C0
6060
E060
C060
C060
C060
E060
6060
70C0
3F80
1F00
ENDCHAR
STARTCHAR 1ED6
ENCODING 7894
SWIDTH 680 0
DWIDTH 17 0
BBX 14 24 1 0
BITMAP
0E20
09C0
0000
0380
06C0
0C40
0000
07C0
1FF0
3838
7018
601C
600C
E00C
C00C
C00C
E00C
E00C
600C
601C
7018
3838
1FF0
07C0
ENDCHAR
STARTCHAR 1ED7
ENCODING 7895
SWIDTH 560 0
DWIDTH 14 0
BBX 11 20 1 0
BITMAP
1C80
3380
0000
0F00
1980
0000
0000
0F00
3FC0
70C0
6060
E060
C060
C060
C060
E060
6060
70C0
3F80
1F00
ENDCHAR
STARTCHAR 1ED8
ENCODING 7896
SWIDTH 680 0
DWIDTH 17 0
BBX 14 26 1 -5
BITMAP
0380
06C0
0860
0000
07C0
1FF0
3838
7018
601C
600C
E00C
C00C
C00C
E00C
E00C
600C
601C
7018
3838
1FF0
07C0
0000
0000
0100
0380
0300
ENDCHAR
STARTCHAR 1ED9
ENCODING 7897
SWIDTH 560 0
DWIDTH 14 0
BBX 11 24 1 -5
BITMAP
0E00
0F00
1980
30C0
0000
0000
0F00
3FC0
70C0
6060
E060
C060
C060
C060
E060
6060
70C0
3F80
1F00
0000
0000
0400
0E00
0600
ENDCHAR
STARTCHAR 1EDA
ENCODING 7898
SWIDTH 680 0
DWIDTH 17 0
BBX 14 22 1 0
BITMAP
0040
00E0
018C
0304
0004
07CC
1FF0
3838
3018
601C
600C
600C
E00C
E00C
E00C
600C
600C
601C
3018
3838
1FF0
07C0
ENDCHAR
STARTCHAR 1EDB
ENCODING 7899
SWIDTH 560 0
DWIDTH 14 0
BBX 12 20 1 0
BITMAP
0100
0180
0300
0610
0430
0030
0030
0FE0
3FC0
70C0
6060
E060
C060
C060
C060
E060
6060
70C0
3F80
1F00
ENDCHAR
STARTCHAR 1EDC
ENCODING 7900
SWIDTH 680 0
DWIDTH 17 0
BBX 14 22 1 0
BITMAP
0400
0E00
070C
0104
0004
07CC
1FF0
3838
3018
601C
600C
600C
E00C
E00C
E00C
600C
600C
601C
3018
3838
1FF0
07C0
ENDCHAR
STARTCHAR 1EDD
ENCODING 7901
SWIDTH 560 0
DWIDTH 14 0
BBX 12 20 1 0
BITMAP
1000
3800
1C00
0E10
0630
0030
0030
0FE0
3FC0
70C0
6060
E060
C060
C060
C060
E060
6060
70C0
3F80
1F00
ENDCHAR
STARTCHAR 1EDE
ENCODING 7902
SWIDTH 680 0
DWIDTH 17 0
BBX 14 22 1 0
BITMAP
0300
0180
008C
0384
0004
07CC
1FF0
3838
3018
601C
600C
600C
E00C
E00C
E00C
600C
600C
601C
3018
3838
1FF0
07C0
ENDCHAR
STARTCHAR 1EDF
ENCODING 7903
SWIDTH 560 0
DWIDTH 14 0
BBX 12 19 1 0
BITMAP
0E00
0300
0310
0630
0030
0030
0FE0
3FC0
70C0
6060
E060
C060
C060
C060
E060
6060
70C0
3F80
1F00
ENDCHAR
STARTCHAR 1EE0
ENCODING 7904
SWIDTH 680 0
DWIDTH 17 0
BBX 14 21 1 1
BITMAP
1E20
13EC
10C4
0004
07CC
1FF0
3838
3018
601C
600C
600C
E00C
E00C
E00C
600C
600C
601C
3018
3838
1FF0
07C0
ENDCHAR
STARTCHAR 1EE1
ENCODING 7905
SWIDTH 560 0
DWIDTH 14 0
BBX 12 18 1 0
BITMAP
38C0
7CC0
67B0
0030
0030
0FE0
3FC0
70C0
6060
E060
C060
C060
C060
E060
6060
70C0
3F80
1F00
ENDCHAR
STARTCHAR 1EE2
ENCODING 7906
SWIDTH 680 0
DWIDTH 17 0
BBX 14 25 1 -5
BITMAP
000C
0004
0004
07CC
1FF0
3838
3018
601C
600C
600C
E00C
E00C
E00C
600C
600C
601C
3018
3838
1FF0
07C0
0000
0000
0100
0380
0300
ENDCHAR
STARTCHAR 1EE3
ENCODING 7907
SWIDTH 560 0
DWIDTH 14 0
BBX 12 22 1 -5
BITMAP
0010
0030
0030
0030
0FE0
3FC0
70C0
6060
E060
C060
C060
C060
E060
6060
70C0
3F80
1F00
0000
0000
0400
0E00
0600
ENDCHAR
STARTCHAR 1EE4
ENCODING 7908
SWIDTH 640 0
DWIDTH 16 0
BBX 12 22 2 -5
BITMAP
C030
C030
C030
C030
C030
C030
C030
C030
C030
C030
C030
C030
E030
6060
70E0
3FC0
1F80
0000
0000
0200
0600
0600
ENDCHAR
STARTCHAR 1EE5
ENCODING 7909
SWIDTH 560 0
DWIDTH 14 0
BBX 10 18 2 -5
BITMAP
C1C0
C1C0
C1C0
C1C0
C1C0
C1C0
C1C0
C1C0
C1C0
C1C0
E3C0
7EC0
3CC0
0000
0000
0400
0E00
0C00
ENDCHAR
STARTCHAR 1EE6
ENCODING 7910
SWIDTH 640 0
DWIDTH 16 0
BBX 12 22 2 0
BITMAP
0E00
0300
0300
0600
0000
C030
C030
C030
C030
C030
C030
C030
C030
C030
C030
C030
C030
E030
6060
70E0
3FC0
1F80
ENDCHAR
STARTCHAR 1EE7
ENCODING 7911
SWIDTH 560 0
DWIDTH 14 0
BBX 10 19 2 0
BITMAP
1C00
0600
0600
0C00
0000
0000
0000
C1C0
C1C0
C1C0
C1C0
C1C0
C1C0
C1C0
C1C0
C1C0
E3C0
7EC0
3CC0
ENDCHAR
STARTCHAR 1EE8
ENCODING 7912
SWIDTH 640 0
DWIDTH 16 0
BBX 15 22 2 0
BITMAP
0180
0386
0706
0406
000C
C038
C030
C030
C030
C030
C030
C030
C030
C030
C030
C030
C030
E030
6060
70E0
3FC0
1F80
ENDCHAR
STARTCHAR 1EE9
ENCODING 7913
SWIDTH 560 0
DWIDTH 14 0
BBX 12 20 2 0
BITMAP
0300
0700
0E00
1C30
0830
0030
0060
C1C0
C1C0
C1C0
C1C0
C1C0
C1C0
C1C0
C1C0
C1C0
C1C0
E3C0
7EC0
3CC0
ENDCHAR
STARTCHAR 1EEA
ENCODING 7914
SWIDTH 640 0
DWIDTH 16 0
BBX 15 22 2 0
BITMAP
1800
1C06
0E06
0206
000C
C038
C030
C030
C030
C030
C030
C030
C030
C030
C030
C030
C030
E030
6060
70E0
3FC0
1F80
ENDCHAR
STARTCHAR 1EEB
ENCODING 7915
SWIDTH 560 0
DWIDTH 14 0
BBX 12 20 2 0
BITMAP
2000
3000
1800
0C30
0030
0030
0060
C1C0
C1C0
C1C0
C1C0
C1C0
C1C0
C1C0
C1C0
C1C0
C1C0
E3C0
7EC0
3CC0
ENDCHAR
STARTCHAR 1EEC
ENCODING 7916
SWIDTH 640 0
DWIDTH 16 0
BBX 15 22 2 0
BITMAP
0E00
0300
0306
0606
0006
C03C
C030
C030
C030
C030
C030
C030
C030
C030
C030
C030
C030
E030
6060
70E0
3FC0
1F80
ENDCHAR
STARTCHAR 1EED
ENCODING 7917
SWIDTH 560 0
DWIDTH 14 0
BBX 12 19 2 0
BITMAP
1C00
0600
0630
0C30
0030
0030
00E0
C1C0
C1C0
C1C0
C1C0
C1C0
C1C0
C1C0
C1C0
C1C0
E3C0
7EC0
3CC0
ENDCHAR
STARTCHAR 1EEE
ENCODING 7918
SWIDTH 640 0
DWIDTH 16 0
BBX 15 21 2 1
BITMAP
3C46
27C6
2386
000C
C038
C030
C030
C030
C030
C030
C030
C030
C030
C030
C030
C030
E030
6060
70E0
3FC0
1F80
ENDCHAR
STARTCHAR 1EEF
ENCODING 7919
SWIDTH 560 0
DWIDTH 14 0
BBX 12 18 2 0
BITMAP
7080
7D80
CF30
0030
0020
C1C0
C1C0
C1C0
C1C0
C1C0
C1C0
C1C0
C1C0
C1C0
C1C0
E3C0
7EC0
3CC0
ENDCHAR
STARTCHAR 1EF0
ENCODING 7920
SWIDTH 640 0
DWIDTH 16 0
BBX 15 26 2 -5
BITMAP
0006
0006
0006
000C
C038
C030
C030
C030
C030
C030
C030
C030
C030
C030
C030
C030
E030
6060
70E0
3FC0
1F80
0000
0000
0200
0600
0600
ENDCHAR
STARTCHAR 1EF1
ENCODING 7921
SWIDTH 560 0
DWIDTH 14 0
BBX 12 22 2 -4
BITMAP
0030
0030
0030
0060
C1C0
C1C0
C1C0
C1C0
C1C0
C1C0
C1C0
C1C0
C1C0
C1C0
E3C0
7EC0
3CC0
0000
0000
0400
0C00
0C00
ENDCHAR
STARTCHAR 1EF2
ENCODING 7922
SWIDTH 480 0
DWIDTH 12 0
BBX 12 22 0 0
BITMAP
1800
1C00
0E00
0200
0000
C030
6060
6060
30C0
30C0
1980
1980
1F00
0F00
0E00
0600
0600
0600
0600
0600
0600
0600
ENDCHAR
STARTCHAR 1EF3
ENCODING 7923
SWIDTH 480 0
DWIDTH 12 0
BBX 11 25 0 -5
BITMAP
1800
1C00
0C00
0600
0200
0000
0000
E060
6060
6060
30C0
30C0
30C0
1980
1980
0980
0D00
0F00
0700
0600
0600
0600
0C00
7800
7000
ENDCHAR
STARTCHAR 1EF4
ENCODING 7924
SWIDTH 480 0
DWIDTH 12 0
BBX 12 22 0 -5
BITMAP
C030
6060
6060
30C0
30C0
1980
1980
1F00
0F00
0E00
0600
0600
0600
0600
0600
0600
0600
0000
0000
0000
0600
0600
ENDCHAR
STARTCHAR 1EF5
ENCODING 7925
SWIDTH 480 0
DWIDTH 12 0
BBX 11 18 0 -5
BITMAP
E060
6060
6060
30C0
30C0
30C0
1980
1980
0980
0D00
0F00
0700
0600
0600
0600
0C60
78E0
7040
ENDCHAR
STARTCHAR 1EF6
ENCODING 7926
SWIDTH 480 0
DWIDTH 12 0
BBX 12 22 0 0
BITMAP
0E00
0300
0300
0600
0000
C030
E060
6060
70C0
30C0
3980
1980
1900
0F00
0E00
0600
0600
0600
0600
0600
0600
0600
ENDCHAR
STARTCHAR 1EF7
ENCODING 7927
SWIDTH 480 0
DWIDTH 12 0
BBX 10 24 1 -5
BITMAP
1C00
0E00
0600
0600
0800
0000
0000
C0C0
C0C0
C180
6180
6180
3300
3300
3300
1A00
1E00
0E00
0C00
0C00
0C00
1800
F000
E000
ENDCHAR
STARTCHAR 1EF8
ENCODING 7928
SWIDTH 480 0
DWIDTH 12 0
BBX 12 21 0 1
BITMAP
3C40
27C0
2380
0000
C030
6060
6060
30C0
30C0
1980
1980
1F00
0F00
0E00
0600
0600
0600
0600
0600
0600
0600
ENDCHAR
STARTCHAR 1EF9
ENCODING 7929
SWIDTH 480 0
DWIDTH 12 0
BBX 11 23 0 -5
BITMAP
1C40
3640
23C0
0000
0000
E060
6060
6060
30C0
30C0
30C0
1980
1980
0980
0D00
0F00
0700
0600
0600
0600
0C00
7800
7000
ENDCHAR
STARTCHAR 1F00
ENCODING 7936
SWIDTH 560 0
DWIDTH 14 0
BBX 13 20 1 0
BITMAP
0E00
0700
0300
0300
0400
0000
0000
1E30
3F30
71E0
60E0
E060
C060
C060
C060
C0C0
60C0
61C0
3F70
1E78
ENDCHAR
STARTCHAR 1F01
ENCODING 7937
SWIDTH 560 0
DWIDTH 14 0
BBX 13 19 1 0
BITMAP
0700
0C00
0C00
0600
0000
0000
1E30
3F30
71E0
60E0
E060
C060
C060
C060
C0C0
60C0
61C0
3F70
1E78
ENDCHAR
STARTCHAR 1F02
ENCODING 7938
SWIDTH 560 0
DWIDTH 14 0
BBX 13 20 1 0
BITMAP
0100
3B00
0900
0980
1980
0000
0000
1E30
3F30
71E0
60E0
E060
C060
C060
C060
C0C0
60C0
61C0
3F70
1E78
ENDCHAR
STARTCHAR 1F03
ENCODING 7939
SWIDTH 560 0
DWIDTH 14 0
BBX 13 20 1 0
BITMAP
0100
1B00
3100
3100
1980
0000
0000
1E30
3F30
71E0
60E0
E060
C060
C060
C060
C0C0
60C0
61C0
3F70
1E78
ENDCHAR
STARTCHAR 1F04
ENCODING 7940
SWIDTH 560 0
DWIDTH 14 0
BBX 13 20 1 0
BITMAP
0100
3980
0980
0900
1900
0100
0000
1E30
3F30
71E0
60E0
E060
C060
C060
C060
C0C0
60C0
61C0
3F70
1E78
ENDCHAR
STARTCHAR 1F05
ENCODING 7941
SWIDTH 560 0
DWIDTH 14 0
BBX 13 20 1 0
BITMAP
0100
1D80
3180
3100
1B00
0000
0000
1E30
3F30
71E0
60E0
E060
C060
C060
C060
C0C0
60C0
61C0
3F70
1E78
ENDCHAR
STARTCHAR 1F06
ENCODING 7942
SWIDTH 560 0
DWIDTH 14 0
BBX 13 20 1 0
BITMAP
1E80
1380
0600
0300
0600
0000
0000
1E30
3F30
71E0
60E0
E060
C060
C060
C060
C0C0
60C0
61C0
3F70
1E78
ENDCHAR
STARTCHAR 1F07
ENCODING 7943
SWIDTH 560 0
DWIDTH 14 0
BBX 13 20 1 0
BITMAP
1E80
1380
0700
0C00
0600
0000
0000
1E30
3F30
71E0
60E0
E060
C060
C060
C060
C0C0
60C0
61C0
3F70
1E78
ENDCHAR
STARTCHAR 1F08
ENCODING 7944
SWIDTH 600 0
DWIDTH 15 0
BBX 14 17 0 0
BITMAP
C380
6380
32C0
26C0
46C0
0660
0C60
0C60
0C30
1830
1FF0
1FF8
3018
3018
301C
700C
600C
ENDCHAR
STARTCHAR 1F09
ENCODING 7945
SWIDTH 560 0
DWIDTH 14 0
BBX 14 17 0 0
BITMAP
6380
C380
82C0
C6C0
66C0
0460
0C60
0C60
0860
1830
1FF0
1FF0
3018
3018
3018
600C
600C
ENDCHAR
STARTCHAR 1F0A
ENCODING 7946
SWIDTH 720 0
DWIDTH 18 0
BBX 18 17 0 0
BITMAP
CC3000
6C7800
6C7800
644800
C4CC00
00CC00
00CC00
018600
018600
018600
03FF00
03FF00
030300
060380
060180
060180
0E01C0
ENDCHAR
STARTCHAR 1F0B
ENCODING 7947
SWIDTH 720 0
DWIDTH 18 0
BBX 18 17 0 0
BITMAP
6C3000
CC7800
8C7800
C45800
44CC00
00CC00
00CC00
018600
018600
018600
03FF00
03FF00
030300
060380
060180
060180
0E01C0
ENDCHAR
STARTCHAR 1F0C
ENCODING 7948
SWIDTH 720 0
DWIDTH 18 0
BBX 18 17 0 0
BITMAP
CC3000
6C7800
6C7800
6C5800
C8CC00
00CC00
00CC00
018600
018600
018600
03FF00
03FF00
030300
060380
060180
060180
0E01C0
ENDCHAR
STARTCHAR 1F0D
ENCODING 7949
SWIDTH 720 0
DWIDTH 18 0
BBX 17 17 0 0
BITMAP
6C3000
CC7800
8C7800
C85800
48CC00
00CC00
008C00
018400
018600
018600
03FE00
03FF00
030300
060300
060180
060180
0C0180
ENDCHAR
STARTCHAR 1F0E
ENCODING 7950
SWIDTH 600 0
DWIDTH 15 0
BBX 16 17 -1 0
BITMAP
74E0
DCE0
00B0
31B0
19B0
3118
0318
0318
0218
060C
07FC
07FC
0C06
0C06
0C06
1803
1803
ENDCHAR
STARTCHAR 1F0F
ENCODING 7951
SWIDTH 600 0
DWIDTH 15 0
BBX 16 17 -1 0
BITMAP
74E0
DCE0
00B0
39B0
21B0
3118
0318
0318
0218
060C
07FC
07FC
0C06
0C06
0C06
1803
1803
ENDCHAR
STARTCHAR 1F10
ENCODING 7952
SWIDTH 440 0
DWIDTH 11 0
BBX 10 19 1 0
BITMAP
0E00
0600
0600
0C00
0000
0000
1F00
7F80
6080
6000
6000
3A00
3E00
6000
C000
C000
E080
7FC0
3F00
ENDCHAR
STARTCHAR 1F11
ENCODING 7953
SWIDTH 440 0
DWIDTH 11 0
BBX 10 19 1 0
BITMAP
0E00
1800
1800
0C00
0000
0000
1F00
7F80
6080
6000
6000
3A00
3E00
6000
C000
C000
E080
7FC0
3F00
ENDCHAR
STARTCHAR 1F12
ENCODING 7954
SWIDTH 440 0
DWIDTH 11 0
BBX 10 20 1 0
BITMAP
0200
7600
1B00
1300
3300
0000
0000
1F00
7F80
6080
6000
6000
3A00
3E00
6000
C000
C000
E080
7FC0
3F00
ENDCHAR
STARTCHAR 1F13
ENCODING 7955
SWIDTH 440 0
DWIDTH 11 0
BBX 10 20 1 0
BITMAP
0200
3600
6200
6300
3300
0000
0000
1F00
7F80
6080
6000
6000
3A00
3E00
6000
C000
C000
E080
7FC0
3F00
ENDCHAR
STARTCHAR 1F14
ENCODING 7956
SWIDTH 440 0
DWIDTH 11 0
BBX 10 20 1 0
BITMAP
0200
7300
1B00
1200
3200
0000
0000
1F00
7F80
6080
6000
6000
3A00
3E00
6000
C000
C000
E080
7FC0
3F00
ENDCHAR
STARTCHAR 1F15
ENCODING 7957
SWIDTH 440 0
DWIDTH 11 0
BBX 10 20 1 0
BITMAP
0200
3B00
6300
6200
3600
0200
0000
1F00
7F80
6080
6000
6000
3A00
3E00
6000
C000
C000
E080
7FC0
3F00
ENDCHAR
STARTCHAR 1F18
ENCODING 7960
SWIDTH 640 0
DWIDTH 16 0
BBX 15 17 0 0
BITMAP
C7FE
67FE
2600
6600
C600
0600
0600
07F8
07F8
0600
0600
0600
0600
0600
0600
07FE
07FE
ENDCHAR
STARTCHAR 1F19
ENCODING 7961
SWIDTH 640 0
DWIDTH 16 0
BBX 15 17 0 0
BITMAP
67FE
C7FE
8600
C600
6600
0600
0600
07F8
07F8
0600
0600
0600
0600
0600
0600
07FE
07FE
ENDCHAR
STARTCHAR 1F1A
ENCODING 7962
SWIDTH 760 0
DWIDTH 19 0
BBX 18 17 0 0
BITMAP
CCFFC0
6CFFC0
6CC000
64C000
C4C000
00C000
00C000
00FF00
00FF00
00C000
00C000
00C000
00C000
00C000
00C000
00FFC0
00FFC0
ENDCHAR
STARTCHAR 1F1B
ENCODING 7963
SWIDTH 760 0
DWIDTH 19 0
BBX 18 17 0 0
BITMAP
6CFFC0
CCFFC0
8CC000
C4C000
44C000
00C000
00C000
00FF00
00FF00
00C000
00C000
00C000
00C000
00C000
00C000
00FFC0
00FFC0
ENDCHAR
STARTCHAR 1F1C
ENCODING 7964
SWIDTH 760 0
DWIDTH 19 0
BBX 18 17 0 0
BITMAP
CCFFC0
6CFFC0
6CC000
6CC000
C8C000
00C000
00C000
00FF00
00FF00
00C000
00C000
00C000
00C000
00C000
00C000
00FFC0
00FFC0
ENDCHAR
STARTCHAR 1F1D
ENCODING 7965
SWIDTH 760 0
DWIDTH 19 0
BBX 18 17 0 0
BITMAP
6CFF80
CCFF80
8CC000
88C000
48C000
00C000
00C000
00FF00
00FF00
00C000
00C000
00C000
00C000
00C000
00C000
00FFC0
00FFC0
ENDCHAR
STARTCHAR 1F20
ENCODING 7968
SWIDTH 560 0
DWIDTH 14 0
BBX 10 23 2 -4
BITMAP
0E00
0600
0200
0C00
0000
0000
CF00
DF80
F180
E0C0
C0C0
C0C0
C0C0
C0C0
C0C0
C0C0
C0C0
C0C0
C0C0
00C0
00C0
00C0
00C0
ENDCHAR
STARTCHAR 1F21
ENCODING 7969
SWIDTH 560 0
DWIDTH 14 0
BBX 10 23 2 -4
BITMAP
0E00
1800
1800
0C00
0000
0000
CF00
DF80
F180
E0C0
C0C0
C0C0
C0C0
C0C0
C0C0
C0C0
C0C0
C0C0
C0C0
00C0
00C0
00C0
00C0
ENDCHAR
STARTCHAR 1F22
ENCODING 7970
SWIDTH 560 0
DWIDTH 14 0
BBX 10 23 2 -3
BITMAP
7200
1B00
1B00
3100
0000
0000
CF00
DF80
F180
E0C0
C0C0
C0C0
C0C0
C0C0
C0C0
C0C0
C0C0
C0C0
C0C0
00C0
00C0
00C0
00C0
ENDCHAR
STARTCHAR 1F23
ENCODING 7971
SWIDTH 560 0
DWIDTH 14 0
BBX 10 24 2 -4
BITMAP
0200
3E00
6200
6300
3300
0000
0000
CF00
DF80
F180
E0C0
C0C0
C0C0
C0C0
C0C0
C0C0
C0C0
C0C0
C0C0
C0C0
00C0
00C0
00C0
00C0
ENDCHAR
STARTCHAR 1F24
ENCODING 7972
SWIDTH 560 0
DWIDTH 14 0
BBX 10 23 2 -3
BITMAP
7300
1B00
1B00
3200
0000
0000
CF00
DF80
F180
E0C0
C0C0
C0C0
C0C0
C0C0
C0C0
C0C0
C0C0
C0C0
C0C0
00C0
00C0
00C0
00C0
ENDCHAR
STARTCHAR 1F25
ENCODING 7973
SWIDTH 560 0
DWIDTH 14 0
BBX 10 24 2 -4
BITMAP
0200
3B00
2300
2200
3200
0200
0000
CF00
DF80
F180
E0C0
C0C0
C0C0
C0C0
C0C0
C0C0
C0C0
C0C0
C0C0
C0C0
00C0
00C0
00C0
00C0
ENDCHAR
STARTCHAR 1F26
ENCODING 7974
SWIDTH 560 0
DWIDTH 14 0
BBX 10 24 2 -4
BITMAP
3D80
2700
0C00
0600
0E00
0000
0000
CF00
DF80
F180
E0C0
C0C0
C0C0
C0C0
C0C0
C0C0
C0C0
C0C0
C0C0
C0C0
00C0
00C0
00C0
00C0
ENDCHAR
STARTCHAR 1F27
ENCODING 7975
SWIDTH 560 0
DWIDTH 14 0
BBX 10 24 2 -4
BITMAP
3D80
2700
0E00
0800
0C00
0000
0000
CF00
DF80
F180
E0C0
C0C0
C0C0
C0C0
C0C0
C0C0
C0C0
C0C0
C0C0
C0C0
00C0
00C0
00C0
00C0
ENDCHAR
STARTCHAR 1F28
ENCODING 7976
SWIDTH 760 0
DWIDTH 19 0
BBX 17 17 0 0
BITMAP
C60180
660180
260180
660180
C60180
060180
060180
07FF80
07FF80
060180
060180
060180
060180
060180
060180
060180
060180
ENDCHAR
STARTCHAR 1F29
ENCODING 7977
SWIDTH 760 0
DWIDTH 19 0
BBX 17 17 0 0
BITMAP
660180
C60180
860180
C60180
660180
060180
060180
07FF80
07FF80
060180
060180
060180
060180
060180
060180
060180
060180
ENDCHAR
STARTCHAR 1F2A
ENCODING 7978
SWIDTH 880 0
DWIDTH 22 0
BBX 20 17 0 0
BITMAP
CCC030
6CC030
6CC030
64C030
C4C030
00C030
00C030
00FFF0
00FFF0
00C030
00C030
00C030
00C030
00C030
00C030
00C030
00C030
ENDCHAR
STARTCHAR 1F2B
ENCODING 7979
SWIDTH 880 0
DWIDTH 22 0
BBX 20 17 0 0
BITMAP
6CC030
CCC030
8CC030
C4C030
44C030
00C030
00C030
00FFF0
00FFF0
00C030
00C030
00C030
00C030
00C030
00C030
00C030
00C030
ENDCHAR
STARTCHAR 1F2C
ENCODING 7980
SWIDTH 880 0
DWIDTH 22 0
BBX 20 17 0 0
BITMAP
CCC030
6CC030
6CC030
6CC030
C8C030
00C030
00C030
00FFF0
00FFF0
00C030
00C030
00C030
00C030
00C030
00C030
00C030
00C030
ENDCHAR
STARTCHAR 1F2D
ENCODING 7981
SWIDTH 880 0
DWIDTH 22 0
BBX 20 17 0 0
BITMAP
6CC030
CCC030
8CC030
88C030
48C030
00C030
00C030
00FFF0
00FFF0
00C030
00C030
00C030
00C030
00C030
00C030
00C030
00C030
ENDCHAR
STARTCHAR 1F2E
ENCODING 7982
SWIDTH 840 0
DWIDTH 21 0
BBX 20 17 -1 0
BITMAP
74C030
DCC030
00C030
30C030
18C030
10C030
00C030
00FFF0
00FFF0
00C030
00C030
00C030
00C030
00C030
00C030
00C030
00C030
ENDCHAR
STARTCHAR 1F2F
ENCODING 7983
SWIDTH 840 0
DWIDTH 21 0
BBX 20 17 -1 0
BITMAP
74C030
DCC030
38C030
20C030
30C030
00C030
00C030
00FFF0
00FFF0
00C030
00C030
00C030
00C030
00C030
00C030
00C030
00C030
ENDCHAR
STARTCHAR 1F30
ENCODING 7984
SWIDTH 280 0
DWIDTH 7 0
BBX 5 20 1 0
BITMAP
E0
70
30
70
40
00
00
60
60
60
60
60
60
60
60
60
60
60
78
38
ENDCHAR
STARTCHAR 1F31
ENCODING 7985
SWIDTH 280 0
DWIDTH 7 0
BBX 5 20 1 0
BITMAP
70
E0
C0
E0
20
00
00
60
60
60
60
60
60
60
60
60
60
60
78
38
ENDCHAR
STARTCHAR 1F32
ENCODING 7986
SWIDTH 280 0
DWIDTH 7 0
BBX 7 20 -1 0
BITMAP
CC
64
36
66
02
00
00
18
18
18
18
18
18
18
18
18
18
18
1E
0E
ENDCHAR
STARTCHAR 1F33
ENCODING 7987
SWIDTH 280 0
DWIDTH 7 0
BBX 7 20 -1 0
BITMAP
6C
CC
C4
C6
26
00
00
18
18
18
18
18
18
18
18
18
18
18
1E
0E
ENDCHAR
STARTCHAR 1F34
ENCODING 7988
SWIDTH 280 0
DWIDTH 7 0
BBX 7 20 -1 0
BITMAP
C6
66
34
64
0C
00
00
18
18
18
18
18
18
18
18
18
18
18
1E
0E
ENDCHAR
STARTCHAR 1F35
ENCODING 7989
SWIDTH 280 0
DWIDTH 7 0
BBX 7 20 -1 0
BITMAP
76
E6
C4
64
2C
00
00
18
18
18
18
18
18
18
18
18
18
18
1E
0E
ENDCHAR
STARTCHAR 1F36
ENCODING 7990
SWIDTH 280 0
DWIDTH 7 0
BBX 6 20 0 0
BITMAP
F4
9C
30
18
30
00
00
30
30
30
30
30
30
30
30
30
30
30
3C
1C
ENDCHAR
STARTCHAR 1F37
ENCODING 7991
SWIDTH 280 0
DWIDTH 7 0
BBX 6 20 0 0
BITMAP
F4
9C
38
60
30
00
00
30
30
30
30
30
30
30
30
30
30
30
3C
1C
ENDCHAR
STARTCHAR 1F38
ENCODING 7992
SWIDTH 400 0
DWIDTH 10 0
BBX 7 17 0 0
BITMAP
C6
66
26
66
C6
06
06
06
06
06
06
06
06
06
06
06
06
ENDCHAR
STARTCHAR 1F39
ENCODING 7993
SWIDTH 400 0
DWIDTH 10 0
BBX 7 17 0 0
BITMAP
66
C6
86
C6
66
06
06
06
06
06
06
06
06
06
06
06
06
ENDCHAR
STARTCHAR 1F3A
ENCODING 7994
SWIDTH 520 0
DWIDTH 13 0
BBX 10 17 0 0
BITMAP
CCC0
6CC0
6CC0
64C0
C4C0
00C0
00C0
00C0
00C0
00C0
00C0
00C0
00C0
00C0
00C0
00C0
00C0
ENDCHAR
STARTCHAR 1F3B
ENCODING 7995
SWIDTH 480 0
DWIDTH 12 0
BBX 10 17 0 0
BITMAP
6CC0
CCC0
8CC0
84C0
44C0
00C0
00C0
00C0
00C0
00C0
00C0
00C0
00C0
00C0
00C0
00C0
00C0
ENDCHAR
STARTCHAR 1F3C
ENCODING 7996
SWIDTH 480 0
DWIDTH 12 0
BBX 10 17 0 0
BITMAP
CCC0
6CC0
6CC0
6CC0
C8C0
00C0
00C0
00C0
00C0
00C0
00C0
00C0
00C0
00C0
00C0
00C0
00C0
ENDCHAR
STARTCHAR 1F3D
ENCODING 7997
SWIDTH 480 0
DWIDTH 12 0
BBX 10 17 0 0
BITMAP
6CC0
CCC0
8CC0
88C0
48C0
00C0
00C0
00C0
00C0
00C0
00C0
00C0
00C0
00C0
00C0
00C0
00C0
ENDCHAR
STARTCHAR 1F3E
ENCODING 7998
SWIDTH 440 0
DWIDTH 11 0
BBX 10 17 -1 0
BITMAP
74C0
DCC0
00C0
30C0
18C0
38C0
00C0
00C0
00C0
00C0
00C0
00C0
00C0
00C0
00C0
00C0
00C0
ENDCHAR
STARTCHAR 1F3F
ENCODING 7999
SWIDTH 440 0
DWIDTH 11 0
BBX 10 17 -1 0
BITMAP
74C0
DCC0
38C0
20C0
30C0
00C0
00C0
00C0
00C0
00C0
00C0
00C0
00C0
00C0
00C0
00C0
00C0
ENDCHAR
STARTCHAR 1F40
ENCODING 8000
SWIDTH 520 0
DWIDTH 13 0
BBX 11 20 1 0
BITMAP
0C00
0700
0300
0600
0400
0000
0000
1F00
3F80
70C0
60E0
E060
C060
C060
C060
E060
6060
70C0
3F80
1F00
ENDCHAR
STARTCHAR 1F41
ENCODING 8001
SWIDTH 520 0
DWIDTH 13 0
BBX 11 19 1 0
BITMAP
0600
0C00
0800
0600
0000
0000
1F00
3F80
70C0
60E0
E060
C060
C060
C060
E060
6060
70C0
3F80
1F00
ENDCHAR
STARTCHAR 1F42
ENCODING 8002
SWIDTH 520 0
DWIDTH 13 0
BBX 11 20 1 0
BITMAP
0100
3B00
1B00
0900
1100
0100
0000
1F00
3F80
70C0
60E0
E060
C060
C060
C060
E060
6060
70C0
3F80
1F00
ENDCHAR
STARTCHAR 1F43
ENCODING 8003
SWIDTH 520 0
DWIDTH 13 0
BBX 11 20 1 0
BITMAP
0100
3B00
2300
2300
1100
0000
0000
1F00
3F80
70C0
60E0
E060
C060
C060
C060
E060
6060
70C0
3F80
1F00
ENDCHAR
STARTCHAR 1F44
ENCODING 8004
SWIDTH 520 0
DWIDTH 13 0
BBX 11 20 1 0
BITMAP
0100
3980
1900
0B00
1300
0000
0000
1F00
3F80
70C0
60E0
E060
C060
C060
C060
E060
6060
70C0
3F80
1F00
ENDCHAR
STARTCHAR 1F45
ENCODING 8005
SWIDTH 520 0
DWIDTH 13 0
BBX 11 20 1 0
BITMAP
0100
1980
3300
3300
1200
0000
0000
1F00
3F80
70C0
60E0
E060
C060
C060
C060
E060
6060
70C0
3F80
1F00
ENDCHAR
STARTCHAR 1F48
ENCODING 8008
SWIDTH 760 0
DWIDTH 19 0
BBX 18 17 0 0
BITMAP
C0F800
63FE00
230700
660380
CE0180
0C0180
0C01C0
0C00C0
0C00C0
0C00C0
0C01C0
0C0180
0E0180
060380
030700
03FE00
00F800
ENDCHAR
STARTCHAR 1F49
ENCODING 8009
SWIDTH 760 0
DWIDTH 19 0
BBX 17 17 0 0
BITMAP
60F800
C3FE00
870700
C60300
6C0380
0C0180
0C0180
1C0180
1C0180
1C0180
0C0180
0C0180
0C0380
060300
070700
03FE00
00F800
ENDCHAR
STARTCHAR 1F4A
ENCODING 8010
SWIDTH 880 0
DWIDTH 22 0
BBX 21 17 0 0
BITMAP
CC1F80
6C3FC0
6C70E0
64E070
C4C030
01C038
018018
018018
018018
018018
018018
01C038
00C030
00E070
0070E0
003FC0
001F00
ENDCHAR
STARTCHAR 1F4B
ENCODING 8011
SWIDTH 880 0
DWIDTH 22 0
BBX 21 17 0 0
BITMAP
6C1F80
CC3FC0
8C60E0
8CC070
44C030
018038
018018
018018
018018
018018
018018
018038
00C030
00C070
0070E0
003FC0
001F00
ENDCHAR
STARTCHAR 1F4C
ENCODING 8012
SWIDTH 880 0
DWIDTH 22 0
BBX 21 17 0 0
BITMAP
CC1F00
6C7FC0
6CE0E0
6CC070
C9C030
018030
018038
018018
018018
018018
018038
018030
01C030
00C070
00E0E0
007FC0
001F00
ENDCHAR
STARTCHAR 1F4D
ENCODING 8013
SWIDTH 880 0
DWIDTH 22 0
BBX 21 17 0 0
BITMAP
6C1F00
CC7FC0
8CE0E0
C8C070
49C030
018030
018038
018038
018038
018038
018030
018030
01C030
00C060
00E0E0
007FC0
001F00
ENDCHAR
STARTCHAR 1F50
ENCODING 8016
SWIDTH 520 0
DWIDTH 13 0
BBX 9 20 2 0
BITMAP
3800
1C00
0C00
0C00
1000
0000
0000
C300
C180
C180
C180
C180
C180
C180
C180
C180
C180
C380
7F00
3C00
ENDCHAR
STARTCHAR 1F51
ENCODING 8017
SWIDTH 520 0
DWIDTH 13 0
BBX 9 19 2 0
BITMAP
1C00
3000
3000
1800
0000
0000
C300
C180
C180
C180
C180
C180
C180
C180
C180
C180
C380
7F00
3C00
ENDCHAR
STARTCHAR 1F52
ENCODING 8018
SWIDTH 520 0
DWIDTH 13 0
BBX 9 20 2 0
BITMAP
0400
EC00
2400
2600
6600
0000
0000
C300
C180
C180
C180
C180
C180
C180
C180
C180
C180
C380
7F00
3C00
ENDCHAR
STARTCHAR 1F53
ENCODING 8019
SWIDTH 520 0
DWIDTH 13 0
BBX 9 20 2 0
BITMAP
0400
6C00
C400
C400
6600
0000
0000
C300
C180
C180
C180
C180
C180
C180
C180
C180
C180
C380
7F00
3C00
ENDCHAR
STARTCHAR 1F54
ENCODING 8020
SWIDTH 520 0
DWIDTH 13 0
BBX 9 20 2 0
BITMAP
0400
E600
2600
2400
6400
0400
0000
C300
C180
C180
C180
C180
C180
C180
C180
C180
C180
C380
7F00
3C00
ENDCHAR
STARTCHAR 1F55
ENCODING 8021
SWIDTH 520 0
DWIDTH 13 0
BBX 9 20 2 0
BITMAP
0400
7600
C600
C400
6C00
0000
0000
C300
C180
C180
C180
C180
C180
C180
C180
C180
C180
C380
7F00
3C00
ENDCHAR
STARTCHAR 1F56
ENCODING 8022
SWIDTH 520 0
DWIDTH 13 0
BBX 9 20 2 0
BITMAP
7A00
4E00
1800
0C00
1800
0000
0000
C300
C180
C180
C180
C180
C180
C180
C180
C180
C180
C380
7F00
3C00
ENDCHAR
STARTCHAR 1F57
ENCODING 8023
SWIDTH 520 0
DWIDTH 13 0
BBX 9 20 2 0
BITMAP
7A00
4E00
1C00
3000
1800
0000
0000
C300
C180
C180
C180
C180
C180
C180
C180
C180
C180
C380
7F00
3C00
ENDCHAR
STARTCHAR 1F59
ENCODING 8025
SWIDTH 640 0
DWIDTH 16 0
BBX 16 17 0 0
BITMAP
6E03
C606
8706
C30C
630C
018C
0198
00D8
00F0
0070
0060
0060
0060
0060
0060
0060
0060
ENDCHAR
STARTCHAR 1F5B
ENCODING 8027
SWIDTH 760 0
DWIDTH 19 0
BBX 19 17 0 0
BITMAP
6CC060
CCC0E0
8CE0C0
8460C0
447180
003180
003300
001B00
001E00
000E00
000C00
000C00
000C00
000C00
000C00
000C00
000C00
ENDCHAR
STARTCHAR 1F5D
ENCODING 8029
SWIDTH 760 0
DWIDTH 19 0
BBX 19 17 0 0
BITMAP
6DC060
CCC0C0
8CE0C0
886180
486180
003180
003300
001B00
001E00
000E00
000C00
000C00
000C00
000C00
000C00
000C00
000C00
ENDCHAR
STARTCHAR 1F5F
ENCODING 8031
SWIDTH 720 0
DWIDTH 18 0
BBX 19 17 -1 0
BITMAP
758060
DCC0C0
00C0C0
386180
206180
303300
003300
001A00
001E00
001E00
000C00
000C00
000C00
000C00
000C00
000C00
000C00
ENDCHAR
STARTCHAR 1F60
ENCODING 8032
SWIDTH 720 0
DWIDTH 18 0
BBX 15 20 1 0
BITMAP
0300
01C0
00C0
0180
0100
0000
0000
3008
300C
600C
6006
6006
C186
C186
C186
C186
6186
638E
7EFC
1C78
ENDCHAR
STARTCHAR 1F61
ENCODING 8033
SWIDTH 720 0
DWIDTH 18 0
BBX 15 19 1 0
BITMAP
0180
0300
0200
0180
0000
0000
3008
300C
600C
6006
6006
C186
C186
C186
C186
6186
638E
7EFC
1C78
ENDCHAR
STARTCHAR 1F62
ENCODING 8034
SWIDTH 720 0
DWIDTH 18 0
BBX 15 20 1 0
BITMAP
0040
0EC0
06C0
0240
0440
0040
0000
3008
300C
600C
6006
6006
C186
C186
C186
C186
6186
638E
7EFC
1C78
ENDCHAR
STARTCHAR 1F63
ENCODING 8035
SWIDTH 720 0
DWIDTH 18 0
BBX 15 20 1 0
BITMAP
0040
0EC0
08C0
0840
0440
0000
0000
3008
300C
600C
6006
6006
C186
C186
C186
C186
6186
638E
7EFC
1C78
ENDCHAR
STARTCHAR 1F64
ENCODING 8036
SWIDTH 720 0
DWIDTH 18 0
BBX 15 20 1 0
BITMAP
0040
0E60
0640
02C0
04C0
0000
0000
3008
300C
600C
6006
6006
C186
C186
C186
C186
6186
638E
7EFC
1C78
ENDCHAR
STARTCHAR 1F65
ENCODING 8037
SWIDTH 720 0
DWIDTH 18 0
BBX 15 20 1 0
BITMAP
0040
0660
0CC0
0CC0
0680
0000
0000
3008
300C
600C
6006
6006
C186
C186
C186
C186
6186
638E
7EFC
1C78
ENDCHAR
STARTCHAR 1F66
ENCODING 8038
SWIDTH 720 0
DWIDTH 18 0
BBX 15 20 1 0
BITMAP
0720
0CE0
0380
0080
0180
0000
0000
3008
300C
600C
6006
6006
C186
C186
C186
C186
6186
638E
7EFC
1C78
ENDCHAR
STARTCHAR 1F67
ENCODING 8039
SWIDTH 720 0
DWIDTH 18 0
BBX 15 20 1 0
BITMAP
0720
0CE0
0180
0300
0380
0000
0000
3008
300C
600C
6006
6006
C186
C186
C186
C186
6186
638E
7EFC
1C78
ENDCHAR
STARTCHAR 1F68
ENCODING 8040
SWIDTH 760 0
DWIDTH 19 0
BBX 18 17 0 0
BITMAP
C0FC00
61FE00
238700
660380
C60180
0C01C0
0C00C0
0C00C0
0C00C0
0C00C0
0C00C0
0E0180
060180
070300
030300
0F8FC0
0F8FC0
ENDCHAR
STARTCHAR 1F69
ENCODING 8041
SWIDTH 760 0
DWIDTH 19 0
BBX 18 17 0 0
BITMAP
60F800
C3FE00
870700
C60380
6C0180
0C0180
0C0180
0C01C0
0C01C0
0C0180
0C0180
0C0180
060180
060300
030600
1F8FC0
1F8FC0
ENDCHAR
STARTCHAR 1F6A
ENCODING 8042
SWIDTH 920 0
DWIDTH 23 0
BBX 21 17 0 0
BITMAP
CC0F80
6C3FC0
6C70E0
64E030
C4C038
01C018
018018
018018
018018
018018
018018
00C038
00C030
006070
007060
01F8F8
01F8F8
ENDCHAR
STARTCHAR 1F6B
ENCODING 8043
SWIDTH 880 0
DWIDTH 22 0
BBX 21 17 0 0
BITMAP
6C1F80
CC3FC0
8C70E0
8CE070
44C030
01C038
018018
018018
018018
018018
018018
00C030
00C030
006060
006060
01F1F8
01F1F8
ENDCHAR
STARTCHAR 1F6C
ENCODING 8044
SWIDTH 880 0
DWIDTH 22 0
BBX 21 17 0 0
BITMAP
CC1F80
6C3FC0
6C70E0
6CE070
C8C030
018038
018018
018018
018018
018018
018018
00C030
00C030
00E060
006060
01F1F8
01F1F8
ENDCHAR
STARTCHAR 1F6D
ENCODING 8045
SWIDTH 880 0
DWIDTH 22 0
BBX 21 17 0 0
BITMAP
6C1F80
CC3FC0
8C70E0
88C070
48C030
018038
018018
018018
018018
018018
018018
01C030
00C030
00E060
0060E0
01F1F8
01F1F8
ENDCHAR
STARTCHAR 1F6E
ENCODING 8046
SWIDTH 800 0
DWIDTH 20 0
BBX 20 17 -1 0
BITMAP
743F00
DC7F80
00E1C0
31C0E0
198060
338070
030030
030030
030030
030030
030030
018060
018060
00C0C0
00C0C0
03E1F0
03E1F0
ENDCHAR
STARTCHAR 1F6F
ENCODING 8047
SWIDTH 800 0
DWIDTH 20 0
BBX 20 17 -1 0
BITMAP
743F00
DC7F80
00E1C0
39C0E0
218060
338070
030030
030030
030030
030030
030030
018060
018060
00C0C0
00C0C0
03E1F0
03E1F0
ENDCHAR
STARTCHAR 1F70
ENCODING 8048
SWIDTH 560 0
DWIDTH 14 0
BBX 13 20 1 0
BITMAP
1000
1800
0C00
0600
0200
0000
0000
1E30
3F30
71E0
60E0
E060
C060
C060
C060
C0C0
60C0
61C0
3F70
1E78
ENDCHAR
STARTCHAR 1F71
ENCODING 8049
SWIDTH 560 0
DWIDTH 14 0
BBX 13 20 1 0
BITMAP
0080
0180
0300
0600
0400
0000
0000
1E30
3F30
71E0
60E0
E060
C060
C060
C060
C0C0
60C0
61C0
3F70
1E78
ENDCHAR
STARTCHAR 1F72
ENCODING 8050
SWIDTH 440 0
DWIDTH 11 0
BBX 10 20 1 0
BITMAP
3000
3000
1800
0C00
0400
0000
0000
1F00
7F80
6080
6000
6000
3A00
3E00
6000
C000
C000
E080
7FC0
3F00
ENDCHAR
STARTCHAR 1F73
ENCODING 8051
SWIDTH 440 0
DWIDTH 11 0
BBX 10 20 1 0
BITMAP
0100
0380
0700
0C00
0800
0000
0000
1F00
7F80
6080
6000
6000
3A00
3E00
6000
C000
C000
E080
7FC0
3F00
ENDCHAR
STARTCHAR 1F74
ENCODING 8052
SWIDTH 560 0
DWIDTH 14 0
BBX 10 24 2 -4
BITMAP
1000
3000
1800
0C00
0400
0000
0000
CF00
DF80
F180
E0C0
C0C0
C0C0
C0C0
C0C0
C0C0
C0C0
C0C0
C0C0
C0C0
00C0
00C0
00C0
00C0
ENDCHAR
STARTCHAR 1F75
ENCODING 8053
SWIDTH 560 0
DWIDTH 14 0
BBX 10 24 2 -4
BITMAP
0100
0380
0700
0E00
0C00
0000
0000
CF00
DF80
F180
E0C0
C0C0
C0C0
C0C0
C0C0
C0C0
C0C0
C0C0
C0C0
C0C0
00C0
00C0
00C0
00C0
ENDCHAR
STARTCHAR 1F76
ENCODING 8054
SWIDTH 280 0
DWIDTH 7 0
BBX 6 20 0 0
BITMAP
C0
E0
60
30
10
00
00
30
30
30
30
30
30
30
30
30
30
30
3C
1C
ENDCHAR
STARTCHAR 1F77
ENCODING 8055
SWIDTH 280 0
DWIDTH 7 0
BBX 4 20 2 0
BITMAP
30
30
60
C0
80
00
00
C0
C0
C0
C0
C0
C0
C0
C0
C0
C0
C0
F0
70
ENDCHAR
STARTCHAR 1F78
ENCODING 8056
SWIDTH 520 0
DWIDTH 13 0
BBX 11 20 1 0
BITMAP
1000
3800
1C00
0E00
0600
0000
0000
1F00
3F80
70C0
60E0
E060
C060
C060
C060
E060
6060
70C0
3F80
1F00
ENDCHAR
STARTCHAR 1F79
ENCODING 8057
SWIDTH 520 0
DWIDTH 13 0
BBX 11 20 1 0
BITMAP
0100
0180
0300
0600
0400
0000
0000
1F00
3F80
70C0
60E0
E060
C060
C060
C060
E060
6060
70C0
3F80
1F00
ENDCHAR
STARTCHAR 1F7A
ENCODING 8058
SWIDTH 520 0
DWIDTH 13 0
BBX 9 20 2 0
BITMAP
4000
6000
3000
1800
0800
0000
0000
C300
C180
C180
C180
C180
C180
C180
C180
C180
C180
C380
7F00
3C00
ENDCHAR
STARTCHAR 1F7B
ENCODING 8059
SWIDTH 520 0
DWIDTH 13 0
BBX 9 20 2 0
BITMAP
0200
0600
0C00
1800
1000
0000
0000
C300
C180
C180
C180
C180
C180
C180
C180
C180
C180
C380
7F00
3C00
ENDCHAR
STARTCHAR 1F7C
ENCODING 8060
SWIDTH 720 0
DWIDTH 18 0
BBX 15 20 1 0
BITMAP
0400
0E00
0700
0380
0180
0000
0000
3008
300C
600C
6006
6006
C186
C186
C186
C186
6186
638E
7EFC
1C78
ENDCHAR
STARTCHAR 1F7D
ENCODING 8061
SWIDTH 720 0
DWIDTH 18 0
BBX 15 20 1 0
BITMAP
0040
0060
00C0
0180
0100
0000
0000
3008
300C
600C
6006
6006
C186
C186
C186
C186
6186
638E
7EFC
1C78
ENDCHAR
STARTCHAR 1F80
ENCODING 8064
SWIDTH 560 0
DWIDTH 14 0
BBX 13 25 1 -5
BITMAP
0E00
0700
0300
0300
0400
0000
0000
1E30
3F30
71E0
60E0
E060
C060
C060
C060
C0C0
60C0
61C0
3F70
1E78
0000
0600
0600
0600
0300
ENDCHAR
STARTCHAR 1F81
ENCODING 8065
SWIDTH 560 0
DWIDTH 14 0
BBX 13 24 1 -5
BITMAP
0700
0C00
0C00
0600
0000
0000
1E30
3F30
71E0
60E0
E060
C060
C060
C060
C0C0
60C0
61C0
3F70
1E78
0000
0600
0600
0600
0300
ENDCHAR
STARTCHAR 1F82
ENCODING 8066
SWIDTH 560 0
DWIDTH 14 0
BBX 13 25 1 -5
BITMAP
0100
3B00
0900
0980
1980
0000
0000
1E30
3F30
71E0
60E0
E060
C060
C060
C060
C0C0
60C0
61C0
3F70
1E78
0000
0600
0600
0600
0300
ENDCHAR
STARTCHAR 1F83
ENCODING 8067
SWIDTH 560 0
DWIDTH 14 0
BBX 13 25 1 -5
BITMAP
0100
1B00
3100
3100
1980
0000
0000
1E30
3F30
71E0
60E0
E060
C060
C060
C060
C0C0
60C0
61C0
3F70
1E78
0000
0600
0600
0600
0300
ENDCHAR
STARTCHAR 1F84
ENCODING 8068
SWIDTH 560 0
DWIDTH 14 0
BBX 13 25 1 -5
BITMAP
0100
3980
0980
0900
1900
0100
0000
1E30
3F30
71E0
60E0
E060
C060
C060
C060
C0C0
60C0
61C0
3F70
1E78
0000
0600
0600
0600
0300
ENDCHAR
STARTCHAR 1F85
ENCODING 8069
SWIDTH 560 0
DWIDTH 14 0
BBX 13 25 1 -5
BITMAP
0100
1D80
3180
3100
1B00
0000
0000
1E30
3F30
71E0
60E0
E060
C060
C060
C060
C0C0
60C0
61C0
3F70
1E78
0000
0600
0600
0600
0300
ENDCHAR
STARTCHAR 1F86
ENCODING 8070
SWIDTH 560 0
DWIDTH 14 0
BBX 13 25 1 -5
BITMAP
1E80
1380
0600
0300
0600
0000
0000
1E30
3F30
71E0
60E0
E060
C060
C060
C060
C0C0
60C0
61C0
3F70
1E78
0000
0600
0600
0600
0300
ENDCHAR
STARTCHAR 1F87
ENCODING 8071
SWIDTH 560 0
DWIDTH 14 0
BBX 13 25 1 -5
BITMAP
1E80
1380
0700
0C00
0600
0000
0000
1E30
3F30
71E0
60E0
E060
C060
C060
C060
C0C0
60C0
61C0
3F70
1E78
0000
0600
0600
0600
0300
ENDCHAR
STARTCHAR 1F88
ENCODING 8072
SWIDTH 840 0
DWIDTH 21 0
BBX 20 17 0 0
BITMAP
C38000
638000
32C000
26C000
46C000
066000
0C6000
0C6060
0C3060
183060
1FF060
1FF860
301840
301840
301C40
700C70
600C70
ENDCHAR
STARTCHAR 1F89
ENCODING 8073
SWIDTH 840 0
DWIDTH 21 0
BBX 20 17 0 0
BITMAP
638000
C38000
82C000
C6C000
66C000
046000
0C6000
0C60C0
0860C0
1830C0
1FF0C0
1FF0C0
3018C0
3018C0
3018C0
600C70
600C70
ENDCHAR
STARTCHAR 1F8A
ENCODING 8074
SWIDTH 960 0
DWIDTH 24 0
BBX 24 17 0 0
BITMAP
CC3000
6C7800
6C7800
644800
C4CC00
00CC00
00CC00
01860C
01860C
01860C
03FF0C
03FF0C
03030C
06038C
06018C
06018E
0E01C7
ENDCHAR
STARTCHAR 1F8B
ENCODING 8075
SWIDTH 960 0
DWIDTH 24 0
BBX 24 17 0 0
BITMAP
6C3000
CC7800
8C7800
C45800
44CC00
00CC00
00CC00
01860C
01860C
01860C
03FF0C
03FF0C
03030C
06038C
06018C
06018E
0E01C7
ENDCHAR
STARTCHAR 1F8C
ENCODING 8076
SWIDTH 960 0
DWIDTH 24 0
BBX 24 17 0 0
BITMAP
CC3000
6C7800
6C7800
6C5800
C8CC00
00CC00
00CC00
01860C
01860C
01860C
03FF0C
03FF0C
03030C
06038C
06018C
06018E
0E01C7
ENDCHAR
STARTCHAR 1F8D
ENCODING 8077
SWIDTH 960 0
DWIDTH 24 0
BBX 23 17 0 0
BITMAP
6C3000
CC7800
8C7800
C85800
48CC00
00CC00
008C0C
01840C
01860C
01860C
03FE0C
03FF0C
03030C
06030C
06018C
06018E
0C018E
ENDCHAR
STARTCHAR 1F8E
ENCODING 8078
SWIDTH 880 0
DWIDTH 22 0
BBX 22 17 -1 0
BITMAP
74E000
DCE000
00B000
31B000
19B000
311800
031800
031830
021830
060C30
07FC30
07FC30
0C0630
0C0630
0C0630
18031C
18031C
ENDCHAR
STARTCHAR 1F8F
ENCODING 8079
SWIDTH 880 0
DWIDTH 22 0
BBX 22 17 -1 0
BITMAP
74E000
DCE000
00B000
39B000
21B000
311800
031800
031830
021830
060C30
07FC30
07FC30
0C0630
0C0630
0C0630
18031C
18031C
ENDCHAR
STARTCHAR 1F90
ENCODING 8080
SWIDTH 560 0
DWIDTH 14 0
BBX 10 25 2 -5
BITMAP
0C00
0E00
0200
0600
0C00
0000
0000
CF00
DF80
F180
E0C0
C0C0
C0C0
C0C0
C0C0
C0C0
C0C0
C0C0
C0C0
C0C0
00C0
00C0
C0C0
C0C0
6000
ENDCHAR
STARTCHAR 1F91
ENCODING 8081
SWIDTH 560 0
DWIDTH 14 0
BBX 10 24 2 -5
BITMAP
0E00
1800
1800
0C00
0000
0000
CF00
DF80
F180
E0C0
C0C0
C0C0
C0C0
C0C0
C0C0
C0C0
C0C0
C0C0
C0C0
00C0
00C0
C0C0
C0C0
6000
ENDCHAR
STARTCHAR 1F92
ENCODING 8082
SWIDTH 560 0
DWIDTH 14 0
BBX 10 24 2 -4
BITMAP
7200
1B00
1B00
3100
0000
0000
CF00
DF80
F180
E0C0
C0C0
C0C0
C0C0
C0C0
C0C0
C0C0
C0C0
C0C0
C0C0
00C0
00C0
C0C0
C0C0
6000
ENDCHAR
STARTCHAR 1F93
ENCODING 8083
SWIDTH 560 0
DWIDTH 14 0
BBX 10 25 2 -5
BITMAP
0200
3E00
6200
6300
3300
0000
0000
CF00
DF80
F180
E0C0
C0C0
C0C0
C0C0
C0C0
C0C0
C0C0
C0C0
C0C0
C0C0
00C0
00C0
C0C0
C0C0
6000
ENDCHAR
STARTCHAR 1F94
ENCODING 8084
SWIDTH 560 0
DWIDTH 14 0
BBX 10 24 2 -4
BITMAP
7300
1B00
1B00
3200
0000
0000
CF00
DF80
F180
E0C0
C0C0
C0C0
C0C0
C0C0
C0C0
C0C0
C0C0
C0C0
C0C0
00C0
00C0
C0C0
C0C0
6000
ENDCHAR
STARTCHAR 1F95
ENCODING 8085
SWIDTH 560 0
DWIDTH 14 0
BBX 10 25 2 -5
BITMAP
0200
3B00
2300
2200
3200
0200
0000
CF00
DF80
F180
E0C0
C0C0
C0C0
C0C0
C0C0
C0C0
C0C0
C0C0
C0C0
C0C0
00C0
00C0
C0C0
C0C0
6000
ENDCHAR
STARTCHAR 1F96
ENCODING 8086
SWIDTH 560 0
DWIDTH 14 0
BBX 10 25 2 -5
BITMAP
3D80
2700
0C00
0600
0E00
0000
0000
CF00
DF80
F180
E0C0
C0C0
C0C0
C0C0
C0C0
C0C0
C0C0
C0C0
C0C0
C0C0
00C0
00C0
C0C0
C0C0
6000
ENDCHAR
STARTCHAR 1F97
ENCODING 8087
SWIDTH 560 0
DWIDTH 14 0
BBX 10 25 2 -5
BITMAP
3D80
2700
0E00
0800
0C00
0000
0000
CF00
DF80
F180
E0C0
C0C0
C0C0
C0C0
C0C0
C0C0
C0C0
C0C0
C0C0
C0C0
00C0
00C0
C0C0
C0C0
6000
ENDCHAR
STARTCHAR 1F98
ENCODING 8088
SWIDTH 1040 0
DWIDTH 26 0
BBX 25 17 0 0
BITMAP
C6018000
66018000
26018000
66018000
C6018000
06018000
06018000
07FF8600
07FF8600
06018600
06018600
06018600
06018600
06018600
06018600
06018780
06018380
ENDCHAR
STARTCHAR 1F99
ENCODING 8089
SWIDTH 1040 0
DWIDTH 26 0
BBX 25 17 0 0
BITMAP
66018000
C6018000
86018000
C6018000
66018000
06018000
06018600
07FF8600
07FF8600
06018600
06018600
06018600
06018600
06018600
06018600
06018780
06018380
ENDCHAR
STARTCHAR 1F9A
ENCODING 8090
SWIDTH 1160 0
DWIDTH 29 0
BBX 28 17 0 0
BITMAP
CCC03000
6CC03000
6CC03000
64C03000
C4C03000
00C03000
00C03000
00FFF0C0
00FFF0C0
00C030C0
00C030C0
00C030C0
00C030C0
00C030C0
00C030C0
00C030F0
00C03070
ENDCHAR
STARTCHAR 1F9B
ENCODING 8091
SWIDTH 1160 0
DWIDTH 29 0
BBX 28 17 0 0
BITMAP
6CC03000
CCC03000
8CC03000
C4C03000
44C03000
00C03000
00C03000
00FFF0C0
00FFF0C0
00C030C0
00C030C0
00C030C0
00C030C0
00C030C0
00C030C0
00C030F0
00C03070
ENDCHAR
STARTCHAR 1F9C
ENCODING 8092
SWIDTH 1160 0
DWIDTH 29 0
BBX 28 17 0 0
BITMAP
CCC03000
6CC03000
6CC03000
6CC03000
C8C03000
00C03000
00C03000
00FFF0C0
00FFF0C0
00C030C0
00C030C0
00C030C0
00C030C0
00C030C0
00C030C0
00C030F0
00C03070
ENDCHAR
STARTCHAR 1F9D
ENCODING 8093
SWIDTH 1160 0
DWIDTH 29 0
BBX 28 17 0 0
BITMAP
6CC03000
CCC03000
8CC03000
88C03000
48C03000
00C03000
00C03000
00FFF0C0
00FFF0C0
00C030C0
00C030C0
00C030C0
00C030C0
00C030C0
00C030C0
00C030F0
00C03070
ENDCHAR
STARTCHAR 1F9E
ENCODING 8094
SWIDTH 1080 0
DWIDTH 27 0
BBX 28 17 -1 0
BITMAP
74C03000
DCC03000
00C03000
30C03000
18C03000
10C03000
00C03000
00FFF0C0
00FFF0C0
00C030C0
00C030C0
00C030C0
00C030C0
00C030C0
00C030C0
00C030F0
00C03070
ENDCHAR
STARTCHAR 1F9F
ENCODING 8095
SWIDTH 1080 0
DWIDTH 27 0
BBX 28 17 -1 0
BITMAP
74C03000
DCC03000
38C03000
20C03000
30C03000
00C03000
00C030C0
00FFF0C0
00FFF0C0
00C030C0
00C030C0
00C030C0
00C030C0
00C030C0
00C030C0
00C030F0
00C03070
ENDCHAR
STARTCHAR 1FA0
ENCODING 8096
SWIDTH 720 0
DWIDTH 18 0
BBX 15 25 1 -5
BITMAP
0300
01C0
00C0
0180
0100
0000
0000
3008
300C
600C
6006
6006
C186
C186
C186
C186
6186
638E
7EFC
1C78
0000
0100
0100
0180
01C0
ENDCHAR
STARTCHAR 1FA1
ENCODING 8097
SWIDTH 720 0
DWIDTH 18 0
BBX 15 24 1 -5
BITMAP
0180
0300
0200
0180
0000
0000
3008
300C
600C
6006
6006
C186
C186
C186
C186
6186
638E
7EFC
1C78
0000
0100
0100
0180
01C0
ENDCHAR
STARTCHAR 1FA2
ENCODING 8098
SWIDTH 720 0
DWIDTH 18 0
BBX 15 25 1 -5
BITMAP
0040
0EC0
06C0
0240
0440
0040
0000
3008
300C
600C
6006
6006
C186
C186
C186
C186
6186
638E
7EFC
1C78
0000
0100
0100
0180
01C0
ENDCHAR
STARTCHAR 1FA3
ENCODING 8099
SWIDTH 720 0
DWIDTH 18 0
BBX 15 25 1 -5
BITMAP
0040
0EC0
08C0
0840
0440
0000
0000
3008
300C
600C
6006
6006
C186
C186
C186
C186
6186
638E
7EFC
1C78
0000
0100
0100
0180
01C0
ENDCHAR
STARTCHAR 1FA4
ENCODING 8100
SWIDTH 720 0
DWIDTH 18 0
BBX 15 25 1 -5
BITMAP
0040
0E60
0640
02C0
04C0
0000
0000
3008
300C
600C
6006
6006
C186
C186
C186
C186
6186
638E
7EFC
1C78
0000
0100
0100
0180
01C0
ENDCHAR
STARTCHAR 1FA5
ENCODING 8101
SWIDTH 720 0
DWIDTH 18 0
BBX 15 25 1 -5
BITMAP
0040
0660
0CC0
0CC0
0680
0000
0000
3008
300C
600C
6006
6006
C186
C186
C186
C186
6186
638E
7EFC
1C78
0000
0100
0100
0180
01C0
ENDCHAR
STARTCHAR 1FA6
ENCODING 8102
SWIDTH 720 0
DWIDTH 18 0
BBX 15 25 1 -5
BITMAP
0720
0CE0
0380
0080
0180
0000
0000
3008
300C
600C
6006
6006
C186
C186
C186
C186
6186
638E
7EFC
1C78
0000
0100
0100
0180
01C0
ENDCHAR
STARTCHAR 1FA7
ENCODING 8103
SWIDTH 720 0
DWIDTH 18 0
BBX 15 25 1 -5
BITMAP
0720
0CE0
0180
0300
0380
0000
0000
3008
300C
600C
6006
6006
C186
C186
C186
C186
6186
638E
7EFC
1C78
0000
0100
0100
0180
01C0
ENDCHAR
STARTCHAR 1FA8
ENCODING 8104
SWIDTH 1040 0
DWIDTH 26 0
BBX 25 17 0 0
BITMAP
C0FC0000
61FE0000
23870000
66038000
C6018000
0C01C000
0C00C000
0C00C600
0C00C600
0C00C600
0C00C600
0E018600
06018600
07030600
03030600
0F8FC780
0F8FC380
ENDCHAR
STARTCHAR 1FA9
ENCODING 8105
SWIDTH 1000 0
DWIDTH 25 0
BBX 25 17 0 0
BITMAP
60F80000
C3FE0000
87070000
C6038000
6C018000
0C018000
0C018000
0C01C600
0C01C600
0C018600
0C018600
0C018600
06018600
06030600
03060600
1F8FC780
1F8FC380
ENDCHAR
STARTCHAR 1FAA
ENCODING 8106
SWIDTH 1160 0
DWIDTH 29 0
BBX 28 17 0 0
BITMAP
CC0F8000
6C3FC000
6C70E000
64E03000
C4C03800
01C01800
01801800
018018E0
018018E0
018018E0
018018C0
00C038C0
00C030C0
006070C0
007060C0
01F8F870
01F8F870
ENDCHAR
STARTCHAR 1FAB
ENCODING 8107
SWIDTH 1160 0
DWIDTH 29 0
BBX 28 17 0 0
BITMAP
6C1F8000
CC3FC000
8C70E000
8CE07000
44C03000
01C03800
01801800
018018C0
018018C0
018018C0
018018C0
00C030C0
00C030C0
006060C0
006060C0
01F1F870
01F1F870
ENDCHAR
STARTCHAR 1FAC
ENCODING 8108
SWIDTH 1160 0
DWIDTH 29 0
BBX 28 17 0 0
BITMAP
CC1F8000
6C3FC000
6C70E000
6CE07000
C8C03000
01803800
01801800
018018C0
018018C0
018018C0
018018C0
00C030C0
00C030C0
00E060C0
006060C0
01F1F870
01F1F870
ENDCHAR
STARTCHAR 1FAD
ENCODING 8109
SWIDTH 1160 0
DWIDTH 29 0
BBX 28 17 0 0
BITMAP
6C1F8000
CC3FC000
8C70E000
88C07000
48C03000
01803800
01801800
018018C0
018018C0
018018C0
018018C0
01C030C0
00C030C0
00E060C0
0060E0C0
01F1F8F0
01F1F870
ENDCHAR
STARTCHAR 1FAE
ENCODING 8110
SWIDTH 1080 0
DWIDTH 27 0
BBX 27 17 -1 0
BITMAP
743F0000
DC7F8000
00E1C000
31C0E000
19806000
33807000
03003000
030031C0
030031C0
030031C0
03003180
01806180
01806180
00C0C180
00C0C180
03E1F0E0
03E1F0E0
ENDCHAR
STARTCHAR 1FAF
ENCODING 8111
SWIDTH 1080 0
DWIDTH 27 0
BBX 27 17 -1 0
BITMAP
743F0000
DC7F8000
00E1C000
39C0E000
21806000
33807000
03003000
030031C0
030031C0
030031C0
03003180
01806180
01806180
00C0C180
00C0C180
03E1F0E0
03E1F0E0
ENDCHAR
STARTCHAR 1FB0
ENCODING 8112
SWIDTH 560 0
DWIDTH 14 0
BBX 13 18 1 0
BITMAP
3040
18C0
1F80
0000
0000
1E30
3F30
71E0
60E0
E060
C060
C060
C060
C0C0
60C0
61C0
3F70
1E78
ENDCHAR
STARTCHAR 1FB1
ENCODING 8113
SWIDTH 560 0
DWIDTH 14 0
BBX 13 17 1 0
BITMAP
1F80
0000
0000
0000
1E30
3F30
71E0
60E0
E060
C060
C060
C060
C0C0
60C0
61C0
3F70
1E78
ENDCHAR
STARTCHAR 1FB2
ENCODING 8114
SWIDTH 560 0
DWIDTH 14 0
BBX 13 25 1 -5
BITMAP
1000
1800
0C00
0600
0200
0000
0000
1E30
3F30
71E0
60E0
E060
C060
C060
C060
C0C0
60C0
61C0
3F70
1E78
0000
0600
0600
0600
0300
ENDCHAR
STARTCHAR 1FB3
ENCODING 8115
SWIDTH 560 0
DWIDTH 14 0
BBX 13 18 1 -5
BITMAP
1E30
3F30
71E0
60E0
E060
C060
C060
C060
C0C0
60C0
61C0
3F70
1E78
0000
0600
0600
0600
0300
ENDCHAR
STARTCHAR 1FB4
ENCODING 8116
SWIDTH 560 0
DWIDTH 14 0
BBX 13 25 1 -5
BITMAP
0080
0180
0300
0600
0400
0000
0000
1E30
3F30
71E0
60E0
E060
C060
C060
C060
C0C0
60C0
61C0
3F70
1E78
0000
0600
0600
0600
0300
ENDCHAR
STARTCHAR 1FB6
ENCODING 8118
SWIDTH 560 0
DWIDTH 14 0
BBX 13 18 1 0
BITMAP
1C40
3640
23C0
0000
0000
1E30
3F30
71E0
60E0
E060
C060
C060
C060
C0C0
60C0
61C0
3F70
1E78
ENDCHAR
STARTCHAR 1FB7
ENCODING 8119
SWIDTH 560 0
DWIDTH 14 0
BBX 13 23 1 -5
BITMAP
1C40
3640
23C0
0000
0000
1E30
3F30
71E0
60E0
E060
C060
C060
C060
C0C0
60C0
61C0
3F70
1E78
0000
0600
0600
0600
0300
ENDCHAR
STARTCHAR 1FB8
ENCODING 8120
SWIDTH 560 0
DWIDTH 14 0
BBX 13 21 0 0
BITMAP
1840
0CC0
0780
0000
0700
0700
0580
0D80
0C80
0CC0
18C0
18C0
1860
1060
3FE0
3FF0
3030
6030
6018
6018
C018
ENDCHAR
STARTCHAR 1FB9
ENCODING 8121
SWIDTH 560 0
DWIDTH 14 0
BBX 13 20 0 0
BITMAP
1FC0
0000
0000
0700
0700
0580
0D80
0C80
0CC0
18C0
18C0
1860
1060
3FE0
3FF0
3030
6030
6018
6018
C018
ENDCHAR
STARTCHAR 1FBA
ENCODING 8122
SWIDTH 560 0
DWIDTH 14 0
BBX 14 17 0 0
BITMAP
C380
C380
4680
66C0
64C0
0CC0
0C60
0C60
1860
1830
1FF0
3FF0
3018
3018
6018
601C
600C
ENDCHAR
STARTCHAR 1FBB
ENCODING 8123
SWIDTH 560 0
DWIDTH 14 0
BBX 14 17 0 0
BITMAP
6380
4380
C680
C6C0
C4C0
0CC0
0C60
0C60
1860
1830
1FF0
3FF0
3018
3018
6018
601C
600C
ENDCHAR
STARTCHAR 1FBC
ENCODING 8124
SWIDTH 800 0
DWIDTH 20 0
BBX 19 17 0 0
BITMAP
070000
070000
058000
0D8000
0C8000
0CC000
18C0C0
18C0C0
1860C0
1060C0
3FE0C0
3FF0C0
3030C0
6030C0
6018C0
6018E0
C018E0
ENDCHAR
STARTCHAR 1FBD
ENCODING 8125
SWIDTH 560 0
DWIDTH 14 0
BBX 4 5 5 14
BITMAP
E0
70
30
60
40
ENDCHAR
STARTCHAR 1FBE
ENCODING 8126
SWIDTH 280 0
DWIDTH 7 0
BBX 4 10 2 0
BITMAP
C0
C0
C0
C0
C0
C0
C0
C0
F0
70
ENDCHAR
STARTCHAR 1FBF
ENCODING 8127
SWIDTH 560 0
DWIDTH 14 0
BBX 4 5 5 14
BITMAP
E0
70
30
60
40
ENDCHAR
STARTCHAR 1FC0
ENCODING 8128
SWIDTH 560 0
DWIDTH 14 0
BBX 8 3 3 15
BITMAP
61
FB
8E
ENDCHAR
STARTCHAR 1FC1
ENCODING 8129
SWIDTH 560 0
DWIDTH 14 0
BBX 8 5 3 15
BITMAP
F3
9E
00
C6
C6
ENDCHAR
STARTCHAR 1FC2
ENCODING 8130
SWIDTH 560 0
DWIDTH 14 0
BBX 10 25 2 -5
BITMAP
1000
3000
1800
0C00
0400
0000
0000
CF00
DF80
F180
E0C0
C0C0
C0C0
C0C0
C0C0
C0C0
C0C0
C0C0
C0C0
C0C0
00C0
00C0
C0C0
C0C0
6000
ENDCHAR
STARTCHAR 1FC3
ENCODING 8131
SWIDTH 560 0
DWIDTH 14 0
BBX 10 18 2 -5
BITMAP
CF00
DF80
F180
E0C0
C0C0
C0C0
C0C0
C0C0
C0C0
C0C0
C0C0
C0C0
C0C0
00C0
00C0
C0C0
C0C0
6000
ENDCHAR
STARTCHAR 1FC4
ENCODING 8132
SWIDTH 560 0
DWIDTH 14 0
BBX 10 25 2 -5
BITMAP
0100
0380
0700
0E00
0C00
0000
0000
CF00
DF80
F180
E0C0
C0C0
C0C0
C0C0
C0C0
C0C0
C0C0
C0C0
C0C0
C0C0
00C0
00C0
C0C0
C0C0
6000
ENDCHAR
STARTCHAR 1FC6
ENCODING 8134
SWIDTH 560 0
DWIDTH 14 0
BBX 10 22 2 -4
BITMAP
38C0
6C80
4780
0000
0000
CF00
DF80
F180
E0C0
C0C0
C0C0
C0C0
C0C0
C0C0
C0C0
C0C0
C0C0
C0C0
00C0
00C0
00C0
00C0
ENDCHAR
STARTCHAR 1FC7
ENCODING 8135
SWIDTH 560 0
DWIDTH 14 0
BBX 10 23 2 -5
BITMAP
38C0
6C80
4780
0000
0000
CF00
DF80
F180
E0C0
C0C0
C0C0
C0C0
C0C0
C0C0
C0C0
C0C0
C0C0
C0C0
00C0
00C0
C0C0
C0C0
6000
ENDCHAR
STARTCHAR 1FC8
ENCODING 8136
SWIDTH 600 0
DWIDTH 15 0
BBX 14 17 0 0
BITMAP
8FF8
CFF8
CC00
CC00
4C00
0C00
0C00
0FF0
0FF0
0C00
0C00
0C00
0C00
0C00
0C00
0FFC
0FFC
ENDCHAR
STARTCHAR 1FC9
ENCODING 8137
SWIDTH 600 0
DWIDTH 15 0
BBX 14 17 0 0
BITMAP
CFF8
CFF8
CC00
8C00
8C00
0C00
0C00
0FF0
0FF0
0C00
0C00
0C00
0C00
0C00
0C00
0FFC
0FFC
ENDCHAR
STARTCHAR 1FCA
ENCODING 8138
SWIDTH 720 0
DWIDTH 18 0
BBX 16 17 0 0
BITMAP
8C03
CC03
CC03
CC03
4C03
0C03
0C03
0FFF
0FFF
0C03
0C03
0C03
0C03
0C03
0C03
0C03
0C03
ENDCHAR
STARTCHAR 1FCB
ENCODING 8139
SWIDTH 720 0
DWIDTH 18 0
BBX 16 17 0 0
BITMAP
CC03
CC03
CC03
8C03
8C03
0C03
0C03
0FFF
0FFF
0C03
0C03
0C03
0C03
0C03
0C03
0C03
0C03
ENDCHAR
STARTCHAR 1FCC
ENCODING 8140
SWIDTH 920 0
DWIDTH 23 0
BBX 20 17 2 0
BITMAP
C03000
C03000
C03000
C03000
C03000
C03000
C030C0
FFF0C0
FFF0C0
C030C0
C030C0
C030C0
C030C0
C030C0
C030C0
C030F0
C03070
ENDCHAR
STARTCHAR 1FCD
ENCODING 8141
SWIDTH 560 0
DWIDTH 14 0
BBX 7 5 3 14
BITMAP
CC
6C
24
64
06
ENDCHAR
STARTCHAR 1FCE
ENCODING 8142
SWIDTH 560 0
DWIDTH 14 0
BBX 7 5 3 14
BITMAP
C6
64
24
6C
08
ENDCHAR
STARTCHAR 1FCF
ENCODING 8143
SWIDTH 560 0
DWIDTH 14 0
BBX 7 6 3 14
BITMAP
72
DE
00
38
08
18
ENDCHAR
STARTCHAR 1FD0
ENCODING 8144
SWIDTH 280 0
DWIDTH 7 0
BBX 8 18 -1 0
BITMAP
C1
63
7E
00
00
18
18
18
18
18
18
18
18
18
18
18
1E
0E
ENDCHAR
STARTCHAR 1FD1
ENCODING 8145
SWIDTH 280 0
DWIDTH 7 0
BBX 6 17 0 0
BITMAP
FC
00
00
00
30
30
30
30
30
30
30
30
30
30
30
3C
1C
ENDCHAR
STARTCHAR 1FD2
ENCODING 8146
SWIDTH 280 0
DWIDTH 7 0
BBX 8 20 -1 0
BITMAP
10
10
DB
CB
08
00
00
18
18
18
18
18
18
18
18
18
18
18
1E
0E
ENDCHAR
STARTCHAR 1FD3
ENCODING 8147
SWIDTH 280 0
DWIDTH 7 0
BBX 8 20 -1 0
BITMAP
0C
08
CB
DB
10
00
00
18
18
18
18
18
18
18
18
18
18
18
1E
0E
ENDCHAR
STARTCHAR 1FD6
ENCODING 8150
SWIDTH 280 0
DWIDTH 7 0
BBX 8 18 -1 0
BITMAP
71
D9
8F
00
00
18
18
18
18
18
18
18
18
18
18
18
1E
0E
ENDCHAR
STARTCHAR 1FD7
ENCODING 8151
SWIDTH 280 0
DWIDTH 7 0
BBX 8 20 -1 0
BITMAP
7B
CE
00
67
62
00
00
18
18
18
18
18
18
18
18
18
18
18
1E
0E
ENDCHAR
STARTCHAR 1FD8
ENCODING 8152
SWIDTH 280 0
DWIDTH 7 0
BBX 7 21 0 0
BITMAP
86
CC
78
00
30
30
30
30
30
30
30
30
30
30
30
30
30
30
30
30
30
ENDCHAR
STARTCHAR 1FD9
ENCODING 8153
SWIDTH 280 0
DWIDTH 7 0
BBX 7 20 0 0
BITMAP
FE
00
00
30
30
30
30
30
30
30
30
30
30
30
30
30
30
30
30
30
ENDCHAR
STARTCHAR 1FDA
ENCODING 8154
SWIDTH 320 0
DWIDTH 8 0
BBX 6 17 0 0
BITMAP
8C
CC
CC
CC
4C
0C
0C
0C
0C
0C
0C
0C
0C
0C
0C
0C
0C
ENDCHAR
STARTCHAR 1FDB
ENCODING 8155
SWIDTH 320 0
DWIDTH 8 0
BBX 6 17 0 0
BITMAP
CC
CC
CC
8C
8C
0C
0C
0C
0C
0C
0C
0C
0C
0C
0C
0C
0C
ENDCHAR
STARTCHAR 1FDD
ENCODING 8157
SWIDTH 560 0
DWIDTH 14 0
BBX 6 5 3 14
BITMAP
6C
CC
8C
C4
04
ENDCHAR
STARTCHAR 1FDE
ENCODING 8158
SWIDTH 560 0
DWIDTH 14 0
BBX 7 5 3 14
BITMAP
66
C4
CC
EC
08
ENDCHAR
STARTCHAR 1FDF
ENCODING 8159
SWIDTH 560 0
DWIDTH 14 0
BBX 7 6 3 14
BITMAP
72
DE
00
18
30
18
ENDCHAR
STARTCHAR 1FE0
ENCODING 8160
SWIDTH 520 0
DWIDTH 13 0
BBX 9 18 2 0
BITMAP
C100
6300
7E00
0000
0000
C300
C180
C180
C180
C180
C180
C180
C180
C180
C180
C380
7F00
3C00
ENDCHAR
STARTCHAR 1FE1
ENCODING 8161
SWIDTH 520 0
DWIDTH 13 0
BBX 9 17 2 0
BITMAP
7E00
0000
0000
0000
C300
C180
C180
C180
C180
C180
C180
C180
C180
C180
C380
7F00
3C00
ENDCHAR
STARTCHAR 1FE2
ENCODING 8162
SWIDTH 520 0
DWIDTH 13 0
BBX 9 19 2 0
BITMAP
1000
1000
DB00
CB00
0800
0000
C300
C180
C180
C180
C180
C180
C180
C180
C180
C180
C380
7F00
3C00
ENDCHAR
STARTCHAR 1FE3
ENCODING 8163
SWIDTH 520 0
DWIDTH 13 0
BBX 9 19 2 0
BITMAP
0C00
0800
CB00
DB00
1000
0000
C300
C180
C180
C180
C180
C180
C180
C180
C180
C180
C380
7F00
3C00
ENDCHAR
STARTCHAR 1FE4
ENCODING 8164
SWIDTH 560 0
DWIDTH 14 0
BBX 11 24 2 -4
BITMAP
0C00
0E00
0200
0600
0C00
0000
0000
1F00
3F80
61C0
E0C0
C0C0
C0E0
C0E0
C0C0
C0C0
C0C0
E1C0
FF80
DE00
C000
C000
C000
C000
ENDCHAR
STARTCHAR 1FE5
ENCODING 8165
SWIDTH 560 0
DWIDTH 14 0
BBX 11 23 2 -4
BITMAP
0E00
1800
1800
0C00
0000
0000
1F00
3F80
61C0
E0C0
C0C0
C0E0
C0E0
C0C0
C0C0
C0C0
E1C0
FF80
DE00
C000
C000
C000
C000
ENDCHAR
STARTCHAR 1FE6
ENCODING 8166
SWIDTH 520 0
DWIDTH 13 0
BBX 9 18 2 0
BITMAP
7100
D900
8F00
0000
0000
C300
C180
C180
C180
C180
C180
C180
C180
C180
C180
C380
7F00
3C00
ENDCHAR
STARTCHAR 1FE7
ENCODING 8167
SWIDTH 520 0
DWIDTH 13 0
BBX 9 20 2 0
BITMAP
7B00
CE00
0000
6700
6200
0000
0000
C300
C180
C180
C180
C180
C180
C180
C180
C180
C180
C380
7F00
3C00
ENDCHAR
STARTCHAR 1FE8
ENCODING 8168
SWIDTH 480 0
DWIDTH 12 0
BBX 12 21 0 0
BITMAP
3080
1980
0F00
0000
C030
6060
6060
30C0
30C0
1980
1980
1F00
0F00
0E00
0600
0600
0600
0600
0600
0600
0600
ENDCHAR
STARTCHAR 1FE9
ENCODING 8169
SWIDTH 480 0
DWIDTH 12 0
BBX 12 20 0 0
BITMAP
1F80
0000
0000
C030
6060
6060
30C0
30C0
1980
1980
1F00
0F00
0E00
0600
0600
0600
0600
0600
0600
0600
ENDCHAR
STARTCHAR 1FEA
ENCODING 8170
SWIDTH 600 0
DWIDTH 15 0
BBX 15 17 0 0
BITMAP
9C06
CC0C
CC0C
C618
4618
0330
0330
01A0
01E0
00E0
00C0
00C0
00C0
00C0
00C0
00C0
00C0
ENDCHAR
STARTCHAR 1FEB
ENCODING 8171
SWIDTH 600 0
DWIDTH 15 0
BBX 15 17 0 0
BITMAP
DC06
CC0C
CC0C
8618
8618
0330
0330
01A0
01E0
00E0
00C0
00C0
00C0
00C0
00C0
00C0
00C0
ENDCHAR
STARTCHAR 1FEC
ENCODING 8172
SWIDTH 680 0
DWIDTH 17 0
BBX 16 17 0 0
BITMAP
67F8
C7FE
8607
C603
6603
0603
0603
0606
07FE
07F8
0600
0600
0600
0600
0600
0600
0600
ENDCHAR
STARTCHAR 1FED
ENCODING 8173
SWIDTH 560 0
DWIDTH 14 0
BBX 8 5 3 14
BITMAP
30
10
D3
DB
08
ENDCHAR
STARTCHAR 1FEE
ENCODING 8174
SWIDTH 560 0
DWIDTH 14 0
BBX 8 5 3 14
BITMAP
08
18
DB
D3
10
ENDCHAR
STARTCHAR 1FEF
ENCODING 8175
SWIDTH 560 0
DWIDTH 14 0
BBX 3 5 5 14
BITMAP
C0
C0
C0
40
60
ENDCHAR
STARTCHAR 1FF2
ENCODING 8178
SWIDTH 720 0
DWIDTH 18 0
BBX 15 25 1 -5
BITMAP
0400
0E00
0700
0380
0180
0000
0000
3008
300C
600C
6006
6006
C186
C186
C186
C186
6186
638E
7EFC
1C78
0000
0100
0100
0180
01C0
ENDCHAR
STARTCHAR 1FF3
ENCODING 8179
SWIDTH 720 0
DWIDTH 18 0
BBX 15 18 1 -5
BITMAP
3008
300C
600C
6006
6006
C186
C186
C186
C186
6186
638E
7EFC
1C78
0000
0100
0100
0180
01C0
ENDCHAR
STARTCHAR 1FF4
ENCODING 8180
SWIDTH 720 0
DWIDTH 18 0
BBX 15 25 1 -5
BITMAP
0040
0060
00C0
0180
0100
0000
0000
3008
300C
600C
6006
6006
C186
C186
C186
C186
6186
638E
7EFC
1C78
0000
0100
0100
0180
01C0
ENDCHAR
STARTCHAR 1FF6
ENCODING 8182
SWIDTH 720 0
DWIDTH 18 0
BBX 15 18 1 0
BITMAP
0710
0FB0
18E0
0000
0000
3008
300C
600C
6006
6006
C186
C186
C186
C186
6186
638E
7EFC
1C78
ENDCHAR
STARTCHAR 1FF7
ENCODING 8183
SWIDTH 720 0
DWIDTH 18 0
BBX 15 23 1 -5
BITMAP
0710
0FB0
18E0
0000
0000
3008
300C
600C
6006
6006
C186
C186
C186
C186
6186
638E
7EFC
1C78
0000
0100
0100
0180
01C0
ENDCHAR
STARTCHAR 1FF8
ENCODING 8184
SWIDTH 720 0
DWIDTH 18 0
BBX 18 17 -1 0
BITMAP
C0F800
63FE00
670700
660380
2E0180
0C0180
0C01C0
0C01C0
0C01C0
0C01C0
0C01C0
0C0180
0E0180
060300
070700
03FE00
00F800
ENDCHAR
STARTCHAR 1FF9
ENCODING 8185
SWIDTH 720 0
DWIDTH 18 0
BBX 16 17 0 0
BITMAP
C1F0
C7FC
CE0E
8C06
9803
1803
1803
1803
3803
1803
1803
1803
1C03
0C06
0E0E
07FC
01F0
ENDCHAR
STARTCHAR 1FFA
ENCODING 8186
SWIDTH 720 0
DWIDTH 18 0
BBX 17 17 0 0
BITMAP
81F000
C7FC00
CE0E00
CC0700
5C0300
180300
180380
180180
180180
180180
180300
180300
0C0300
0C0600
060C00
3F1F80
3F1F80
ENDCHAR
STARTCHAR 1FFB
ENCODING 8187
SWIDTH 720 0
DWIDTH 18 0
BBX 18 17 -1 0
BITMAP
60F800
63FE00
470700
460380
CE0180
0C0180
0C01C0
0C01C0
0C00C0
0C01C0
0C0180
0C0180
060180
060300
030600
1F8FC0
1F8FC0
ENDCHAR
STARTCHAR 1FFC
ENCODING 8188
SWIDTH 920 0
DWIDTH 23 0
BBX 22 17 1 0
BITMAP
07C000
1FF000
383800
301800
600C00
600C00
600C00
600C30
E00C30
600C30
600C30
600C30
701830
301830
183030
FC7E3C
FC7E1C
ENDCHAR
STARTCHAR 1FFD
ENCODING 8189
SWIDTH 560 0
DWIDTH 14 0
BBX 3 5 6 14
BITMAP
60
60
C0
C0
C0
ENDCHAR
STARTCHAR 1FFE
ENCODING 8190
SWIDTH 560 0
DWIDTH 14 0
BBX 3 5 5 14
BITMAP
60
C0
80
E0
20
ENDCHAR
STARTCHAR 2007
ENCODING 8199
SWIDTH 480 0
DWIDTH 12 0
BBX 0 0 0 0
BITMAP
ENDCHAR
STARTCHAR 2012
ENCODING 8210
SWIDTH 480 0
DWIDTH 12 0
BBX 10 1 1 6
BITMAP
FFC0
ENDCHAR
STARTCHAR 2013
ENCODING 8211
SWIDTH 480 0
DWIDTH 12 0
BBX 10 1 1 6
BITMAP
FFC0
ENDCHAR
STARTCHAR 2014
ENCODING 8212
SWIDTH 800 0
DWIDTH 20 0
BBX 18 1 1 6
BITMAP
FFFFC0
ENDCHAR
STARTCHAR 2015
ENCODING 8213
SWIDTH 800 0
DWIDTH 20 0
BBX 18 1 1 6
BITMAP
FFFFC0
ENDCHAR
STARTCHAR 2016
ENCODING 8214
SWIDTH 400 0
DWIDTH 10 0
BBX 5 25 2 -6
BITMAP
C8
C8
C8
C8
C8
C8
C8
C8
C8
C8
C8
C8
C8
C8
C8
C8
C8
C8
C8
C8
C8
C8
C8
C8
C8
ENDCHAR
STARTCHAR 2018
ENCODING 8216
SWIDTH 240 0
DWIDTH 6 0
BBX 3 6 1 12
BITMAP
20
40
40
C0
E0
60
ENDCHAR
STARTCHAR 2019
ENCODING 8217
SWIDTH 240 0
DWIDTH 6 0
BBX 3 7 2 11
BITMAP
40
E0
E0
60
40
C0
80
ENDCHAR
STARTCHAR 201A
ENCODING 8218
SWIDTH 240 0
DWIDTH 6 0
BBX 3 6 2 -4
BITMAP
C0
E0
60
60
40
C0
ENDCHAR
STARTCHAR 201C
ENCODING 8220
SWIDTH 440 0
DWIDTH 11 0
BBX 8 7 1 11
BITMAP
01
23
46
44
C6
E7
66
ENDCHAR
STARTCHAR 201D
ENCODING 8221
SWIDTH 440 0
DWIDTH 11 0
BBX 7 7 2 11
BITMAP
44
EE
E6
62
42
C4
88
ENDCHAR
STARTCHAR 201E
ENCODING 8222
SWIDTH 440 0
DWIDTH 11 0
BBX 7 7 2 -4
BITMAP
C6
EE
66
62
46
CC
08
ENDCHAR
STARTCHAR 2020
ENCODING 8224
SWIDTH 440 0
DWIDTH 11 0
BBX 9 20 1 -2
BITMAP
0C00
0800
0800
0800
FF80
FF80
0800
0800
0800
0800
0800
0800
0C00
0C00
0C00
0C00
0C00
0C00
0C00
0C00
ENDCHAR
STARTCHAR 2021
ENCODING 8225
SWIDTH 440 0
DWIDTH 11 0
BBX 9 20 1 -2
BITMAP
0C00
0800
0800
0800
FF80
FF80
0800
0800
0C00
0C00
0C00
0C00
0800
0800
FF80
FF80
0800
0800
0C00
0C00
ENDCHAR
STARTCHAR 2022
ENCODING 8226
SWIDTH 320 0
DWIDTH 8 0
BBX 6 6 1 4
BITMAP
70
F8
FC
FC
F8
70
ENDCHAR
STARTCHAR 2026
ENCODING 8230
SWIDTH 960 0
DWIDTH 24 0
BBX 20 3 2 0
BITMAP
606070
E07070
606070
ENDCHAR
STARTCHAR 202F
ENCODING 8239
SWIDTH 120 0
DWIDTH 3 0
BBX 0 0 0 0
BITMAP
ENDCHAR
STARTCHAR 2030
ENCODING 8240
SWIDTH 1200 0
DWIDTH 30 0
BBX 28 17 1 0
BITMAP
38040000
6C0C0000
C6080000
C2180000
82100000
82300000
C2200000
C64783E0
464CC660
7C884430
01986430
01186430
03186430
02186430
06084630
040CC760
0C0783C0
ENDCHAR
STARTCHAR 2032
ENCODING 8242
SWIDTH 240 0
DWIDTH 6 0
BBX 3 6 2 11
BITMAP
60
C0
C0
C0
C0
C0
ENDCHAR
STARTCHAR 2033
ENCODING 8243
SWIDTH 440 0
DWIDTH 11 0
BBX 7 6 2 11
BITMAP
66
C6
C6
C4
C4
C4
ENDCHAR
STARTCHAR 2035
ENCODING 8245
SWIDTH 240 0
DWIDTH 6 0
BBX 2 6 2 11
BITMAP
C0
C0
C0
C0
C0
40
ENDCHAR
STARTCHAR 2039
ENCODING 8249
SWIDTH 280 0
DWIDTH 7 0
BBX 4 9 1 2
BITMAP
10
30
60
C0
C0
C0
60
30
10
ENDCHAR
STARTCHAR 203A
ENCODING 8250
SWIDTH 280 0
DWIDTH 7 0
BBX 5 9 1 2
BITMAP
40
60
20
30
18
18
30
60
C0
ENDCHAR
STARTCHAR 203C
ENCODING 8252
SWIDTH 560 0
DWIDTH 14 0
BBX 10 17 2 0
BITMAP
6180
6180
6180
6180
6180
6180
4180
4180
4180
4180
4180
4180
0000
0000
E180
E1C0
E180
ENDCHAR
STARTCHAR 203D
ENCODING 8253
SWIDTH 440 0
DWIDTH 11 0
BBX 9 18 1 0
BITMAP
1800
7E00
C300
0380
1980
1900
1B00
1A00
1E00
1C00
1800
1800
0000
0000
0000
1800
3800
1800
ENDCHAR
STARTCHAR 203E
ENCODING 8254
SWIDTH 520 0
DWIDTH 13 0
BBX 12 1 0 14
BITMAP
FFF0
ENDCHAR
STARTCHAR 203F
ENCODING 8255
SWIDTH 0 0
DWIDTH 0 0
BBX 22 4 -11 -6
BITMAP
C0000C
700038
1FCFE0
03FF00
ENDCHAR
STARTCHAR 2044
ENCODING 8260
SWIDTH 80 0
DWIDTH 2 0
BBX 10 17 -4 0
BITMAP
0040
0080
0080
0100
0300
0200
0600
0400
0C00
0800
1800
1000
3000
2000
6000
4000
8000
ENDCHAR
STARTCHAR 2047
ENCODING 8263
SWIDTH 800 0
DWIDTH 20 0
BBX 18 17 1 0
BITMAP
3C0F00
7F3F80
C330C0
0300C0
0300C0
0300C0
060180
060300
0C0300
180600
180600
180600
000000
000000
180600
380E00
180600
ENDCHAR
STARTCHAR 2048
ENCODING 8264
SWIDTH 680 0
DWIDTH 17 0
BBX 14 17 1 0
BITMAP
3C18
7F18
C318
0318
0318
0318
0618
0618
0C08
1808
1808
1808
0000
0000
181C
381C
1818
ENDCHAR
STARTCHAR 2049
ENCODING 8265
SWIDTH 680 0
DWIDTH 17 0
BBX 14 17 2 0
BITMAP
61F0
63F8
621C
600C
600C
6018
4018
4030
4060
4060
40C0
40C0
0000
0000
E0E0
E0E0
E0C0
ENDCHAR
STARTCHAR 2070
ENCODING 8304
SWIDTH 360 0
DWIDTH 9 0
BBX 7 10 1 10
BITMAP
38
6C
C6
C2
82
82
C2
C6
46
7C
ENDCHAR
STARTCHAR 2071
ENCODING 8305
SWIDTH 160 0
DWIDTH 4 0
BBX 2 12 1 9
BITMAP
C0
C0
00
00
C0
C0
C0
C0
C0
C0
C0
C0
ENDCHAR
STARTCHAR 2074
ENCODING 8308
SWIDTH 360 0
DWIDTH 9 0
BBX 7 10 1 10
BITMAP
0C
1C
14
24
6C
4C
FE
0C
0C
0C
ENDCHAR
STARTCHAR 2075
ENCODING 8309
SWIDTH 360 0
DWIDTH 9 0
BBX 7 9 1 10
BITMAP
7E
60
40
7C
46
06
06
C6
7C
ENDCHAR
STARTCHAR 2076
ENCODING 8310
SWIDTH 360 0
DWIDTH 9 0
BBX 7 10 1 10
BITMAP
3C
64
40
C0
FC
E6
C2
C2
66
3C
ENDCHAR
STARTCHAR 2077
ENCODING 8311
SWIDTH 360 0
DWIDTH 9 0
BBX 7 9 1 10
BITMAP
FE
04
0C
08
18
18
10
10
30
ENDCHAR
STARTCHAR 2078
ENCODING 8312
SWIDTH 360 0
DWIDTH 9 0
BBX 7 10 1 10
BITMAP
3C
6C
46
44
3C
7C
C6
C6
C6
7C
ENDCHAR
STARTCHAR 2079
ENCODING 8313
SWIDTH 360 0
DWIDTH 9 0
BBX 7 10 1 10
BITMAP
38
CC
C6
86
C6
7E
06
06
0C
F8
ENDCHAR
STARTCHAR 207D
ENCODING 8317
SWIDTH 240 0
DWIDTH 6 0
BBX 3 13 2 9
BITMAP
60
40
C0
80
80
80
80
80
80
C0
C0
40
60
ENDCHAR
STARTCHAR 207E
ENCODING 8318
SWIDTH 240 0
DWIDTH 6 0
BBX 3 13 1 9
BITMAP
C0
40
60
60
20
20
20
20
20
60
60
40
80
ENDCHAR
STARTCHAR 207F
ENCODING 8319
SWIDTH 360 0
DWIDTH 9 0
BBX 7 8 1 10
BITMAP
DC
E6
C6
C6
C6
C6
C6
C6
ENDCHAR
STARTCHAR 2080
ENCODING 8320
SWIDTH 360 0
DWIDTH 9 0
BBX 7 10 1 -5
BITMAP
7C
46
C6
C2
82
82
C2
C6
6C
38
ENDCHAR
STARTCHAR 2081
ENCODING 8321
SWIDTH 360 0
DWIDTH 9 0
BBX 4 10 2 -5
BITMAP
30
F0
30
30
30
30
30
30
30
30
ENDCHAR
STARTCHAR 2082
ENCODING 8322
SWIDTH 360 0
DWIDTH 9 0
BBX 7 9 1 -4
BITMAP
7C
CC
04
04
0C
08
10
60
FE
ENDCHAR
STARTCHAR 2083
ENCODING 8323
SWIDTH 360 0
DWIDTH 9 0
BBX 7 10 1 -5
BITMAP
7C
44
06
0C
38
06
06
06
EE
78
ENDCHAR
STARTCHAR 2084
ENCODING 8324
SWIDTH 360 0
DWIDTH 9 0
BBX 7 11 1 -5
BITMAP
0C
0C
14
34
24
4C
CC
FE
0C
0C
0C
ENDCHAR
STARTCHAR 2085
ENCODING 8325
SWIDTH 360 0
DWIDTH 9 0
BBX 7 10 1 -5
BITMAP
7E
60
40
7C
46
06
06
06
EC
78
ENDCHAR
STARTCHAR 2086
ENCODING 8326
SWIDTH 360 0
DWIDTH 9 0
BBX 7 10 1 -5
BITMAP
3E
60
C0
FC
E6
C6
C2
46
66
3C
ENDCHAR
STARTCHAR 2087
ENCODING 8327
SWIDTH 360 0
DWIDTH 9 0
BBX 7 9 1 -4
BITMAP
FE
04
0C
08
18
18
10
10
30
ENDCHAR
STARTCHAR 2088
ENCODING 8328
SWIDTH 360 0
DWIDTH 9 0
BBX 7 11 1 -5
BITMAP
3C
6C
46
46
7C
38
4E
C6
C6
E6
7C
ENDCHAR
STARTCHAR 2089
ENCODING 8329
SWIDTH 360 0
DWIDTH 9 0
BBX 7 10 1 -5
BITMAP
7C
C4
86
C6
C6
7E
06
04
4C
78
ENDCHAR
STARTCHAR 208D
ENCODING 8333
SWIDTH 240 0
DWIDTH 6 0
BBX 3 13 2 -7
BITMAP
20
40
C0
C0
80
80
80
80
80
C0
C0
40
60
ENDCHAR
STARTCHAR 208E
ENCODING 8334
SWIDTH 240 0
DWIDTH 6 0
BBX 3 13 1 -7
BITMAP
80
40
60
60
20
20
20
20
20
60
60
40
C0
ENDCHAR
STARTCHAR 2094
ENCODING 8340
SWIDTH 320 0
DWIDTH 8 0
BBX 7 8 1 10
BITMAP
78
4C
06
FE
86
84
CC
78
ENDCHAR
STARTCHAR 20A1
ENCODING 8353
SWIDTH 480 0
DWIDTH 12 0
BBX 10 21 2 -2
BITMAP
0100
0500
0500
1F00
3FC0
7980
EA00
CA00
CA00
CA00
CA00
D200
D200
D200
D400
F400
74C0
3F80
1F00
2400
2400
ENDCHAR
STARTCHAR 20A4
ENCODING 8356
SWIDTH 480 0
DWIDTH 12 0
BBX 10 16 1 0
BITMAP
0F80
1FC0
3040
3000
3000
3000
FF00
3000
1800
FF00
1800
1800
1000
3000
7FC0
FFC0
ENDCHAR
STARTCHAR 20A6
ENCODING 8358
SWIDTH 480 0
DWIDTH 12 0
BBX 12 16 0 0
BITMAP
3040
3840
2840
3C40
3C40
3440
FFF0
3640
3240
FFF0
3340
3140
3140
31C0
30C0
30C0
ENDCHAR
STARTCHAR 20A7
ENCODING 8359
SWIDTH 480 0
DWIDTH 12 0
BBX 12 16 0 0
BITMAP
3F00
37C0
30C0
30E0
FFF0
3060
30C0
30C0
3780
3F00
3000
3000
3000
3000
3000
3000
ENDCHAR
STARTCHAR 20A9
ENCODING 8361
SWIDTH 480 0
DWIDTH 12 0
BBX 13 16 0 0
BITMAP
C030
C630
4630
6730
6730
6520
6520
FFF8
6920
2960
29E0
29E0
29E0
28C0
38C0
38C0
ENDCHAR
STARTCHAR 20AB
ENCODING 8363
SWIDTH 480 0
DWIDTH 12 0
BBX 10 17 2 0
BITMAP
0300
0300
1FC0
0300
0300
3F00
7F00
C300
C300
C300
C300
C300
E700
7D00
0000
0000
FF80
ENDCHAR
STARTCHAR 20AC
ENCODING 8364
SWIDTH 480 0
DWIDTH 12 0
BBX 11 16 1 0
BITMAP
0780
1FE0
1840
3000
3000
6000
FFC0
6000
6000
FF80
6000
3000
3000
3860
1FE0
0780
ENDCHAR
STARTCHAR 20AE
ENCODING 8366
SWIDTH 480 0
DWIDTH 12 0
BBX 11 16 1 0
BITMAP
FFE0
FFE0
0C00
0C00
0C80
0D80
0E00
1C00
6D80
0E00
1C00
7C00
4C00
0C00
0C00
0C00
ENDCHAR
STARTCHAR 20B1
ENCODING 8369
SWIDTH 480 0
DWIDTH 12 0
BBX 12 16 0 0
BITMAP
3F00
37C0
30C0
FFF0
3060
3060
FFF0
30C0
3780
3F00
3000
3000
3000
3000
3000
3000
ENDCHAR
ENDFONT
